<svg version="1.1" id="Layer_1" xmlns="http://www.w3.org/2000/svg" xmlns:xlink="http://www.w3.org/1999/xlink" x="0px" y="0px"
	 width="100%" viewBox="0 0 832 304" enable-background="new 0 0 832 304" xml:space="preserve">
<path fill="#000000" opacity="1.000000" stroke="none" 
	d="
M232.341141,197.940384 
	C235.220276,197.420166 237.306290,198.539749 239.379517,199.599991 
	C274.715698,217.670441 311.941254,230.430389 350.585144,239.214188 
	C375.299713,244.831818 400.340607,247.904007 425.593781,250.036423 
	C456.112274,252.613464 486.520935,251.787521 516.837280,248.528748 
	C558.245422,244.077728 598.379028,234.109268 636.954956,218.191223 
	C661.186035,208.192474 684.336609,196.105087 706.641296,182.363861 
	C707.914734,181.579346 709.207520,180.761017 710.597168,180.241989 
	C715.185303,178.528351 718.791260,181.048050 719.368347,185.916046 
	C720.016846,191.386169 717.811584,195.574936 714.241028,199.395615 
	C708.191467,205.868835 701.480652,211.615921 694.525940,217.044861 
	C657.176880,246.200027 615.449707,266.714355 570.107300,280.215332 
	C537.273010,289.991974 503.710388,294.414276 469.572998,294.038666 
	C415.570038,293.444489 363.999359,281.862671 314.982758,258.885284 
	C285.719727,245.167709 258.584167,228.124329 232.975723,208.534592 
	C227.494049,204.341263 227.328232,201.772919 232.341141,197.940384 
z"/>
<path fill="#000000" opacity="1.000000" stroke="none" 
	d="
M323.596283,216.495667 
	C314.299103,214.032532 312.345245,208.221558 312.462555,199.305267 
	C312.979797,160.005234 312.765656,120.693726 312.540741,81.387955 
	C312.510895,76.174217 314.280762,74.735550 319.135040,74.934166 
	C326.451660,75.233536 333.788849,75.019653 341.117188,75.047363 
	C348.452148,75.075104 348.448853,75.087944 348.971466,82.416969 
	C349.028748,83.220673 348.952698,84.094864 349.884918,84.677254 
	C351.824463,84.502609 352.897095,82.840302 354.276245,81.760368 
	C371.618744,68.180298 408.430817,73.005287 418.147491,98.148293 
	C419.232574,100.956116 420.062714,103.825783 420.321777,106.827507 
	C421.612732,121.786591 421.640015,136.756897 420.244141,151.700897 
	C418.660004,168.660751 403.105316,183.593216 385.753662,185.335144 
	C373.471375,186.568176 361.820770,185.321487 351.679199,177.550827 
	C349.598022,179.289963 350.885040,181.188278 350.870667,182.853973 
	C350.804718,190.514313 350.808044,198.177032 350.934113,205.836487 
	C350.997894,209.711487 349.808044,212.667023 346.055817,214.256058 
	C345.449371,214.512894 344.857910,214.872696 344.356110,215.298660 
	C337.878113,220.797729 331.095459,221.497986 323.596283,216.495667 
M355.061340,110.603165 
	C352.266907,113.522484 351.101562,117.058472 351.032166,121.041458 
	C350.925049,127.190170 350.767090,133.337982 350.639496,139.486374 
	C350.437836,149.201141 356.404907,155.457474 366.125031,155.732010 
	C377.165649,156.043869 383.521240,150.414474 383.701508,140.017532 
	C383.805298,134.031097 383.649841,128.040466 383.724121,122.053139 
	C383.811066,115.042061 381.962830,108.929405 374.848663,106.285507 
	C367.860443,103.688393 361.089294,104.259903 355.061340,110.603165 
z"/>
<path fill="#000000" opacity="1.000000" stroke="none" 
	d="
M173.271179,54.246552 
	C179.245865,50.545067 184.923386,47.058144 190.560913,43.507744 
	C192.839050,42.073029 195.060257,40.314346 197.894073,41.893143 
	C200.746262,43.482178 200.344406,46.372078 200.357834,49.015884 
	C200.393356,56.014313 200.510712,63.015572 200.355820,70.010399 
	C200.274231,73.695274 201.789062,75.085297 205.388107,75.030205 
	C213.051300,74.912895 220.720200,75.123131 228.381790,74.962753 
	C232.494370,74.876678 234.530289,76.104713 234.315765,80.657784 
	C234.018082,86.975594 234.038696,93.327835 234.324783,99.647148 
	C234.527985,104.135719 232.674744,105.465187 228.435410,105.320396 
	C221.111694,105.070267 213.762711,105.471664 206.446136,105.131050 
	C201.497299,104.900665 200.159454,106.891937 200.289459,111.549446 
	C200.563705,121.373039 200.327545,131.209946 200.376755,141.041000 
	C200.437927,153.259201 207.925217,158.572327 219.532303,154.959747 
	C222.103836,154.159363 224.586945,150.953568 227.301666,152.936737 
	C231.191299,155.778214 234.236938,159.711380 236.416092,164.035324 
	C237.849380,166.879303 235.635330,169.202850 233.793137,171.046021 
	C223.501526,181.343109 211.089325,186.637390 196.447006,185.890945 
	C188.093079,185.465042 179.864777,184.218704 172.741623,179.174667 
	C167.424927,175.409836 164.042068,170.593506 163.608322,163.901291 
	C162.486298,146.589233 163.342590,129.256943 163.006165,111.937210 
	C162.877289,105.301987 162.933838,105.278061 156.298935,105.257492 
	C150.466888,105.239410 144.630264,105.103737 138.804321,105.290306 
	C135.078110,105.409622 133.744492,103.803780 133.803955,100.250755 
	C133.918228,93.420677 133.923325,86.586311 133.819397,79.756073 
	C133.766571,76.282654 135.415421,74.994278 138.691696,75.022728 
	C145.023117,75.077698 151.361191,74.857872 157.685394,75.075264 
	C161.527863,75.207352 163.308594,73.741432 163.182358,69.928589 
	C163.176895,69.763885 163.254959,69.592056 163.231232,69.432930 
	C162.058029,61.568085 166.085159,57.079815 173.271179,54.246552 
z"/>
<path fill="#000000" opacity="1.000000" stroke="none" 
	d="
M483.731934,95.819290 
	C498.829590,78.924095 521.640808,76.215881 537.638977,89.245789 
	C547.135254,96.980110 550.383850,107.655121 551.080078,119.310654 
	C551.417114,124.953087 551.001099,130.637131 551.213257,136.291565 
	C551.361206,140.237045 549.743713,141.495117 545.905029,141.459244 
	C529.918213,141.309875 513.929199,141.379562 497.941010,141.385529 
	C492.353241,141.387619 491.623291,142.270142 492.456573,147.848129 
	C495.034515,165.104935 511.653015,173.693878 527.370422,165.891724 
	C527.668579,165.743683 527.958313,165.578522 528.254089,165.425552 
	C537.086548,160.857681 538.636230,161.269440 544.890808,169.160110 
	C546.537842,171.237991 546.194458,172.761124 544.426758,174.288223 
	C531.720947,185.264572 517.013977,187.834274 501.412262,182.935471 
	C486.499969,178.253113 478.428864,166.829849 475.912689,151.782715 
	C473.871002,139.572876 474.616211,127.189720 475.957794,114.929100 
	C476.709381,108.060127 479.531311,101.795441 483.731934,95.819290 
M506.509338,125.877068 
	C514.505066,125.870415 522.500854,125.878807 530.496460,125.845764 
	C532.328796,125.838196 534.134521,125.922844 534.623962,123.336220 
	C536.073364,115.675705 529.827393,103.420914 522.688477,100.252220 
	C515.639709,97.123535 508.589417,97.097794 502.254913,101.631302 
	C494.216217,107.384453 492.320557,115.981056 492.119873,125.878227 
	C496.926483,125.878227 501.220764,125.878227 506.509338,125.877068 
z"/>
<path fill="#000000" opacity="1.000000" stroke="none" 
	d="
M290.969604,112.000000 
	C290.965729,133.988571 290.989380,155.477203 290.943054,176.965683 
	C290.927124,184.358551 290.790436,184.392120 283.367920,184.401566 
	C274.706421,184.412567 266.040588,184.318680 257.385651,184.575073 
	C253.899216,184.678345 252.638382,183.558319 252.645721,180.069901 
	C252.716080,146.587662 252.709106,113.105164 252.639465,79.622917 
	C252.632858,76.454880 253.804581,75.016312 256.978027,75.029976 
	C266.805786,75.072296 276.634247,75.097794 286.461639,75.026176 
	C290.374146,74.997665 291.107971,77.222496 291.073914,80.516876 
	C290.967194,90.843842 290.994385,101.172188 290.969604,112.000000 
z"/>
<path fill="#000000" opacity="1.000000" stroke="none" 
	d="
M451.896973,94.995911 
	C451.736542,122.968948 451.466766,150.443192 451.518982,177.916809 
	C451.528290,182.816956 450.358582,184.739426 445.127228,184.488846 
	C434.228485,183.966782 434.917053,185.953537 434.887085,174.219086 
	C434.798676,139.566254 434.700592,104.913025 434.809967,70.260597 
	C434.824127,65.775513 433.685974,64.070312 428.954041,64.226311 
	C419.302216,64.544495 409.630005,64.185165 399.969666,64.332710 
	C396.191711,64.390411 394.539185,63.203453 394.641052,59.187107 
	C394.986725,45.558041 392.708160,47.022911 406.372742,46.989464 
	C430.529724,46.930336 454.686951,46.969563 478.844086,46.984600 
	C486.009674,46.989059 486.232208,47.192783 486.228943,54.188461 
	C486.223480,65.868599 487.120667,64.212624 476.058655,64.306190 
	C469.728302,64.359749 463.389801,64.492409 457.068848,64.240784 
	C453.060486,64.081207 451.850067,65.669945 451.931641,69.508415 
	C452.108459,77.833908 451.930450,86.166946 451.896973,94.995911 
z"/>
<path fill="#000000" opacity="1.000000" stroke="none" 
	d="
M616.980774,183.312698 
	C601.212097,186.942642 586.774719,185.800140 574.447266,174.705566 
	C567.042297,168.041199 563.341064,159.383423 562.081421,149.731262 
	C560.281189,135.937103 560.600708,122.243805 564.471375,108.699211 
	C572.397766,80.962593 610.781677,71.538414 633.292419,92.351685 
	C635.266296,94.176720 635.496460,95.964134 633.696655,97.937820 
	C632.239502,99.535751 630.646790,101.012444 629.224182,102.639069 
	C626.689209,105.537582 624.242249,105.678436 621.018127,103.378868 
	C613.854980,98.269852 605.677612,97.053665 597.182739,98.671829 
	C587.993713,100.422226 582.760498,106.731529 580.339050,115.278641 
	C577.012268,127.021484 576.940247,139.102585 579.636658,150.875214 
	C582.959717,165.383469 599.475769,172.684738 614.020386,166.805756 
	C615.098877,166.369843 616.147034,165.851471 617.184692,165.323166 
	C626.598083,160.530487 626.512268,160.600632 633.379395,168.494232 
	C635.475830,170.904007 635.008606,172.547821 632.906311,174.356064 
	C628.301880,178.316483 623.047302,181.130051 616.980774,183.312698 
z"/>
<path fill="#000000" opacity="1.000000" stroke="none" 
	d="
M716.725647,85.057678 
	C729.598145,92.259171 734.403870,103.451881 734.390259,117.284561 
	C734.387634,119.952026 733.376282,121.390266 730.580872,121.274002 
	C729.916077,121.246353 729.248413,121.284042 728.582092,121.291946 
	C718.844482,121.407471 718.844543,121.407471 716.471130,112.203545 
	C712.901672,98.360809 694.294678,93.211548 682.079773,102.899567 
	C673.247925,109.904404 668.559631,119.219810 668.378357,130.585922 
	C668.208740,141.223846 668.277222,141.054169 657.678955,140.993851 
	C653.056824,140.967529 651.702454,139.150970 651.752136,134.696838 
	C651.936218,118.204735 651.790100,101.709053 651.785095,85.214714 
	C651.781738,74.218491 651.944641,63.219807 651.749390,52.227264 
	C651.675537,48.071777 653.164185,46.660042 657.275635,46.746559 
	C670.136597,47.017212 668.223938,45.440170 668.328674,57.501835 
	C668.434021,69.627991 668.351868,81.755783 668.351868,95.009476 
	C683.313171,83.331444 698.389587,76.390236 716.725647,85.057678 
z"/>
<path fill="#000000" opacity="1.000000" stroke="none" 
	d="
M716.221985,137.980927 
	C726.793274,136.033310 736.999390,134.583633 747.362366,134.725189 
	C756.847778,134.854752 760.874878,138.848572 760.194458,148.394028 
	C758.543152,171.559174 752.836548,193.645355 741.640137,214.145905 
	C740.518066,216.200272 739.320740,218.296646 736.954285,219.119141 
	C734.802307,219.867081 732.664307,219.712570 730.879395,218.062149 
	C728.828979,216.166168 728.401855,213.796555 729.074097,211.195038 
	C731.574524,201.518417 733.445740,191.732559 734.244385,181.759140 
	C734.416809,179.606705 734.695862,177.439011 734.599854,175.292923 
	C734.127686,164.738953 730.030396,160.498383 719.483582,160.217194 
	C710.665466,159.982071 701.834167,160.246307 693.008667,160.278564 
	C691.343811,160.284637 689.650269,160.427032 688.020020,160.178406 
	C684.872620,159.698425 682.294617,158.348495 681.655029,154.814011 
	C681.001831,151.204758 682.973938,149.245529 685.960571,147.833328 
	C695.502502,143.321655 705.662231,140.719116 716.221985,137.980927 
z"/>
<path fill="#000000" opacity="1.000000" stroke="none" 
	d="
M290.629791,48.262253 
	C285.784180,58.501804 276.349945,63.087147 266.332733,60.355789 
	C256.440857,57.658604 250.679199,49.142262 251.501389,38.433395 
	C252.317551,27.803143 259.588959,19.971516 270.234009,19.338758 
	C286.279022,18.385025 296.290985,34.716209 290.629791,48.262253 
z"/>
</svg>