<svg version="1.1" id="Layer_1" xmlns="http://www.w3.org/2000/svg" xmlns:xlink="http://www.w3.org/1999/xlink" x="0px" y="0px"
	 width="100%" viewBox="0 0 800 480" enable-background="new 0 0 800 480" xml:space="preserve">
<path fill="#000000" opacity="1.000000" stroke="none" 
	d="
M385.729065,279.684326 
	C385.055878,268.769012 378.374634,266.663788 366.140350,273.163025 
	C364.301025,271.421112 364.932404,269.116669 364.929291,267.056305 
	C364.863464,223.400070 364.914215,179.743530 364.746399,136.087784 
	C364.728333,131.386597 366.464691,129.907990 370.874878,130.078110 
	C393.189880,130.938858 415.515259,130.682114 437.835968,130.359665 
	C442.457428,130.292908 442.304230,133.078827 442.303101,136.254944 
	C442.289978,172.912903 442.320374,209.570877 442.324921,246.228836 
	C442.328674,276.388336 442.246094,306.548157 442.379486,336.707031 
	C442.399323,341.198090 441.168488,344.706879 438.005493,347.885590 
	C429.194855,356.739990 420.591370,365.800079 411.826904,374.700989 
	C406.454010,380.157501 400.792908,379.970734 395.372894,374.429138 
	C386.987762,365.855896 378.562653,357.321808 370.163513,348.762268 
	C366.760742,345.294525 364.812683,341.252625 364.851013,336.258636 
	C364.930359,325.928406 364.859222,315.597046 364.857788,305.266144 
	C364.857330,301.908691 365.383057,298.633606 366.577057,295.490265 
	C368.297302,290.961578 371.169434,287.939697 376.345886,287.428528 
	C380.901031,286.978638 384.860046,285.420715 385.729065,279.684326 
z"/>
<path fill="#000000" opacity="1.000000" stroke="none" 
	d="
M298.074402,157.158691 
	C282.612213,148.473358 275.025726,135.441864 274.984680,118.172195 
	C274.958191,107.024940 274.040649,95.830795 275.465668,84.734543 
	C276.673248,75.331512 282.584015,69.469658 291.922821,67.746979 
	C294.850006,67.207024 297.877930,67.003426 300.859985,67.001190 
	C369.332520,66.949867 437.805115,66.939857 506.277679,66.964607 
	C509.091492,66.965630 511.959961,67.103302 514.709229,67.649246 
	C525.417297,69.775604 531.771606,76.938904 532.044556,87.795418 
	C532.350159,99.949684 533.046631,112.202477 531.917175,124.257263 
	C530.479004,139.607285 521.746277,150.868149 507.770508,157.371979 
	C494.919708,163.352310 482.205414,162.710190 470.474304,154.121170 
	C466.785492,151.420395 464.055573,147.789215 462.641052,143.377960 
	C460.500671,136.703033 463.419983,131.359894 470.189301,129.612900 
	C472.259766,129.078583 474.455719,128.996689 476.602570,128.798050 
	C485.307037,127.992744 491.836273,123.853531 497.204987,115.299942 
	C434.580109,115.299942 373.064087,115.299942 311.481689,115.299942 
	C313.168182,122.293747 320.873383,127.751747 330.103302,128.761246 
	C332.581146,129.032242 335.111053,129.183670 337.501984,129.821381 
	C343.224365,131.347656 346.105530,136.391144 344.657776,142.168976 
	C342.607544,150.351318 336.720551,155.023056 329.423584,158.197220 
	C318.986298,162.737396 308.638336,161.760223 298.074402,157.158691 
z"/>
<path fill="#000000" opacity="1.000000" stroke="none" 
	d="
M242.203278,390.749542 
	C237.229141,384.245514 232.596680,377.927490 228.911926,371.005920 
	C227.907272,369.118713 225.405365,366.729431 227.589401,364.767212 
	C229.785004,362.794495 231.831726,365.506989 233.587021,366.775055 
	C246.827606,376.340393 260.319855,385.510284 274.858551,393.015961 
	C301.869934,406.960785 330.369080,416.144562 360.628174,419.715790 
	C374.353516,421.335693 388.082092,422.826599 401.925354,422.639648 
	C440.366821,422.120483 477.156891,414.026642 512.256958,398.343781 
	C518.333069,395.628967 524.294556,392.654572 530.275818,389.732056 
	C533.092102,388.355988 535.747314,388.208801 538.111389,390.492401 
	C540.543762,392.841980 540.113586,395.654083 538.908203,398.361481 
	C537.331604,401.902740 534.796021,404.807220 532.196777,407.630981 
	C508.887878,432.953674 479.979492,448.388184 446.719635,456.290649 
	C429.957275,460.273376 413.023956,462.883453 395.800415,462.166718 
	C339.136841,459.808685 289.583405,440.680634 249.677887,399.285400 
	C247.138702,396.651428 244.840637,393.785004 242.203278,390.749542 
z"/>
<path fill="#000000" opacity="1.000000" stroke="none" 
	d="
M288.119385,334.045837 
	C288.122375,340.868500 288.061035,347.201172 288.152679,353.531647 
	C288.201111,356.876434 286.852722,358.405670 283.402130,358.321320 
	C277.906708,358.187012 272.398438,358.109406 266.909485,358.339508 
	C262.909851,358.507172 261.681793,356.793762 261.710693,353.013763 
	C261.816376,339.184723 261.713837,325.354126 261.705536,311.524139 
	C261.689514,284.863922 261.679565,258.203705 261.677704,231.543472 
	C261.677246,224.743973 261.695618,224.742233 268.672180,224.729935 
	C273.171082,224.722015 277.670044,224.710144 282.168884,224.722382 
	C283.333099,224.725555 285.004333,224.331970 285.579498,224.938766 
	C289.535004,229.111984 293.404877,225.737518 297.379730,225.200089 
	C315.236267,222.785843 330.179962,228.664536 340.946655,242.900253 
	C362.014771,270.756592 350.185944,310.635284 317.590576,323.107086 
	C309.087280,326.360657 300.461365,327.121674 291.773987,323.669220 
	C291.161011,323.425598 290.506104,323.265381 289.856018,323.146912 
	C289.555206,323.092102 289.219055,323.231293 288.626373,323.326172 
	C287.643951,326.639526 288.288513,330.128265 288.119385,334.045837 
M288.248322,286.476562 
	C288.257538,289.636566 288.333801,292.798248 288.254028,295.955994 
	C288.193726,298.341980 289.333740,299.778503 291.518829,300.307556 
	C295.723999,301.325714 299.943817,302.213593 304.326691,301.273315 
	C325.481781,296.734741 328.190216,270.987793 319.762115,259.265869 
	C313.415527,250.438919 302.862793,246.843918 292.963867,250.106201 
	C289.642639,251.200729 288.144928,252.879929 288.220184,256.545410 
	C288.418213,266.187500 288.262787,275.836884 288.248322,286.476562 
z"/>
<path fill="#000000" opacity="1.000000" stroke="none" 
	d="
M704.194458,229.616364 
	C717.666687,237.185867 723.766479,248.298096 723.445374,263.487061 
	C723.047485,282.303406 723.254028,301.135345 723.421875,319.958557 
	C723.458130,324.021393 722.261841,325.698944 718.058105,325.448456 
	C713.410217,325.171509 708.732788,325.402130 704.068298,325.389832 
	C696.809570,325.370697 696.795532,325.362885 696.779785,318.304321 
	C696.741760,301.312103 696.699280,284.319916 696.698120,267.327698 
	C696.697693,260.379913 695.884399,253.844101 688.452698,250.634171 
	C680.668945,247.272156 673.827881,249.834122 667.338867,254.231857 
	C664.994141,255.820938 665.430298,258.312683 665.425537,260.599976 
	C665.384644,280.257538 665.254517,299.916443 665.450317,319.571930 
	C665.494995,324.054657 664.396912,325.855835 659.623352,325.521423 
	C654.664734,325.174103 649.646790,325.690735 644.654236,325.802704 
	C641.263245,325.878754 639.589417,324.597595 639.596436,320.796143 
	C639.675110,278.315796 639.637024,235.835159 639.566772,193.354721 
	C639.561646,190.236115 640.615356,188.728622 643.891541,188.792740 
	C649.553406,188.903564 655.222717,188.946091 660.881714,188.776337 
	C664.463989,188.668869 665.452209,190.313141 665.408325,193.614639 
	C665.293213,202.275360 665.366943,210.939407 665.444336,219.601410 
	C665.472046,222.704651 665.486023,225.843506 666.852051,229.493454 
	C679.307617,222.987488 691.642090,223.223465 704.194458,229.616364 
z"/>
<path fill="#000000" opacity="1.000000" stroke="none" 
	d="
M509.366699,301.818665 
	C515.865112,302.189209 521.782898,301.506073 527.532959,299.559326 
	C529.329407,298.951141 530.983765,298.392700 532.328918,300.508026 
	C535.617249,305.678955 539.017029,310.779022 542.213257,315.665131 
	C542.231628,316.992279 541.515076,317.577850 540.808777,317.902802 
	C519.895630,327.522980 497.584198,331.139984 477.050110,315.733582 
	C464.871368,306.596069 458.605286,294.072723 457.737396,278.978821 
	C457.366364,272.525452 457.181580,266.012299 458.443573,259.568817 
	C462.056519,241.121445 475.423157,227.998795 493.853088,224.903748 
	C512.308167,221.804489 530.940125,230.264450 540.092896,245.835693 
	C542.512451,249.952042 543.778625,254.477005 544.132996,259.102203 
	C544.717041,266.724731 544.666138,274.393768 545.029358,282.036224 
	C545.211731,285.872437 543.747314,287.302185 539.800171,287.259155 
	C524.649536,287.093994 509.495758,287.189148 494.343353,287.241516 
	C492.569061,287.247650 490.686829,286.784607 488.451324,288.267853 
	C493.056366,296.298828 499.713348,300.872253 509.366699,301.818665 
M513.747192,255.799179 
	C508.055298,249.587555 502.627594,247.926270 496.552643,250.536438 
	C489.911682,253.389771 485.343048,260.911804 485.989044,268.319458 
	C496.666260,269.274780 507.327118,267.612366 518.263916,268.156128 
	C517.816895,263.406494 516.511047,259.720917 513.747192,255.799179 
z"/>
<path fill="#000000" opacity="1.000000" stroke="none" 
	d="
M167.659592,224.067963 
	C167.640656,213.433304 167.640656,213.435028 157.633682,213.422775 
	C149.305237,213.412567 140.972855,213.239761 132.649857,213.446167 
	C127.913071,213.563644 125.380440,212.050797 125.534805,206.942291 
	C125.624840,203.962677 125.054466,200.968628 125.029610,197.978989 
	C124.962791,189.942230 125.923622,188.972656 133.788696,188.935440 
	C143.282944,188.890503 152.777496,188.904083 162.271927,188.902817 
	C184.425629,188.899857 206.579315,188.897583 228.733017,188.906967 
	C236.494293,188.910248 238.214523,190.593155 238.304138,198.178772 
	C238.479675,213.035187 238.121338,213.401337 223.480942,213.402908 
	C216.151901,213.403687 208.822861,213.409485 201.493820,213.418869 
	C194.287201,213.428085 194.283646,213.431335 194.281143,220.429153 
	C194.269440,253.076691 194.263062,285.724213 194.246964,318.371765 
	C194.243591,325.191284 194.210037,324.977570 187.638062,325.540405 
	C182.784561,325.956085 177.983658,325.250763 173.174683,325.475677 
	C169.092316,325.666595 167.556580,324.140381 167.647949,319.997589 
	C167.853561,310.674500 167.689484,301.343353 167.684952,292.015503 
	C167.674011,269.528625 167.668289,247.041733 167.659592,224.067963 
z"/>
<path fill="#000000" opacity="1.000000" stroke="none" 
	d="
M582.926514,256.952698 
	C572.890808,270.765472 574.785217,288.231415 586.986511,297.401733 
	C594.558960,303.093048 602.810791,303.092316 611.169189,299.972687 
	C614.469788,298.740784 616.475159,299.272888 618.365662,301.965179 
	C621.782166,306.830658 626.132935,311.035126 629.144531,316.944885 
	C621.799805,321.767334 613.993347,324.944733 605.530212,326.023560 
	C581.453247,329.092743 558.785156,315.084534 551.682312,293.065125 
	C543.516174,267.749390 552.370300,242.447891 574.365723,230.481995 
	C592.422668,220.658661 610.229675,222.612991 627.242065,233.780106 
	C629.853760,235.494431 630.645447,237.236526 628.226929,239.756210 
	C626.615906,241.434677 625.024597,243.183197 623.732483,245.107239 
	C619.378540,251.590393 615.352783,254.786041 606.529480,250.222900 
	C598.342163,245.988678 589.616150,249.561798 582.926514,256.952698 
z"/>
<path fill="#000000" opacity="1.000000" stroke="none" 
	d="
M243.316040,245.000488 
	C243.318604,270.120605 243.183746,294.742249 243.434113,319.359955 
	C243.486755,324.535919 241.921036,326.033447 236.866089,325.565521 
	C231.759155,325.092773 226.565002,325.503876 221.411087,325.618530 
	C218.173569,325.690552 216.630905,324.566284 216.642242,320.989990 
	C216.738724,290.547729 216.731781,260.104919 216.647018,229.662582 
	C216.636810,225.992905 218.027878,224.593384 221.656418,224.709885 
	C227.473404,224.896683 233.299805,224.844894 239.121613,224.805374 
	C242.054260,224.785477 243.348938,226.090897 243.309128,229.030304 
	C243.239304,234.186096 243.306137,239.343750 243.316040,245.000488 
z"/>
<path fill="#000000" opacity="1.000000" stroke="none" 
	d="
M570.933105,394.709045 
	C564.050232,409.525757 555.747498,422.873505 543.544067,433.437958 
	C541.822266,434.928558 539.999756,437.007385 537.461365,435.071869 
	C534.942200,433.151031 535.704712,430.610504 536.868286,428.281708 
	C541.637817,418.735687 545.940369,408.998047 549.403687,398.893250 
	C550.554199,395.536255 551.058533,392.114349 551.061462,388.594269 
	C551.067261,381.551025 548.233704,378.612091 541.191772,378.268097 
	C529.445740,377.694244 518.004639,380.109924 506.482239,381.748749 
	C504.178192,382.076447 501.857330,382.307922 499.536865,382.490143 
	C498.161316,382.598145 496.811035,382.338959 496.131195,380.933289 
	C495.361084,379.341034 496.115997,378.013245 497.132355,376.839661 
	C497.671661,376.216858 498.301117,375.631317 498.991150,375.185852 
	C515.210510,364.715820 532.460388,357.330933 552.227417,357.662720 
	C567.861816,357.925140 576.727844,368.761261 573.894836,384.264099 
	C573.270142,387.682373 572.035278,390.989166 570.933105,394.709045 
z"/>
<path fill="#000000" opacity="1.000000" stroke="none" 
	d="
M90.147881,247.640594 
	C105.108299,247.629425 119.589447,247.609894 134.070587,247.619492 
	C135.897125,247.620712 137.805740,247.464279 139.533508,247.921097 
	C143.527039,248.976959 146.619217,251.265259 146.469513,255.847015 
	C146.326218,260.232971 143.727692,262.929840 139.409927,263.605988 
	C136.963379,263.989105 134.438461,263.960999 131.948669,263.963989 
	C117.966919,263.980835 103.985085,263.957642 90.003334,263.927826 
	C88.342018,263.924286 86.660294,263.939056 85.023705,263.700531 
	C80.319656,263.014923 77.703407,260.097717 77.697319,255.722687 
	C77.691780,251.738129 80.816109,248.345749 85.180122,247.759033 
	C86.654907,247.560760 88.171257,247.671585 90.147881,247.640594 
z"/>
<path fill="#000000" opacity="1.000000" stroke="none" 
	d="
M142.631012,298.312012 
	C140.526840,298.348724 138.858307,298.445770 137.200134,298.354462 
	C131.880539,298.061401 127.893661,294.092468 127.886955,289.166168 
	C127.881416,285.093750 131.537216,281.414673 136.427750,280.902924 
	C138.723602,280.662689 141.112228,280.675659 143.389526,281.025177 
	C147.891953,281.716309 151.219009,285.378143 151.338623,289.350555 
	C151.477448,293.961243 148.788849,296.867188 142.631012,298.312012 
z"/>
<path fill="#000000" opacity="1.000000" stroke="none" 
	d="
M109.878265,284.528778 
	C114.471405,282.925323 117.492706,284.470581 118.888229,288.500458 
	C120.113686,292.039215 118.769539,295.131989 115.484703,296.913574 
	C112.225433,298.681274 109.259964,297.718323 107.382042,294.602356 
	C105.077591,290.778687 105.832924,287.359283 109.878265,284.528778 
z"/>
</svg>