<svg version="1.1" id="Layer_1" xmlns="http://www.w3.org/2000/svg" xmlns:xlink="http://www.w3.org/1999/xlink" x="0px" y="0px"
	 width="100%" viewBox="0 0 787 397" enable-background="new 0 0 787 397" xml:space="preserve">
<path fill="#FDFEFE" opacity="1.000000" stroke="none" 
	d="
M625.000000,398.000000 
	C455.975098,398.000000 286.950195,398.000000 117.426384,397.641724 
	C115.165962,393.984406 113.740372,390.443359 111.573959,387.435974 
	C106.858536,380.890015 101.738441,374.636536 96.864220,368.202576 
	C96.313713,367.475922 95.997131,366.340668 96.054550,365.425171 
	C96.293571,361.614777 93.938957,359.559509 90.827194,359.265961 
	C86.689903,358.875671 86.444649,356.566833 85.878159,353.301392 
	C84.829735,347.257996 83.086296,341.331665 81.519691,335.386230 
	C81.333984,334.681488 80.525093,333.753784 79.867271,333.623108 
	C75.418991,332.739410 76.286545,329.347260 75.886864,326.246338 
	C75.578781,323.856110 74.845070,320.258484 73.253525,319.550018 
	C69.560944,317.906311 69.070625,315.553436 68.855339,312.119415 
	C68.729843,310.117645 67.421608,306.735840 66.197182,306.520142 
	C61.909676,305.764923 61.880096,303.159515 61.978531,299.974823 
	C62.076283,296.812073 62.167004,293.631073 61.926632,290.483582 
	C61.809608,288.951324 61.361465,286.691498 60.318558,286.120087 
	C56.798035,284.191101 57.055687,281.207275 56.935501,278.004974 
	C56.818260,274.881256 56.375381,271.733795 55.718113,268.673492 
	C54.107376,261.173706 55.094761,253.496964 52.504242,245.835693 
	C50.803196,240.804977 48.732071,234.213913 51.864624,228.158478 
	C52.325470,227.267654 51.100292,225.478851 50.602303,224.124985 
	C50.104069,222.770462 49.059235,221.434082 49.076672,220.100479 
	C49.307022,202.479950 49.507538,184.855133 50.130188,167.246048 
	C50.313995,162.047852 51.738083,156.885254 52.696835,151.725494 
	C53.374687,148.077454 54.445061,144.491394 54.943527,140.823761 
	C55.541271,136.425583 53.403564,131.323196 58.560890,128.216125 
	C58.864174,128.033417 59.050549,127.244164 58.934063,126.840172 
	C57.577148,122.134079 58.336597,118.586555 61.506401,114.173767 
	C63.980797,110.729095 60.641094,104.024437 65.882835,100.466049 
	C63.007244,94.279198 66.590973,89.336868 68.948891,84.123703 
	C69.330925,83.279053 68.850250,82.063507 69.180229,81.171837 
	C69.794350,79.512375 70.391815,76.908302 71.558411,76.555283 
	C76.434349,75.079796 75.885735,71.471542 76.064163,67.761642 
	C76.282341,63.225651 75.141647,58.007057 81.130974,55.682606 
	C82.041687,55.329155 82.370705,53.478146 82.969902,52.320393 
	C83.478271,51.338150 83.812027,49.668633 84.525940,49.485771 
	C89.451035,48.224262 88.965691,44.495747 89.081749,40.767818 
	C89.138359,38.949593 89.834259,35.706493 90.622009,35.585243 
	C96.714943,34.647453 95.847008,30.314901 96.128754,26.139999 
	C96.246605,24.393618 97.432770,21.689980 98.739555,21.258675 
	C101.853806,20.230824 102.788002,18.561905 103.134872,15.515928 
	C103.390404,13.271983 104.238701,9.955345 105.804771,9.226515 
	C109.647781,7.438019 110.764168,4.680944 111.000000,1.000000 
	C284.358246,1.000000 457.716461,1.000000 631.575562,1.357019 
	C633.634766,5.341050 635.296326,8.928044 636.721497,12.606655 
	C638.062561,16.068130 638.539490,20.001600 643.319641,20.841795 
	C644.280029,21.010611 645.020508,22.691643 645.769592,23.741663 
	C646.942932,25.386415 648.050049,27.079155 649.161072,28.767477 
	C650.063354,30.138603 651.832703,31.658401 651.660828,32.896069 
	C650.790161,39.166176 656.604004,42.633057 657.602844,48.053341 
	C657.794861,49.095596 658.824524,49.988491 659.484497,50.938660 
	C661.627808,54.024498 663.771423,57.110107 665.931519,60.184193 
	C666.567566,61.089394 667.100037,62.496799 667.951965,62.746693 
	C671.686707,63.842140 671.322327,66.335136 670.456604,69.078568 
	C669.495422,72.124535 670.365234,75.035568 673.345947,75.437004 
	C678.616089,76.146782 678.138916,79.523582 677.992615,83.058487 
	C677.871582,85.983757 677.306152,88.949974 677.629761,91.820007 
	C678.083252,95.841652 679.526917,99.757423 679.913513,103.779366 
	C680.416748,109.014816 678.437988,114.868385 684.542175,118.333244 
	C685.144714,118.675278 685.197205,119.873238 685.724915,120.483772 
	C686.806885,121.735565 687.850220,123.501106 689.244629,123.908875 
	C692.862061,124.966713 691.943665,127.693459 691.948547,130.008423 
	C691.953430,132.328995 692.859131,135.095139 689.220337,136.082809 
	C687.977295,136.420197 686.188904,138.101166 686.243469,139.079391 
	C686.325012,140.541748 687.770447,141.957092 688.720276,143.334152 
	C689.761169,144.843185 691.743469,146.225845 691.853271,147.767685 
	C692.477417,156.533859 692.631592,165.332626 693.016968,174.117172 
	C693.160828,177.395813 692.620361,181.165604 694.089355,183.744598 
	C694.913635,185.191818 699.245117,184.496384 701.918945,185.106140 
	C702.995789,185.351700 703.865295,186.506424 704.829163,187.247345 
	C704.040588,188.145065 703.310608,189.104034 702.450317,189.926697 
	C701.031616,191.283325 699.528687,192.551849 698.061218,193.857498 
	C699.434570,195.245300 700.792114,196.649216 702.187012,198.015015 
	C703.051270,198.861237 703.972229,199.649582 704.867676,200.463928 
	C703.996460,201.299759 703.172241,202.192764 702.242737,202.957779 
	C700.919617,204.046738 699.404358,204.923416 698.183411,206.109299 
	C696.901367,207.354523 696.052002,209.079605 694.688354,210.198807 
	C692.301880,212.157486 692.119263,217.370285 694.899048,218.719986 
	C699.512939,220.960236 698.993896,222.326660 694.735413,224.347549 
	C692.023071,225.634720 692.162598,230.391464 694.928101,231.736038 
	C699.622620,234.018402 698.989502,235.600769 694.676208,237.303864 
	C694.126343,237.520966 693.439819,238.164352 693.363892,238.689392 
	C692.640564,243.688751 692.130737,248.720352 691.337463,253.707336 
	C691.104980,255.168304 690.340881,257.593964 689.516296,257.729706 
	C685.959961,258.315094 685.949219,260.613708 685.987488,263.246277 
	C686.038269,266.743958 686.141296,270.251495 685.933533,273.737579 
	C685.839722,275.311340 685.427734,277.897186 684.514771,278.224701 
	C678.311035,280.450043 680.424072,285.541687 679.945435,289.838409 
	C679.609314,292.856262 679.122498,295.953857 678.052856,298.768829 
	C676.741455,302.220306 674.130005,305.247009 673.187195,308.754761 
	C671.317810,315.710419 672.726135,323.657684 665.713928,328.896576 
	C663.607056,330.470612 662.940674,333.854919 661.002197,335.799683 
	C658.099548,338.711761 658.361694,340.096710 662.319763,341.105225 
	C663.260925,341.345032 664.317810,342.290924 664.689758,343.177185 
	C664.919556,343.724854 664.026917,345.441528 663.517395,345.495667 
	C657.024475,346.184998 657.945129,350.966156 658.019958,355.234039 
	C658.065369,357.818237 656.883972,358.777740 654.666138,360.340546 
	C651.056152,362.884460 646.879211,365.527100 645.746460,370.769165 
	C645.059998,373.946014 643.366882,377.005249 641.644531,379.823029 
	C640.511963,381.675964 638.514648,382.997772 636.917480,384.570465 
	C636.144836,385.331207 635.511108,386.626648 634.627808,386.817963 
	C628.529785,388.138611 627.840454,393.974152 625.000000,398.000000 
M560.242615,192.319244 
	C543.565674,185.628098 526.888672,178.936951 509.678314,172.031784 
	C509.678314,188.555954 509.672821,203.671295 509.698364,218.786575 
	C509.699371,219.395599 509.994324,220.004120 510.290985,221.147018 
	C516.052307,218.863831 521.628540,216.793488 527.092163,214.459488 
	C538.210815,209.709732 549.268616,204.817657 560.806152,200.440659 
	C562.039734,204.314606 565.090210,206.653839 568.681946,205.697540 
	C571.639709,204.910004 575.379089,202.441986 576.283142,199.850464 
	C577.194214,197.238647 575.872742,192.930389 574.038818,190.481918 
	C570.851013,186.225983 565.912903,187.311676 560.242615,192.319244 
M479.565460,88.860695 
	C492.338440,96.008667 500.594818,106.425079 503.366699,121.044998 
	C503.668823,122.638672 505.729340,125.009514 507.100647,125.099770 
	C513.402100,125.514496 519.761902,125.489021 526.073975,125.138496 
	C530.192993,124.909760 532.530823,122.732079 532.497864,117.973305 
	C532.290466,87.981964 532.328796,57.989021 532.215515,27.996876 
	C532.187805,20.648499 531.421448,19.994427 524.164246,19.993910 
	C456.180206,19.989065 388.196136,19.987015 320.212097,19.989239 
	C287.219849,19.990318 254.227463,20.044041 221.235504,19.949459 
	C217.631027,19.939127 215.781830,20.491289 215.808655,24.777222 
	C216.001678,55.601875 216.021988,86.428047 215.955719,117.253433 
	C215.945541,121.987404 218.095352,124.783211 222.497452,125.025002 
	C229.595490,125.414856 236.730576,125.129738 243.832901,125.129738 
	C247.105011,103.839172 258.399719,88.800972 279.034912,84.624649 
	C295.098236,81.373642 312.006134,82.295700 329.032227,81.335289 
	C329.032227,84.452187 329.031921,86.080040 329.032257,87.707901 
	C329.042725,135.863235 328.987518,184.018723 329.091095,232.173859 
	C329.144440,256.981354 318.907806,275.370636 296.305054,286.447937 
	C295.092346,287.042267 293.705627,288.716461 293.635590,289.957764 
	C293.338989,295.212708 293.509827,300.494080 293.509827,305.726929 
	C347.583832,305.726929 401.115784,305.726929 454.604736,305.726929 
	C454.604736,299.542114 454.604736,293.778442 454.604736,287.990417 
	C428.359192,278.099274 418.587524,258.181213 418.724152,231.554581 
	C418.970398,183.567184 418.772400,135.577530 418.759979,87.588806 
	C418.759552,85.849319 418.759888,84.109825 418.759888,82.314453 
	C431.510559,82.314453 443.548157,81.573799 455.439270,82.574425 
	C463.388336,83.243324 471.129028,86.388123 479.565460,88.860695 
M187.209030,309.294312 
	C209.000610,328.344086 232.579666,344.639557 258.873352,356.996552 
	C289.840942,371.550110 322.324982,379.868622 356.442780,381.684601 
	C397.063324,383.846710 435.845062,375.996216 473.202209,360.105408 
	C506.460510,345.958191 535.120483,325.238617 560.924072,300.237823 
	C563.865051,297.388367 564.931763,294.470093 562.077881,291.105804 
	C559.367615,287.910889 556.160767,287.946014 552.687378,290.000092 
	C549.398071,291.945282 546.022522,293.747681 542.653809,295.555054 
	C503.171906,316.737488 462.344055,333.865570 417.491272,340.370178 
	C368.832794,347.426666 321.188019,343.492340 274.352753,329.243134 
	C239.931992,318.770935 207.989822,302.747040 177.318771,284.090759 
	C174.626938,282.453400 171.833557,280.802185 168.863052,279.879608 
	C167.370361,279.416016 164.833649,280.060730 163.774307,281.166931 
	C162.924347,282.054504 163.044693,284.657867 163.710129,286.024933 
	C164.698944,288.056366 166.391144,289.833618 168.060486,291.429840 
	C174.198593,297.299164 180.450699,303.049286 187.209030,309.294312 
M310.407166,197.741364 
	C310.407166,195.465149 310.407166,193.188950 310.407166,190.479675 
	C297.445068,190.479675 285.144562,190.483841 272.844025,190.478958 
	C223.516495,190.459320 174.188980,190.417877 124.861458,190.432724 
	C115.800873,190.435455 110.014656,195.747452 110.038452,203.758423 
	C110.060455,211.165359 116.451744,217.325821 124.429543,217.327896 
	C185.421921,217.343689 246.414291,217.308563 307.406677,217.270187 
	C308.344452,217.269592 309.282074,217.026352 310.410095,216.869949 
	C310.410095,210.649368 310.410095,204.669632 310.407166,197.741364 
M234.499908,173.182037 
	C259.643280,173.182037 284.786652,173.182037 310.023499,173.182037 
	C310.023499,164.055084 310.023499,155.316330 310.023499,146.415924 
	C308.363525,146.341309 307.048676,146.229416 305.733917,146.230713 
	C261.241058,146.274582 216.748199,146.319305 172.255371,146.390564 
	C163.326889,146.404861 157.017288,152.109299 157.027542,160.030502 
	C157.037552,167.770157 163.143829,173.164047 172.009613,173.173477 
	C192.506363,173.195267 213.003128,173.180481 234.499908,173.182037 
M176.438141,250.717194 
	C179.223648,258.318756 183.010208,261.132538 190.886414,261.141632 
	C229.510376,261.186188 268.134399,261.188202 306.758392,261.187836 
	C307.867157,261.187836 308.975891,260.993042 310.043213,260.892944 
	C310.043213,251.863800 310.043213,243.134018 310.043213,234.355026 
	C309.267731,234.217819 308.796844,234.061676 308.325897,234.061569 
	C269.035431,234.052231 229.744843,234.005188 190.454559,234.092758 
	C180.947784,234.113953 175.904175,239.957367 176.438141,250.717194 
M598.205811,296.738403 
	C600.111938,285.974060 602.644836,275.273621 603.750488,264.427673 
	C604.891968,253.230881 600.372253,248.106735 589.345520,246.032181 
	C585.766479,245.358826 582.076294,244.902283 578.444092,244.945618 
	C549.337341,245.292877 523.694397,256.132751 499.575409,271.389984 
	C498.254852,272.225342 497.455566,273.884705 496.413605,275.160461 
	C496.661560,275.602356 496.909546,276.044250 497.157501,276.486145 
	C502.476166,275.567566 507.768616,274.440063 513.118408,273.769653 
	C529.107727,271.765961 545.076660,269.253998 561.135376,268.249603 
	C575.767822,267.334412 582.118713,275.162872 580.458862,289.748993 
	C580.421265,290.079651 580.376648,290.412720 580.296082,290.734802 
	C577.798889,300.713287 575.406189,310.719879 572.744751,320.654419 
	C571.585449,324.981598 569.484924,329.078705 568.564880,333.439178 
	C568.055176,335.855286 569.099609,338.599274 569.443481,341.195496 
	C571.963928,340.145752 574.746521,339.467621 576.923828,337.931580 
	C578.742126,336.648743 580.210693,334.537506 581.215759,332.489685 
	C586.913635,320.879822 592.425537,309.178619 598.205811,296.738403 
M478.986694,204.833008 
	C483.189972,207.071487 487.479279,206.670868 490.212463,203.056152 
	C491.945709,200.763901 492.831421,196.920013 492.343079,194.072845 
	C491.615082,189.828537 487.869781,186.794571 483.624054,187.624420 
	C480.538300,188.227524 477.011963,190.787628 475.357422,193.497940 
	C472.979736,197.392853 474.580170,201.495926 478.986694,204.833008 
M453.820374,193.037674 
	C451.462921,192.426224 448.767273,190.832230 446.847748,191.493011 
	C445.096619,192.095825 443.113556,195.185745 443.191010,197.100311 
	C443.278229,199.256760 445.150208,201.900558 447.027405,203.222809 
	C448.222565,204.064651 451.249573,203.496643 452.733307,202.493286 
	C455.952515,200.316376 455.833527,197.000366 453.820374,193.037674 
M590.730652,193.438538 
	C587.907837,196.968643 588.505676,200.185287 591.865295,202.875000 
	C594.723083,205.162979 597.404968,204.328506 599.687073,201.788361 
	C602.354309,198.819626 602.139587,195.858765 599.463562,193.024063 
	C596.766663,190.167191 593.963806,189.497101 590.730652,193.438538 
z"/>
<path fill="#F7FCFE" opacity="1.000000" stroke="none" 
	d="
M625.468628,398.000000 
	C627.840454,393.974152 628.529785,388.138611 634.627808,386.817963 
	C635.511108,386.626648 636.144836,385.331207 636.917480,384.570465 
	C638.514648,382.997772 640.511963,381.675964 641.644531,379.823029 
	C643.366882,377.005249 645.059998,373.946014 645.746460,370.769165 
	C646.879211,365.527100 651.056152,362.884460 654.666138,360.340546 
	C656.883972,358.777740 658.065369,357.818237 658.019958,355.234039 
	C657.945129,350.966156 657.024475,346.184998 663.517395,345.495667 
	C664.026917,345.441528 664.919556,343.724854 664.689758,343.177185 
	C664.317810,342.290924 663.260925,341.345032 662.319763,341.105225 
	C658.361694,340.096710 658.099548,338.711761 661.002197,335.799683 
	C662.940674,333.854919 663.607056,330.470612 665.713928,328.896576 
	C672.726135,323.657684 671.317810,315.710419 673.187195,308.754761 
	C674.130005,305.247009 676.741455,302.220306 678.052856,298.768829 
	C679.122498,295.953857 679.609314,292.856262 679.945435,289.838409 
	C680.424072,285.541687 678.311035,280.450043 684.514771,278.224701 
	C685.427734,277.897186 685.839722,275.311340 685.933533,273.737579 
	C686.141296,270.251495 686.038269,266.743958 685.987488,263.246277 
	C685.949219,260.613708 685.959961,258.315094 689.516296,257.729706 
	C690.340881,257.593964 691.104980,255.168304 691.337463,253.707336 
	C692.130737,248.720352 692.640564,243.688751 693.363892,238.689392 
	C693.439819,238.164352 694.126343,237.520966 694.676208,237.303864 
	C698.989502,235.600769 699.622620,234.018402 694.928101,231.736038 
	C692.162598,230.391464 692.023071,225.634720 694.735413,224.347549 
	C698.993896,222.326660 699.512939,220.960236 694.899048,218.719986 
	C692.119263,217.370285 692.301880,212.157486 694.688354,210.198807 
	C696.052002,209.079605 696.901367,207.354523 698.183411,206.109299 
	C699.404358,204.923416 700.919617,204.046738 702.242737,202.957779 
	C703.172241,202.192764 703.996460,201.299759 704.867676,200.463928 
	C703.972229,199.649582 703.051270,198.861237 702.187012,198.015015 
	C700.792114,196.649216 699.434570,195.245300 698.061218,193.857498 
	C699.528687,192.551849 701.031616,191.283325 702.450317,189.926697 
	C703.310608,189.104034 704.040588,188.145065 704.829163,187.247345 
	C703.865295,186.506424 702.995789,185.351700 701.918945,185.106140 
	C699.245117,184.496384 694.913635,185.191818 694.089355,183.744598 
	C692.620361,181.165604 693.160828,177.395813 693.016968,174.117172 
	C692.631592,165.332626 692.477417,156.533859 691.853271,147.767685 
	C691.743469,146.225845 689.761169,144.843185 688.720276,143.334152 
	C687.770447,141.957092 686.325012,140.541748 686.243469,139.079391 
	C686.188904,138.101166 687.977295,136.420197 689.220337,136.082809 
	C692.859131,135.095139 691.953430,132.328995 691.948547,130.008423 
	C691.943665,127.693459 692.862061,124.966713 689.244629,123.908875 
	C687.850220,123.501106 686.806885,121.735565 685.724915,120.483772 
	C685.197205,119.873238 685.144714,118.675278 684.542175,118.333244 
	C678.437988,114.868385 680.416748,109.014816 679.913513,103.779366 
	C679.526917,99.757423 678.083252,95.841652 677.629761,91.820007 
	C677.306152,88.949974 677.871582,85.983757 677.992615,83.058487 
	C678.138916,79.523582 678.616089,76.146782 673.345947,75.437004 
	C670.365234,75.035568 669.495422,72.124535 670.456604,69.078568 
	C671.322327,66.335136 671.686707,63.842140 667.951965,62.746693 
	C667.100037,62.496799 666.567566,61.089394 665.931519,60.184193 
	C663.771423,57.110107 661.627808,54.024498 659.484497,50.938660 
	C658.824524,49.988491 657.794861,49.095596 657.602844,48.053341 
	C656.604004,42.633057 650.790161,39.166176 651.660828,32.896069 
	C651.832703,31.658401 650.063354,30.138603 649.161072,28.767477 
	C648.050049,27.079155 646.942932,25.386415 645.769592,23.741663 
	C645.020508,22.691643 644.280029,21.010611 643.319641,20.841795 
	C638.539490,20.001600 638.062561,16.068130 636.721497,12.606655 
	C635.296326,8.928044 633.634766,5.341050 632.038208,1.357019 
	C683.968201,1.000000 735.936462,1.000000 787.952332,1.000000 
	C787.952332,133.220673 787.952332,265.441345 787.952332,398.000000 
	C733.979553,398.000000 679.958435,398.000000 625.468628,398.000000 
z"/>
<path fill="#F8FDFF" opacity="1.000000" stroke="none" 
	d="
M110.531342,1.000000 
	C110.764168,4.680944 109.647781,7.438019 105.804771,9.226515 
	C104.238701,9.955345 103.390404,13.271983 103.134872,15.515928 
	C102.788002,18.561905 101.853806,20.230824 98.739555,21.258675 
	C97.432770,21.689980 96.246605,24.393618 96.128754,26.139999 
	C95.847008,30.314901 96.714943,34.647453 90.622009,35.585243 
	C89.834259,35.706493 89.138359,38.949593 89.081749,40.767818 
	C88.965691,44.495747 89.451035,48.224262 84.525940,49.485771 
	C83.812027,49.668633 83.478271,51.338150 82.969902,52.320393 
	C82.370705,53.478146 82.041687,55.329155 81.130974,55.682606 
	C75.141647,58.007057 76.282341,63.225651 76.064163,67.761642 
	C75.885735,71.471542 76.434349,75.079796 71.558411,76.555283 
	C70.391815,76.908302 69.794350,79.512375 69.180229,81.171837 
	C68.850250,82.063507 69.330925,83.279053 68.948891,84.123703 
	C66.590973,89.336868 63.007244,94.279198 65.882835,100.466049 
	C60.641094,104.024437 63.980797,110.729095 61.506401,114.173767 
	C58.336597,118.586555 57.577148,122.134079 58.934063,126.840172 
	C59.050549,127.244164 58.864174,128.033417 58.560890,128.216125 
	C53.403564,131.323196 55.541271,136.425583 54.943527,140.823761 
	C54.445061,144.491394 53.374687,148.077454 52.696835,151.725494 
	C51.738083,156.885254 50.313995,162.047852 50.130188,167.246048 
	C49.507538,184.855133 49.307022,202.479950 49.076672,220.100479 
	C49.059235,221.434082 50.104069,222.770462 50.602303,224.124985 
	C51.100292,225.478851 52.325470,227.267654 51.864624,228.158478 
	C48.732071,234.213913 50.803196,240.804977 52.504242,245.835693 
	C55.094761,253.496964 54.107376,261.173706 55.718113,268.673492 
	C56.375381,271.733795 56.818260,274.881256 56.935501,278.004974 
	C57.055687,281.207275 56.798035,284.191101 60.318558,286.120087 
	C61.361465,286.691498 61.809608,288.951324 61.926632,290.483582 
	C62.167004,293.631073 62.076283,296.812073 61.978531,299.974823 
	C61.880096,303.159515 61.909676,305.764923 66.197182,306.520142 
	C67.421608,306.735840 68.729843,310.117645 68.855339,312.119415 
	C69.070625,315.553436 69.560944,317.906311 73.253525,319.550018 
	C74.845070,320.258484 75.578781,323.856110 75.886864,326.246338 
	C76.286545,329.347260 75.418991,332.739410 79.867271,333.623108 
	C80.525093,333.753784 81.333984,334.681488 81.519691,335.386230 
	C83.086296,341.331665 84.829735,347.257996 85.878159,353.301392 
	C86.444649,356.566833 86.689903,358.875671 90.827194,359.265961 
	C93.938957,359.559509 96.293571,361.614777 96.054550,365.425171 
	C95.997131,366.340668 96.313713,367.475922 96.864220,368.202576 
	C101.738441,374.636536 106.858536,380.890015 111.573959,387.435974 
	C113.740372,390.443359 115.165962,393.984406 116.963745,397.641724 
	C78.360497,398.000000 39.720989,398.000000 1.081481,398.000000 
	C1.054317,397.860626 1.003351,397.721222 1.003347,397.581848 
	C0.999968,265.508026 1.000000,133.434189 1.000000,1.000000 
	C37.353436,1.000000 73.708061,1.000000 110.531342,1.000000 
z"/>
<path fill="#051C2B" opacity="1.000000" stroke="none" 
	d="
M479.264221,88.642830 
	C471.129028,86.388123 463.388336,83.243324 455.439270,82.574425 
	C443.548157,81.573799 431.510559,82.314453 418.759888,82.314453 
	C418.759888,84.109825 418.759552,85.849319 418.759979,87.588806 
	C418.772400,135.577530 418.970398,183.567184 418.724152,231.554581 
	C418.587524,258.181213 428.359192,278.099274 454.604736,287.990417 
	C454.604736,293.778442 454.604736,299.542114 454.604736,305.726929 
	C401.115784,305.726929 347.583832,305.726929 293.509827,305.726929 
	C293.509827,300.494080 293.338989,295.212708 293.635590,289.957764 
	C293.705627,288.716461 295.092346,287.042267 296.305054,286.447937 
	C318.907806,275.370636 329.144440,256.981354 329.091095,232.173859 
	C328.987518,184.018723 329.042725,135.863235 329.032257,87.707901 
	C329.031921,86.080040 329.032227,84.452187 329.032227,81.335289 
	C312.006134,82.295700 295.098236,81.373642 279.034912,84.624649 
	C258.399719,88.800972 247.105011,103.839172 243.832901,125.129738 
	C236.730576,125.129738 229.595490,125.414856 222.497452,125.025002 
	C218.095352,124.783211 215.945541,121.987404 215.955719,117.253433 
	C216.021988,86.428047 216.001678,55.601875 215.808655,24.777222 
	C215.781830,20.491289 217.631027,19.939127 221.235504,19.949459 
	C254.227463,20.044041 287.219849,19.990318 320.212097,19.989239 
	C388.196136,19.987015 456.180206,19.989065 524.164246,19.993910 
	C531.421448,19.994427 532.187805,20.648499 532.215515,27.996876 
	C532.328796,57.989021 532.290466,87.981964 532.497864,117.973305 
	C532.530823,122.732079 530.192993,124.909760 526.073975,125.138496 
	C519.761902,125.489021 513.402100,125.514496 507.100647,125.099770 
	C505.729340,125.009514 503.668823,122.638672 503.366699,121.044998 
	C500.594818,106.425079 492.338440,96.008667 479.264221,88.642830 
M245.259003,40.187988 
	C237.686432,40.187988 230.113861,40.187988 222.398651,40.187988 
	C222.398651,43.705505 222.398651,46.607750 222.398651,49.685165 
	C231.316620,49.685165 239.989624,49.685165 248.824066,49.685165 
	C248.912216,48.070164 248.997269,46.767982 249.049377,45.464481 
	C249.082474,44.636551 249.384247,43.596245 249.004425,43.022865 
	C248.285233,41.937099 247.162247,41.118782 245.259003,40.187988 
z"/>
<path fill="#061F2E" opacity="1.000000" stroke="none" 
	d="
M186.934479,309.069275 
	C180.450699,303.049286 174.198593,297.299164 168.060486,291.429840 
	C166.391144,289.833618 164.698944,288.056366 163.710129,286.024933 
	C163.044693,284.657867 162.924347,282.054504 163.774307,281.166931 
	C164.833649,280.060730 167.370361,279.416016 168.863052,279.879608 
	C171.833557,280.802185 174.626938,282.453400 177.318771,284.090759 
	C207.989822,302.747040 239.931992,318.770935 274.352753,329.243134 
	C321.188019,343.492340 368.832794,347.426666 417.491272,340.370178 
	C462.344055,333.865570 503.171906,316.737488 542.653809,295.555054 
	C546.022522,293.747681 549.398071,291.945282 552.687378,290.000092 
	C556.160767,287.946014 559.367615,287.910889 562.077881,291.105804 
	C564.931763,294.470093 563.865051,297.388367 560.924072,300.237823 
	C535.120483,325.238617 506.460510,345.958191 473.202209,360.105408 
	C435.845062,375.996216 397.063324,383.846710 356.442780,381.684601 
	C322.324982,379.868622 289.840942,371.550110 258.873352,356.996552 
	C232.579666,344.639557 209.000610,328.344086 186.934479,309.069275 
z"/>
<path fill="#071E2C" opacity="1.000000" stroke="none" 
	d="
M310.408630,198.215622 
	C310.410095,204.669632 310.410095,210.649368 310.410095,216.869949 
	C309.282074,217.026352 308.344452,217.269592 307.406677,217.270187 
	C246.414291,217.308563 185.421921,217.343689 124.429543,217.327896 
	C116.451744,217.325821 110.060455,211.165359 110.038452,203.758423 
	C110.014656,195.747452 115.800873,190.435455 124.861458,190.432724 
	C174.188980,190.417877 223.516495,190.459320 272.844025,190.478958 
	C285.144562,190.483841 297.445068,190.479675 310.407166,190.479675 
	C310.407166,193.188950 310.407166,195.465149 310.408630,198.215622 
z"/>
<path fill="#061F2F" opacity="1.000000" stroke="none" 
	d="
M233.999908,173.181290 
	C213.003128,173.180481 192.506363,173.195267 172.009613,173.173477 
	C163.143829,173.164047 157.037552,167.770157 157.027542,160.030502 
	C157.017288,152.109299 163.326889,146.404861 172.255371,146.390564 
	C216.748199,146.319305 261.241058,146.274582 305.733917,146.230713 
	C307.048676,146.229416 308.363525,146.341309 310.023499,146.415924 
	C310.023499,155.316330 310.023499,164.055084 310.023499,173.182037 
	C284.786652,173.182037 259.643280,173.182037 233.999908,173.181290 
z"/>
<path fill="#041D2D" opacity="1.000000" stroke="none" 
	d="
M176.346405,250.322540 
	C175.904175,239.957367 180.947784,234.113953 190.454559,234.092758 
	C229.744843,234.005188 269.035431,234.052231 308.325897,234.061569 
	C308.796844,234.061676 309.267731,234.217819 310.043213,234.355026 
	C310.043213,243.134018 310.043213,251.863800 310.043213,260.892944 
	C308.975891,260.993042 307.867157,261.187836 306.758392,261.187836 
	C268.134399,261.188202 229.510376,261.186188 190.886414,261.141632 
	C183.010208,261.132538 179.223648,258.318756 176.346405,250.322540 
z"/>
<path fill="#08202E" opacity="1.000000" stroke="none" 
	d="
M598.103271,297.123474 
	C592.425537,309.178619 586.913635,320.879822 581.215759,332.489685 
	C580.210693,334.537506 578.742126,336.648743 576.923828,337.931580 
	C574.746521,339.467621 571.963928,340.145752 569.443481,341.195496 
	C569.099609,338.599274 568.055176,335.855286 568.564880,333.439178 
	C569.484924,329.078705 571.585449,324.981598 572.744751,320.654419 
	C575.406189,310.719879 577.798889,300.713287 580.296082,290.734802 
	C580.376648,290.412720 580.421265,290.079651 580.458862,289.748993 
	C582.118713,275.162872 575.767822,267.334412 561.135376,268.249603 
	C545.076660,269.253998 529.107727,271.765961 513.118408,273.769653 
	C507.768616,274.440063 502.476166,275.567566 497.157501,276.486145 
	C496.909546,276.044250 496.661560,275.602356 496.413605,275.160461 
	C497.455566,273.884705 498.254852,272.225342 499.575409,271.389984 
	C523.694397,256.132751 549.337341,245.292877 578.444092,244.945618 
	C582.076294,244.902283 585.766479,245.358826 589.345520,246.032181 
	C600.372253,248.106735 604.891968,253.230881 603.750488,264.427673 
	C602.644836,275.273621 600.111938,285.974060 598.103271,297.123474 
z"/>
<path fill="#1D88DA" opacity="1.000000" stroke="none" 
	d="
M560.351501,199.984238 
	C549.268616,204.817657 538.210815,209.709732 527.092163,214.459488 
	C521.628540,216.793488 516.052307,218.863831 510.290985,221.147018 
	C509.994324,220.004120 509.699371,219.395599 509.698364,218.786575 
	C509.672821,203.671295 509.678314,188.555954 509.678314,172.031784 
	C526.888672,178.936951 543.565674,185.628098 560.567139,192.765686 
	C560.711609,195.469498 560.531555,197.726868 560.351501,199.984238 
z"/>
<path fill="#0D2536" opacity="1.000000" stroke="none" 
	d="
M478.678864,204.599762 
	C474.580170,201.495926 472.979736,197.392853 475.357422,193.497940 
	C477.011963,190.787628 480.538300,188.227524 483.624054,187.624420 
	C487.869781,186.794571 491.615082,189.828537 492.343079,194.072845 
	C492.831421,196.920013 491.945709,200.763901 490.212463,203.056152 
	C487.479279,206.670868 483.189972,207.071487 478.678864,204.599762 
z"/>
<path fill="#082331" opacity="1.000000" stroke="none" 
	d="
M560.578857,200.212448 
	C560.531555,197.726868 560.711609,195.469498 560.939697,192.854950 
	C565.912903,187.311676 570.851013,186.225983 574.038818,190.481918 
	C575.872742,192.930389 577.194214,197.238647 576.283142,199.850464 
	C575.379089,202.441986 571.639709,204.910004 568.681946,205.697540 
	C565.090210,206.653839 562.039734,204.314606 560.578857,200.212448 
z"/>
<path fill="#2D8CD9" opacity="1.000000" stroke="none" 
	d="
M454.023682,193.368530 
	C455.833527,197.000366 455.952515,200.316376 452.733307,202.493286 
	C451.249573,203.496643 448.222565,204.064651 447.027405,203.222809 
	C445.150208,201.900558 443.278229,199.256760 443.191010,197.100311 
	C443.113556,195.185745 445.096619,192.095825 446.847748,191.493011 
	C448.767273,190.832230 451.462921,192.426224 454.023682,193.368530 
z"/>
<path fill="#2F8DDA" opacity="1.000000" stroke="none" 
	d="
M590.900513,193.111603 
	C593.963806,189.497101 596.766663,190.167191 599.463562,193.024063 
	C602.139587,195.858765 602.354309,198.819626 599.687073,201.788361 
	C597.404968,204.328506 594.723083,205.162979 591.865295,202.875000 
	C588.505676,200.185287 587.907837,196.968643 590.900513,193.111603 
z"/>
<path fill="#F0F2F4" opacity="1.000000" stroke="none" 
	d="
M245.733017,40.188667 
	C247.162247,41.118782 248.285233,41.937099 249.004425,43.022865 
	C249.384247,43.596245 249.082474,44.636551 249.049377,45.464481 
	C248.997269,46.767982 248.912216,48.070164 248.824066,49.685165 
	C239.989624,49.685165 231.316620,49.685165 222.398651,49.685165 
	C222.398651,46.607750 222.398651,43.705505 222.398651,40.187988 
	C230.113861,40.187988 237.686432,40.187988 245.733017,40.188667 
z"/>
</svg>