<svg version="1.1" id="Layer_1" xmlns="http://www.w3.org/2000/svg" xmlns:xlink="http://www.w3.org/1999/xlink" x="0px" y="0px"
	 width="100%" viewBox="0 0 720 592" enable-background="new 0 0 720 592" xml:space="preserve">
<path fill="#000000" opacity="1.000000" stroke="none" 
	d="
M543.218506,77.391937 
	C543.254822,108.848091 543.375854,139.844284 543.207764,170.838913 
	C543.182434,175.503311 544.625305,176.797791 549.169800,176.768906 
	C576.664917,176.594162 604.161743,176.673111 631.657959,176.686859 
	C643.495972,176.692780 648.257385,184.211853 643.115662,194.896805 
	C628.312439,225.659195 613.446838,256.391602 598.626465,287.145721 
	C593.928467,296.894653 589.318970,306.686249 584.623535,316.436432 
	C582.208435,321.451477 577.614685,323.800323 573.389099,322.301056 
	C568.851929,320.691254 566.839233,316.004608 568.736877,310.310852 
	C575.526733,289.937927 582.462402,269.613617 589.360229,249.276764 
	C592.193909,240.922318 595.271362,232.644730 597.883850,224.222351 
	C602.144531,210.486237 594.690613,201.311737 580.421875,201.727753 
	C569.775085,202.038193 559.101807,201.668777 548.447144,201.362991 
	C544.509216,201.249969 542.934265,202.689972 543.260559,206.587952 
	C543.454468,208.904831 543.308960,211.251083 543.297241,213.584015 
	C543.262390,220.544266 541.410583,223.023102 535.029114,224.676056 
	C528.016846,226.492386 523.751831,224.957123 520.553711,219.264648 
	C503.424561,188.776047 477.061279,173.955383 442.425476,173.330536 
	C429.931274,173.105133 417.427399,173.404190 404.934052,173.156509 
	C400.349487,173.065643 398.863342,174.661438 398.903687,179.229660 
	C399.099548,201.391525 398.870056,223.557587 399.136627,245.718002 
	C399.200287,251.010468 397.407196,252.782974 392.209381,253.571182 
	C361.441498,258.236969 330.867645,257.422089 300.327667,251.663712 
	C294.442474,250.554047 288.530670,249.622162 282.723450,248.132446 
	C279.389862,247.277267 277.753143,245.364868 277.769135,241.713730 
	C277.851501,222.883469 277.845184,204.052078 277.709778,185.222244 
	C277.681458,181.285019 279.626648,180.317764 283.078156,179.620392 
	C320.512238,172.056793 355.246155,158.570358 384.332214,132.873398 
	C388.966980,128.778671 393.183105,124.318031 397.140533,119.568039 
	C400.352570,115.712746 401.954773,116.068573 403.371826,120.792938 
	C404.757080,125.411392 405.906769,130.100006 407.228699,134.738205 
	C407.818756,136.808472 408.458221,138.881424 409.299896,140.857468 
	C409.889709,142.242111 410.912140,143.609863 412.651733,143.386169 
	C414.585480,143.137527 415.222748,141.487213 415.620789,139.799835 
	C415.696686,139.478073 415.728973,139.139069 415.730713,138.807770 
	C415.798370,125.823959 416.303436,112.837646 415.022003,99.870544 
	C414.546692,95.060509 411.907196,93.126289 407.403503,93.234451 
	C405.754852,93.274040 404.039368,93.394180 402.481049,93.882103 
	C389.298157,98.009773 376.143494,102.227776 362.985413,106.434410 
	C362.355957,106.635635 361.728973,106.916573 361.178345,107.278320 
	C359.693848,108.253563 357.397675,108.943512 357.847412,111.128448 
	C358.348419,113.562538 360.762115,112.836159 362.472870,112.828629 
	C371.147980,112.790443 379.665375,111.117630 388.258118,110.214409 
	C388.918274,110.145020 389.566498,109.889267 390.223480,109.875656 
	C391.990723,109.839066 394.137848,109.069336 395.180908,111.116341 
	C396.258575,113.231171 394.396729,114.464111 393.107086,115.700935 
	C388.757355,119.872589 383.914948,123.427765 378.707520,126.419128 
	C345.598053,145.438568 310.037201,156.841156 271.998260,160.308472 
	C229.936920,164.142471 188.956314,159.832535 149.388306,144.214539 
	C132.159256,137.414032 132.022934,137.747757 132.068192,119.241066 
	C132.102386,105.254974 132.165985,91.268936 132.184479,77.282829 
	C132.192184,71.448021 134.949829,68.704887 141.298676,68.691269 
	C167.628281,68.634804 193.957993,68.631287 220.287674,68.631653 
	C324.273224,68.633087 428.258789,68.641319 532.244324,68.654114 
	C540.580139,68.655136 541.882568,69.663910 543.218506,77.391937 
z"/>
<path fill="#000000" opacity="1.000000" stroke="none" 
	d="
M196.097778,264.137115 
	C179.229767,273.021576 163.188248,282.510986 149.088867,294.927277 
	C141.687439,301.445190 134.566071,308.251343 130.930222,317.776855 
	C127.804436,325.966095 130.266891,332.938538 137.950348,337.222351 
	C143.844803,340.508728 150.243652,342.252258 156.985626,342.682251 
	C179.068375,344.090485 200.810608,341.531158 222.455765,337.350739 
	C257.462067,330.589813 291.778137,321.265350 325.631836,310.156860 
	C366.610565,296.710449 407.111084,281.965179 447.193481,266.032684 
	C487.731140,249.919189 528.081970,233.355011 568.390686,216.683517 
	C574.571350,214.127228 580.367310,215.402206 583.065857,219.904922 
	C585.684570,224.274414 584.223877,230.539612 578.980408,234.450180 
	C568.692322,242.122894 557.530884,248.483597 546.590332,255.162872 
	C513.732361,275.222900 480.044739,293.833069 445.435425,310.643188 
	C386.673645,339.184357 326.797485,365.144775 264.008667,383.683197 
	C229.829361,393.774689 195.162659,402.170258 159.664261,405.886017 
	C137.504761,408.205566 115.107254,408.884430 93.172302,403.146240 
	C77.980911,399.172089 64.972466,392.116455 60.688152,375.518250 
	C57.248672,362.193054 61.061958,349.757355 67.525536,338.143707 
	C76.827751,321.429565 91.200981,309.464722 106.321304,298.429108 
	C133.582794,278.532288 163.833054,264.359985 195.395401,252.791290 
	C209.791168,247.514755 224.536285,243.464905 239.464157,240.043671 
	C241.152924,239.656631 242.987869,238.665970 244.664536,240.669800 
	C244.487289,243.397476 242.106674,243.714371 240.213593,244.458572 
	C225.327103,250.310684 210.722244,256.791443 196.097778,264.137115 
z"/>
<path fill="#000000" opacity="1.000000" stroke="none" 
	d="
M211.319336,421.131287 
	C229.452179,417.131226 246.825134,411.965851 264.210999,406.798004 
	C301.947174,395.581177 338.385437,380.979187 374.375092,365.172150 
	C380.622772,362.428131 386.775757,359.468323 392.970612,356.604156 
	C394.460083,355.915588 395.841858,354.872742 397.719818,355.215271 
	C399.769226,357.036346 399.013580,359.515594 399.020325,361.744141 
	C399.139801,401.066132 398.895996,440.392242 399.387115,479.709229 
	C399.806000,513.241516 425.200745,538.560486 458.648041,539.772217 
	C466.017303,540.039185 467.704590,541.714722 467.860596,549.085938 
	C467.934631,552.583191 467.978088,556.086304 467.862183,559.581055 
	C467.717377,563.946350 465.521545,566.380920 460.967072,566.331909 
	C459.467651,566.315735 457.967896,566.328674 456.468292,566.328613 
	C377.322418,566.326904 298.176544,566.327271 219.030685,566.320740 
	C209.628647,566.319946 208.655243,565.346924 208.638641,556.118347 
	C208.633850,553.452393 208.618073,550.786377 208.629379,548.120483 
	C208.659073,541.120544 209.750702,540.125916 216.634552,539.713501 
	C234.346146,538.652161 249.588623,532.061890 261.656891,518.858643 
	C271.846130,507.711121 277.140167,494.289032 277.528381,479.375427 
	C278.057159,459.061462 277.676758,438.723755 277.669525,418.396210 
	C277.669281,417.753082 277.484863,417.110046 277.271973,415.721405 
	C271.068512,417.371063 265.015259,418.794250 259.075684,420.592834 
	C234.534698,428.024353 209.593033,433.848206 184.553543,439.270996 
	C178.870102,440.501831 173.085709,441.287903 167.328629,442.150909 
	C162.485413,442.876923 160.352219,440.227875 159.353668,432.039459 
	C176.395020,427.951141 193.920792,425.806091 211.319336,421.131287 
z"/>
<path fill="#000000" opacity="1.000000" stroke="none" 
	d="
M150.353973,230.418457 
	C147.228561,234.199219 141.449905,235.701370 137.158249,233.918747 
	C133.049622,232.212158 131.965698,228.765488 131.975143,224.574463 
	C132.032852,198.941101 131.991348,173.307495 132.006500,147.673996 
	C132.007462,146.047318 131.692902,144.324661 133.630646,141.957108 
	C155.348007,158.870239 179.903763,170.506256 206.550781,177.771729 
	C185.581482,184.382828 170.110703,197.209747 158.763550,215.248581 
	C155.757507,220.027374 153.255020,225.122910 150.353973,230.418457 
z"/>
<path fill="#000000" opacity="1.000000" stroke="none" 
	d="
M40.554417,417.277466 
	C50.264420,412.861328 59.156799,414.194550 65.688156,420.787750 
	C71.637711,426.793671 73.267197,435.643433 69.841949,443.347412 
	C66.069382,451.832550 58.245911,456.764038 49.288933,456.302856 
	C41.378036,455.895538 33.283485,449.606171 31.092884,442.164825 
	C28.146259,432.155334 31.149239,424.045258 40.554417,417.277466 
z"/>
<path fill="#000000" opacity="1.000000" stroke="none" 
	d="
M118.294418,453.057983 
	C110.096092,450.705780 105.700310,444.759583 106.958038,438.222260 
	C108.320183,431.142242 113.566376,426.644073 120.042877,427.003113 
	C126.369385,427.353882 131.768097,432.507324 132.281876,438.686127 
	C132.838654,445.382080 128.378464,451.382965 121.662827,452.889618 
	C120.706711,453.104126 119.688187,453.040497 118.294418,453.057983 
z"/>
</svg>