<svg version="1.1" id="Layer_1" xmlns="http://www.w3.org/2000/svg" xmlns:xlink="http://www.w3.org/1999/xlink" x="0px" y="0px"
	 width="100%" viewBox="0 0 794 594" enable-background="new 0 0 794 594" xml:space="preserve">
<path fill="#FEFEFE" opacity="1.000000" stroke="none" 
	d="
M494.000000,595.000000 
	C329.333344,595.000000 165.166672,595.000000 1.000000,595.000000 
	C1.000000,397.000000 1.000000,199.000000 1.000000,1.000000 
	C265.666656,1.000000 530.333313,1.000000 795.000000,1.000000 
	C795.000000,199.000000 795.000000,397.000000 795.000000,595.000000 
	C694.833313,595.000000 594.666687,595.000000 494.000000,595.000000 
M605.478210,99.827026 
	C605.659241,99.551262 605.840271,99.275497 606.513794,98.906456 
	C606.680481,98.630646 606.847168,98.354828 607.541321,97.923149 
	C607.742126,97.625671 607.942932,97.328201 608.772461,96.842751 
	C610.498474,95.154793 612.224487,93.466835 614.600647,91.683464 
	C616.651245,89.769440 618.701782,87.855408 621.491943,85.251091 
	C620.379150,84.611977 619.545654,84.321487 618.958862,83.768959 
	C599.445740,65.396255 579.967957,46.986118 560.452148,28.616329 
	C557.087341,25.449131 553.575928,22.437708 549.420593,19.716410 
	C549.302246,28.346113 549.142578,36.975510 549.078369,45.605618 
	C549.024780,52.814327 549.074280,52.813190 541.924805,52.831711 
	C518.638123,52.892025 495.351471,52.953541 471.115723,52.948952 
	C424.481781,52.923050 377.844421,53.192841 331.216400,52.654335 
	C320.158173,52.526623 311.353577,54.190613 303.830994,63.248253 
	C297.197479,71.235336 288.766754,77.729820 280.519897,85.202835 
	C275.358612,90.176796 270.197296,95.150764 264.481232,100.305603 
	C263.817657,100.993820 263.154053,101.682045 262.482758,102.483627 
	C262.482758,102.483627 262.369232,102.488823 261.835693,102.767685 
	C260.724915,103.905632 259.614105,105.043579 258.302643,106.314018 
	C258.302643,106.314018 258.134491,106.485901 257.591766,106.786102 
	C254.685486,109.421173 251.779190,112.056252 248.388748,115.130295 
	C254.245987,115.130295 259.121887,115.130295 264.908508,115.374290 
	C276.932465,115.291901 288.956390,115.209518 301.799622,115.361130 
	C303.208466,115.283371 304.617310,115.205612 306.928314,115.370277 
	C311.613342,115.286217 316.298401,115.202156 321.771240,115.354309 
	C322.855896,115.277176 323.940552,115.200050 325.792755,115.372108 
	C326.855042,115.288589 327.917297,115.205070 329.893951,115.359238 
	C339.271606,115.278984 348.649261,115.198723 358.884949,115.366089 
	C361.256470,115.283310 363.627991,115.200531 366.874054,115.357735 
	C369.582855,115.278557 372.291656,115.199387 375.776245,115.372612 
	C376.850433,115.290520 377.924591,115.208420 379.774445,115.371811 
	C380.845825,115.292145 381.917206,115.212486 383.461578,115.347610 
	C383.623566,115.286453 383.785553,115.225296 384.575989,115.729294 
	C384.735687,117.525818 385.034485,119.322296 385.034943,121.118866 
	C385.050201,179.753830 385.032349,238.388809 385.038116,297.023773 
	C385.038483,300.681366 385.190826,304.338959 385.071442,308.867767 
	C385.138885,311.244934 385.206360,313.622101 385.079010,316.903137 
	C385.143707,320.602295 385.208435,324.301483 385.072174,328.918365 
	C385.154114,345.925751 385.236053,362.933167 385.196808,380.439087 
	C385.560089,380.355316 385.923340,380.271515 386.908417,379.962219 
	C395.350586,371.668701 403.792755,363.375183 412.848907,354.854279 
	C415.627197,352.039154 418.405487,349.224030 421.822876,346.152100 
	C433.460999,334.975403 445.135498,323.835938 456.681549,312.564911 
	C457.849579,311.424683 458.889801,309.493469 458.896851,307.924438 
	C458.983612,288.621216 458.866760,269.317078 458.998077,249.132584 
	C458.965118,246.411301 458.932159,243.690002 459.080811,240.050461 
	C459.080811,198.818924 459.080811,157.587387 459.080811,116.094009 
	C489.308136,116.094009 518.985962,116.094009 549.207581,116.094009 
	C549.207581,118.250244 549.210938,120.036674 549.206970,121.823097 
	C549.187927,130.312531 549.105164,138.802856 549.225830,147.290268 
	C549.240723,148.335678 550.338074,149.365707 551.525940,150.016907 
	C558.714355,143.070099 565.902832,136.123276 573.726868,128.941269 
	C582.616516,120.666908 591.506165,112.392540 600.823242,103.988724 
	C600.823242,103.988724 601.024841,103.590179 601.530579,103.378342 
	C601.863525,102.947685 602.196472,102.517036 602.871338,102.072388 
	C602.871338,102.072388 603.015808,101.762108 603.543701,101.606529 
	C604.016479,101.064651 604.489319,100.522774 605.001282,100.001190 
	C605.001282,100.001190 604.986755,99.959473 605.478210,99.827026 
M98.854454,390.664124 
	C98.919945,391.108429 98.985428,391.552704 98.855835,392.881378 
	C98.927719,395.591614 98.999603,398.301880 98.881073,401.930420 
	C99.013046,408.296326 99.145020,414.662201 99.244911,421.436646 
	C99.244911,421.436646 99.562294,421.695038 99.562294,421.695038 
	C99.562294,421.695038 99.926018,421.507355 100.832428,421.780548 
	C105.890022,421.716614 110.947624,421.652679 116.914108,421.825439 
	C127.618423,421.862732 138.322739,421.900024 149.322327,422.715088 
	C149.391937,424.708984 149.521225,426.702820 149.522263,428.696747 
	C149.539658,462.337616 149.541107,495.978455 149.546051,529.619324 
	C149.546326,531.419800 149.546082,533.220337 149.546082,535.242920 
	C161.014771,535.242920 172.030838,535.242920 183.241806,535.242920 
	C183.241806,511.385620 183.261490,487.922729 183.232651,464.459930 
	C183.220184,454.311188 183.107544,444.162537 183.318283,433.261902 
	C183.472229,429.486115 183.626175,425.710327 184.691315,421.964111 
	C186.806091,421.895569 188.920853,421.826996 191.880630,421.971405 
	C193.904877,421.900116 195.929108,421.828857 198.822357,421.953705 
	C200.893173,421.888367 202.964005,421.823029 205.836334,421.970337 
	C207.208908,421.899200 208.581497,421.828094 210.711990,421.952789 
	C211.486267,421.887421 212.260544,421.822083 213.910233,421.969177 
	C216.608871,421.895660 219.307495,421.822144 222.848694,421.945404 
	C224.572845,421.881622 226.297012,421.817810 228.534866,421.907196 
	C228.666687,421.786530 228.798492,421.665894 229.456970,420.998596 
	C229.456970,410.411163 229.456970,399.823730 229.456970,389.134918 
	C223.641983,389.134918 218.328720,389.134918 212.349106,388.943054 
	C211.896225,389.008942 211.443344,389.074799 210.199829,389.027893 
	C209.137772,389.067200 208.075699,389.106506 206.169571,388.950073 
	C204.444427,389.020142 202.719284,389.090210 200.101410,389.049011 
	C197.405640,389.090485 194.709869,389.131958 191.128708,388.977966 
	C188.417801,389.053864 185.706879,389.129761 182.066055,389.090790 
	C175.710052,389.151215 169.354065,389.211670 162.154984,389.097504 
	C160.437363,389.151154 158.719742,389.204773 156.212570,389.084106 
	C155.141190,389.145752 154.069824,389.207367 152.091339,389.095734 
	C148.395523,389.156097 144.699722,389.216461 140.351883,389.106903 
	C139.905884,389.142334 139.459885,389.177734 138.121048,389.013641 
	C135.073532,389.071960 132.026001,389.130280 128.079758,389.074860 
	C125.058533,389.108734 122.037308,389.142609 118.109863,388.981140 
	C114.404182,389.042603 110.698494,389.104065 106.206718,389.047913 
	C105.149864,389.085663 104.093002,389.123413 102.270134,388.964294 
	C101.184067,389.310303 100.098007,389.656311 98.854454,390.664124 
M662.214478,390.856476 
	C662.297546,391.904694 662.380615,392.952881 662.219849,394.908112 
	C662.307129,401.610382 662.394409,408.312683 662.245911,415.907684 
	C662.328613,419.600098 662.411377,423.292542 662.254761,427.770294 
	C662.337585,428.852081 662.420471,429.933899 662.266296,431.913788 
	C662.107849,436.250244 661.949402,440.586700 660.884155,444.826599 
	C641.132690,444.826599 621.381226,444.826599 601.468933,444.826599 
	C601.261292,442.892761 601.105103,441.437836 601.222534,439.227112 
	C601.238464,423.734711 601.283447,408.242157 601.213989,392.750122 
	C601.208557,391.539032 600.403870,390.331543 599.048828,388.963837 
	C588.607117,388.963837 578.165466,388.963837 567.657227,388.963837 
	C567.657227,438.025360 567.657227,486.556702 567.657227,535.218933 
	C578.965332,535.218933 589.876038,535.218933 601.230225,535.218933 
	C601.230225,515.790222 601.230225,496.692200 601.230225,477.303528 
	C621.715454,477.303528 641.753113,477.303528 662.450073,477.303528 
	C662.450073,496.820587 662.450073,516.026184 662.450073,535.268188 
	C667.735229,535.268188 672.361694,535.268188 677.811157,535.549194 
	C679.532043,535.452942 681.252869,535.356689 683.850342,535.546997 
	C687.785767,535.546997 691.721130,535.546997 695.995544,535.546997 
	C695.995544,533.837463 695.995544,532.418762 696.201172,530.082214 
	C696.195557,495.685791 696.207214,461.289368 696.172913,426.892975 
	C696.163635,417.595215 696.014648,408.297546 696.141052,398.119324 
	C696.067688,395.410858 695.994324,392.702362 696.008179,389.433868 
	C695.677307,389.337128 695.346375,389.240387 694.092041,388.960236 
	C683.745300,389.048767 673.398560,389.137329 662.537903,389.206757 
	C662.491150,389.498566 662.444397,389.790375 662.214478,390.856476 
M367.782349,458.192230 
	C367.706604,456.792480 367.630829,455.392761 367.800934,453.160919 
	C367.153778,450.811859 370.170776,446.074921 363.336182,447.135193 
	C362.198425,447.201477 361.060669,447.267731 359.278168,447.141815 
	C358.839172,447.206696 358.400208,447.271576 357.479065,447.184296 
	C357.318481,447.235413 357.157898,447.286560 356.085388,447.138763 
	C351.694885,447.209106 347.304382,447.279449 342.046936,447.160217 
	C339.389984,447.226898 336.733063,447.293579 333.186523,447.158936 
	C326.788025,447.215851 320.389526,447.272766 313.074951,447.133057 
	C307.848846,447.133057 302.622742,447.133057 297.448273,447.133057 
	C297.448273,438.032074 297.448273,429.637756 298.317139,421.391663 
	C321.211823,421.289764 344.106537,421.187866 367.836609,421.302612 
	C368.223572,419.868408 368.610535,418.434204 369.208130,416.083221 
	C369.141357,408.723053 369.074554,401.362854 369.219269,393.150299 
	C369.219269,391.886047 369.219269,390.621826 369.219269,389.191254 
	C367.528534,389.191254 366.262268,389.191254 364.146393,389.020294 
	C362.418091,389.082031 360.689758,389.143799 358.043182,389.033630 
	C326.450256,389.033630 294.857361,389.033630 262.960358,389.033630 
	C262.960358,395.666595 262.951965,401.803589 262.961731,407.940582 
	C263.029114,450.260345 263.100342,492.580078 263.188080,535.459717 
	C263.513336,535.485962 263.838593,535.512207 265.077881,535.580750 
	C276.570129,535.607178 288.062653,535.691040 299.554596,535.644470 
	C312.031158,535.593933 324.507202,535.421997 337.882721,535.587158 
	C346.581696,535.488525 355.280640,535.389893 364.786987,535.576172 
	C366.179413,535.506653 367.571838,535.437073 368.961792,535.367676 
	C368.961792,532.562378 368.961792,530.281189 369.157776,527.081909 
	C369.094299,521.387939 369.030823,515.693909 369.165070,509.132355 
	C368.815399,507.188293 370.588440,503.667847 365.092163,504.617554 
	C342.849792,504.688354 320.607391,504.759155 297.832123,504.172363 
	C297.575439,502.585754 297.118805,501.001923 297.096436,499.412018 
	C296.996124,492.270752 297.019226,485.127747 297.380554,477.649170 
	C297.655457,477.450073 297.930359,477.250977 299.009674,477.264160 
	C301.523254,477.184509 304.036835,477.104889 307.227814,477.271637 
	C327.252441,477.271637 347.277100,477.271637 367.544434,477.271637 
	C367.544434,470.846405 367.544434,464.925507 367.782349,458.192230 
M224.082413,187.846100 
	C220.056580,187.900574 216.030762,187.955048 211.114258,187.807770 
	C208.075302,187.872528 205.036346,187.937271 201.500214,187.833649 
	C201.334610,187.890152 201.169022,187.946640 200.085678,187.794693 
	C171.759827,187.790649 143.433914,187.758850 115.108139,187.801346 
	C107.682190,187.812485 103.100365,193.541672 104.882217,200.332535 
	C106.132698,205.098282 110.488205,207.887497 116.950584,207.888535 
	C199.596085,207.901703 282.241577,207.898163 364.887085,207.882629 
	C366.162964,207.882401 367.438812,207.676880 369.011658,207.541641 
	C369.011658,201.445480 369.073303,195.637680 368.923401,189.835327 
	C368.907104,189.203674 367.670227,188.603561 366.079285,187.797516 
	C335.507324,187.823349 304.935364,187.836044 274.363434,187.880890 
	C260.246216,187.901596 246.129044,187.985229 231.149323,187.852264 
	C229.096558,187.912811 227.043777,187.973373 224.082413,187.846100 
M497.434235,388.508209 
	C494.948639,388.070221 492.463013,387.632233 489.523407,386.915588 
	C489.350067,386.954163 489.176727,386.992737 488.211914,386.733612 
	C474.018372,384.902191 460.134766,385.537872 446.447357,391.896545 
	C446.308441,392.003113 446.169525,392.109680 445.308807,392.261536 
	C444.486389,392.740906 443.664001,393.220276 442.542419,393.560486 
	C442.296936,393.623627 442.159851,393.781189 441.421509,394.078003 
	C429.470673,400.971161 419.042328,409.504089 411.324158,421.840332 
	C411.195740,422.221191 411.067291,422.602020 410.363464,423.351257 
	C409.052368,425.972687 407.741241,428.594116 405.910065,431.737335 
	C404.627960,435.825104 403.345856,439.912842 401.649750,444.618286 
	C401.451752,446.080627 401.253754,447.542969 400.786041,449.461639 
	C400.829865,449.632843 400.873688,449.804016 400.524414,450.701721 
	C396.761444,479.344421 406.414215,502.816467 428.456207,521.060242 
	C440.766907,531.249634 454.985565,537.432556 472.050446,538.025696 
	C495.612396,539.644470 515.509705,531.716553 532.702087,514.961243 
	C530.225403,512.669678 528.076233,510.681152 525.573059,508.068054 
	C521.090027,503.889252 516.440735,499.871277 512.185913,495.471771 
	C509.602783,492.800781 508.040741,492.554504 504.874268,495.071503 
	C492.134033,505.198639 478.142883,509.881073 462.125336,502.968567 
	C439.246704,493.095184 430.445251,473.974762 434.583862,450.813660 
	C436.395691,440.674103 443.159058,432.334564 452.777863,426.295563 
	C453.292206,425.902496 453.806549,425.509430 455.007812,425.020172 
	C475.244415,414.110992 493.046661,419.289398 507.981628,432.430817 
	C516.273621,424.617920 524.202026,417.147614 532.269714,409.546051 
	C523.071106,400.665527 512.945007,393.380737 500.015747,389.328613 
	C499.345459,389.213806 498.675201,389.098999 497.434235,388.508209 
M484.612488,318.421936 
	C484.612488,321.651703 484.612488,324.881470 484.612488,328.742950 
	C485.824646,327.792328 486.504456,327.352814 487.073578,326.799469 
	C520.543274,294.258575 538.253235,255.273422 535.779114,207.976639 
	C534.652649,186.442719 530.101135,165.833496 519.700562,146.770203 
	C518.935547,145.368027 517.294434,143.507828 516.014832,143.471451 
	C506.292328,143.194992 496.558411,143.320129 486.116638,143.320129 
	C489.297150,148.205521 492.414276,152.130325 494.618317,156.514175 
	C513.998962,195.062408 514.377380,233.744888 495.007660,272.458282 
	C483.609009,285.245697 483.566071,300.716766 484.609039,316.445557 
	C484.631012,316.777161 484.612091,317.111420 484.612488,318.421936 
M290.500000,279.126373 
	C316.563629,279.126373 342.627258,279.126373 368.658203,279.126373 
	C368.658203,271.704346 368.658203,264.962708 368.658203,258.044342 
	C367.222137,257.964630 366.085205,257.846283 364.948242,257.846283 
	C303.351257,257.845947 241.754288,257.855377 180.157303,257.866516 
	C179.325485,257.866669 178.486710,257.839447 177.662979,257.931061 
	C172.943481,258.455933 168.876450,261.922455 168.025223,266.106293 
	C167.080872,270.747864 169.253571,275.579712 173.915985,277.616180 
	C176.394516,278.698761 179.369110,279.034607 182.121597,279.042114 
	C217.914215,279.139832 253.707138,279.118073 290.500000,279.126373 
M259.500000,152.136780 
	C245.350128,152.147415 231.200150,152.128067 217.050430,152.181244 
	C209.877289,152.208191 205.370590,156.265411 205.517014,162.399841 
	C205.663940,168.555801 210.412338,172.740997 217.193848,172.731415 
	C265.801056,172.662720 314.408234,172.600601 363.015442,172.536850 
	C364.931793,172.534348 366.848114,172.536530 368.629791,172.536530 
	C368.629791,165.360138 368.629791,158.945297 368.629791,152.136795 
	C332.348389,152.136795 296.424194,152.136795 259.500000,152.136780 
M298.499969,345.825256 
	C321.884308,345.825256 345.268646,345.825256 368.648682,345.825256 
	C368.648682,340.279083 368.648682,335.668274 368.648682,330.708069 
	C366.953949,330.597656 365.499878,330.419861 364.045837,330.420258 
	C321.075287,330.432007 278.104706,330.460358 235.134155,330.493958 
	C233.969742,330.494873 232.526825,330.161316 231.694183,330.711182 
	C229.365982,332.248688 225.887665,333.897095 225.479309,336.007812 
	C224.997711,338.497223 226.703720,341.989685 228.530838,344.137268 
	C229.702652,345.514587 232.803146,345.643219 235.043579,345.658173 
	C255.861801,345.797424 276.681000,345.790314 298.499969,345.825256 
M368.730164,225.049057 
	C367.293579,224.816483 365.857025,224.381134 364.420410,224.380997 
	C328.148468,224.377640 291.876526,224.419342 255.604599,224.457504 
	C254.607147,224.458557 253.579590,224.361237 252.617599,224.559631 
	C248.548370,225.398804 246.143036,227.878265 245.938171,232.086639 
	C245.738403,236.190445 248.153793,238.620789 251.798294,239.738510 
	C253.495697,240.259109 255.420898,240.134613 257.243011,240.136490 
	C292.683075,240.172989 328.123169,240.184952 363.563232,240.201782 
	C365.298340,240.202606 367.033478,240.201889 368.962311,240.201889 
	C368.962311,234.899994 368.962311,230.421814 368.730164,225.049057 
M298.205200,309.498413 
	C301.828094,302.264160 298.989471,295.173492 291.700226,294.979187 
	C275.887512,294.557770 260.049316,294.628998 244.233688,295.006317 
	C237.855743,295.158508 233.990784,301.726807 236.407974,307.204590 
	C238.450531,311.833374 242.236435,313.644806 247.265259,313.597992 
	C261.259369,313.467590 275.259888,313.703949 289.246338,313.345612 
	C292.098328,313.272522 294.899963,311.234161 298.205200,309.498413 
M311.500000,137.897995 
	C318.657928,137.898514 325.815948,137.916443 332.973785,137.891708 
	C336.196991,137.880569 340.193329,137.846939 340.230957,133.753464 
	C340.269165,129.595184 336.286713,129.597458 333.043823,129.590988 
	C332.877350,129.590652 332.710907,129.590439 332.544434,129.590393 
	C298.086731,129.580185 263.629059,129.567200 229.171356,129.570389 
	C227.847321,129.570511 226.205505,129.267456 225.272369,129.914322 
	C223.805405,130.931290 221.873627,132.655319 221.900833,134.045456 
	C221.925812,135.322708 224.115570,136.850464 225.663010,137.701920 
	C226.691849,138.268021 228.268082,137.852982 229.599319,137.853790 
	C256.566193,137.869904 283.533081,137.882614 311.500000,137.897995 
M330.566833,294.779053 
	C323.216370,295.032776 319.030518,298.282745 319.034302,303.733185 
	C319.038330,309.562744 323.901215,313.557281 330.990112,313.555634 
	C339.650879,313.553619 348.311646,313.552490 356.972412,313.551331 
	C360.890747,313.550812 364.809052,313.551208 368.683533,313.551208 
	C368.683533,306.862732 368.683533,300.950989 368.683533,294.778503 
	C356.083069,294.778503 343.775726,294.778503 330.566833,294.779053 
M172.072006,239.006577 
	C175.035599,236.688873 177.179626,233.598602 175.547546,230.026840 
	C174.530090,227.800156 171.807999,225.098679 169.629486,224.886765 
	C162.560837,224.199249 155.371597,224.238129 148.265671,224.643631 
	C144.127960,224.879730 141.900970,227.979218 141.806992,232.185318 
	C141.717361,236.196198 143.874527,239.530487 147.606003,239.735870 
	C155.489517,240.169800 163.429260,239.582092 172.072006,239.006577 
M224.351013,237.856308 
	C226.698318,235.138107 228.306488,231.732605 225.775940,228.899033 
	C223.822250,226.711380 220.462387,225.045929 217.521439,224.638885 
	C212.639496,223.963211 207.585098,224.330505 202.616089,224.548737 
	C198.349014,224.736130 195.457535,227.856415 195.326859,231.893143 
	C195.189209,236.144348 198.054764,239.802917 202.373184,240.060669 
	C207.830139,240.386383 213.323547,240.329620 218.790100,240.131119 
	C220.484375,240.069595 222.142365,239.008667 224.351013,237.856308 
M177.028732,152.328674 
	C175.873123,152.365585 174.693726,152.265915 173.565903,152.462341 
	C167.784286,153.469299 164.403305,157.732544 164.892273,163.288147 
	C165.378799,168.815948 169.532867,172.408447 175.379105,172.357346 
	C180.349884,172.313873 184.184647,169.355148 185.156662,164.813400 
	C186.366272,159.161423 184.011200,155.235519 177.028732,152.328674 
M208.411987,313.369263 
	C214.130463,309.746155 215.933868,305.774017 213.992920,301.076843 
	C212.116272,296.535309 206.822052,293.994781 201.520782,295.091858 
	C196.467453,296.137634 193.307755,300.109009 193.569427,305.085846 
	C193.900818,311.388672 199.547089,314.834686 208.411987,313.369263 
z"/>
<path fill="#0C2D4B" opacity="1.000000" stroke="none" 
	d="
M600.948853,439.982941 
	C601.105103,441.437836 601.261292,442.892761 601.468933,444.826599 
	C621.381226,444.826599 641.132690,444.826599 661.700928,444.937805 
	C662.947693,445.652557 663.793030,446.749451 663.747192,446.788025 
	C662.358704,447.957214 660.882385,449.022186 659.419678,450.103333 
	C663.955566,456.761383 663.173096,458.951080 656.091370,460.076050 
	C654.698975,460.297272 652.924255,461.191315 652.308655,462.313934 
	C651.748169,463.335999 652.522888,465.090332 652.709106,466.521881 
	C654.213867,466.179413 655.836487,466.090393 657.204895,465.454498 
	C668.324158,460.287628 674.999939,464.277069 675.000000,476.177612 
	C675.000000,477.009155 675.083374,477.850616 674.985840,478.670563 
	C674.504883,482.713440 673.307678,486.805664 673.634888,490.775665 
	C674.034119,495.618530 675.699951,500.356934 676.810242,505.107452 
	C670.698425,507.509918 668.683960,517.828613 673.424133,521.643555 
	C678.926453,526.071655 678.926392,526.071716 674.490173,531.235352 
	C675.337280,532.603027 676.162659,533.935608 676.988098,535.268188 
	C672.361694,535.268188 667.735229,535.268188 662.450073,535.268188 
	C662.450073,516.026184 662.450073,496.820587 662.450073,477.303528 
	C641.753113,477.303528 621.715454,477.303528 601.230225,477.303528 
	C601.230225,496.692200 601.230225,515.790222 601.230225,535.218933 
	C589.876038,535.218933 578.965332,535.218933 567.657227,535.218933 
	C567.657227,486.556702 567.657227,438.025360 567.657227,388.963837 
	C578.165466,388.963837 588.607117,388.963837 599.526672,389.503540 
	C600.014465,404.958252 599.994751,419.873413 600.074463,434.788025 
	C600.083740,436.521179 600.643982,438.251373 600.948853,439.982941 
z"/>
<path fill="#092C4B" opacity="1.000000" stroke="none" 
	d="
M452.132568,426.452209 
	C443.159058,432.334564 436.395691,440.674103 434.583862,450.813660 
	C430.445251,473.974762 439.246704,493.095184 462.125336,502.968567 
	C478.142883,509.881073 492.134033,505.198639 504.874268,495.071503 
	C508.040741,492.554504 509.602783,492.800781 512.185913,495.471771 
	C516.440735,499.871277 521.090027,503.889252 525.320190,508.446442 
	C521.725464,506.944855 518.214661,505.305634 515.091187,503.114410 
	C512.197083,501.084167 509.931305,495.817383 506.554688,502.584503 
	C506.256989,503.181244 505.163971,503.590637 504.385071,503.702667 
	C500.391571,504.276947 498.255646,506.422791 498.642883,511.055725 
	C495.995331,510.762848 493.804016,510.520416 491.693268,510.286896 
	C489.852875,515.779419 482.943420,520.892822 479.870514,518.568176 
	C474.909058,514.814941 471.679047,515.286255 468.414551,520.961121 
	C467.814117,518.433960 468.056885,516.220825 467.727570,514.096436 
	C467.513031,512.712158 466.725616,510.677795 465.725983,510.345551 
	C464.538788,509.951050 462.200165,510.623230 461.509186,511.625275 
	C459.999603,513.814392 459.216492,516.504456 458.538940,518.063965 
	C461.962097,521.593628 464.972137,524.697388 468.885223,528.732300 
	C465.292603,529.555298 462.783783,530.130066 460.274963,530.704773 
	C460.125610,531.215027 459.976288,531.725281 459.826965,532.235474 
	C461.476868,532.823486 463.093201,533.758118 464.784210,533.921997 
	C467.661469,534.200806 470.614197,533.945496 471.308807,537.770813 
	C454.985565,537.432556 440.766907,531.249634 428.456207,521.060242 
	C406.414215,502.816467 396.761444,479.344421 400.898956,450.272766 
	C401.353271,449.747528 401.519653,449.598145 401.498566,449.563751 
	C401.375336,449.362671 401.208130,449.188538 401.055786,449.005310 
	C401.253754,447.542969 401.451752,446.080627 402.296448,444.309631 
	C405.168427,444.000977 407.393707,444.000977 410.964508,444.000977 
	C409.179993,438.969299 407.805054,435.092438 406.430115,431.215546 
	C407.741241,428.594116 409.052368,425.972687 410.905212,423.000000 
	C411.583374,422.275452 411.719757,421.902191 411.856140,421.528900 
	C419.042328,409.504089 429.470673,400.971161 441.904419,394.021606 
	C442.555450,393.905334 442.706879,393.816803 442.841583,393.699646 
	C443.664001,393.220276 444.486389,392.740906 445.792236,392.370544 
	C446.507874,392.291138 446.740082,392.102722 446.972290,391.914307 
	C460.134766,385.537872 474.018372,384.902191 488.680237,387.044830 
	C489.424835,387.302124 489.701111,387.248199 489.977417,387.194244 
	C492.463013,387.632233 494.948639,388.070221 497.940247,389.015442 
	C499.118988,389.633331 499.791718,389.743927 500.464447,389.854553 
	C512.945007,393.380737 523.071106,400.665527 532.269714,409.546051 
	C524.202026,417.147614 516.273621,424.617920 507.981628,432.430817 
	C493.046661,419.289398 475.244415,414.110992 454.301453,425.066864 
	C453.107544,425.559753 452.620056,426.005981 452.132568,426.452209 
M425.477783,414.002655 
	C424.266205,414.660889 423.054626,415.319092 421.667419,416.072754 
	C425.858368,420.175201 435.719330,421.414154 439.627472,418.482178 
	C441.924011,416.759247 440.946930,415.391418 438.764587,413.957977 
	C437.190948,412.924377 436.190796,410.987183 435.010071,409.397156 
	C434.293091,408.431610 433.719299,407.359802 433.081177,406.335724 
	C431.776855,407.217163 430.241852,407.893219 429.227386,409.032684 
	C427.993317,410.418945 427.197662,412.195496 425.477783,414.002655 
M452.471375,407.009827 
	C451.743561,408.095642 451.015717,409.181427 450.287872,410.267212 
	C451.385986,410.841187 452.438080,411.786499 453.589630,411.929108 
	C461.245026,412.877289 463.339539,410.689667 461.880585,403.137909 
	C461.660217,401.997284 460.281219,400.395966 459.291809,400.282318 
	C458.316589,400.170349 456.982300,401.525482 456.118958,402.511322 
	C454.989777,403.800781 454.168427,405.359802 452.471375,407.009827 
M501.257904,397.939331 
	C501.576477,396.812286 502.449524,395.405029 502.060608,394.635529 
	C501.656433,393.835785 500.037140,393.342896 498.939636,393.325653 
	C498.359344,393.316559 497.758698,394.604797 497.167175,395.307343 
	C498.274780,396.198120 499.382385,397.088898 501.257904,397.939331 
z"/>
<path fill="#092B49" opacity="1.000000" stroke="none" 
	d="
M207.013641,389.145813 
	C208.075699,389.106506 209.137772,389.067200 210.756668,389.276611 
	C211.880829,389.395233 212.448135,389.265076 213.015457,389.134918 
	C218.328720,389.134918 223.641983,389.134918 229.456970,389.134918 
	C229.456970,399.823730 229.456970,410.411163 229.081940,421.169189 
	C228.370712,421.274139 228.142120,421.412201 228.021164,421.754028 
	C226.297012,421.817810 224.572845,421.881622 222.348450,421.505676 
	C218.910416,421.296204 215.972610,421.526459 213.034821,421.756714 
	C212.260544,421.822083 211.486267,421.887421 210.084930,421.631287 
	C207.983521,421.459076 206.509171,421.608368 205.034821,421.757690 
	C202.964005,421.823029 200.893173,421.888367 198.107483,421.622803 
	C195.273605,421.447418 193.154617,421.602936 191.035629,421.758453 
	C188.920853,421.826996 186.806091,421.895569 183.862396,422.070557 
	C183.035797,426.122650 183.038101,430.068237 183.040405,434.013855 
	C183.107544,444.162537 183.220184,454.311188 183.232651,464.459930 
	C183.261490,487.922729 183.241806,511.385620 183.241806,535.242920 
	C172.030838,535.242920 161.014771,535.242920 149.546082,535.242920 
	C149.546082,533.220337 149.546326,531.419800 149.546051,529.619324 
	C149.541107,495.978455 149.539658,462.337616 149.522263,428.696747 
	C149.521225,426.702820 149.391937,424.708984 149.325500,421.987549 
	C149.877533,419.524811 150.310410,417.740936 151.011398,416.069519 
	C151.586288,414.698669 152.480133,413.461609 153.232620,412.165253 
	C154.417374,413.365601 155.666351,414.510193 156.769257,415.781555 
	C157.926300,417.115326 158.669647,419.323242 160.072189,419.833099 
	C164.453094,421.425629 165.346313,423.055450 162.535446,426.851349 
	C160.929276,429.020386 160.409851,430.544067 163.111603,432.047638 
	C165.702744,433.489594 167.979218,433.352905 169.520187,430.641052 
	C171.458557,427.229828 169.463364,421.825500 166.011169,419.692963 
	C164.995956,419.065857 164.153900,417.373962 164.085907,416.123688 
	C163.599609,407.179901 163.333878,398.224091 162.998047,389.272125 
	C169.354065,389.211670 175.710052,389.151215 182.836212,389.388763 
	C186.408951,389.515625 189.211517,389.344513 192.014099,389.173401 
	C194.709869,389.131958 197.405640,389.090485 200.819946,389.336609 
	C203.363541,389.464752 205.188599,389.305267 207.013641,389.145813 
M172.639694,419.908569 
	C175.904602,420.339783 177.467484,418.739563 176.847290,415.674072 
	C176.637497,414.636963 174.854706,413.918060 173.790756,413.053741 
	C172.899689,414.842682 171.965561,416.612793 171.167099,418.442169 
	C171.055969,418.696777 171.613022,419.243073 172.639694,419.908569 
z"/>
<path fill="#0A2B48" opacity="1.000000" stroke="none" 
	d="
M336.983490,535.302979 
	C324.507202,535.421997 312.031158,535.593933 299.554596,535.644470 
	C288.062653,535.691040 276.570129,535.607178 264.528748,535.365967 
	C263.734802,534.987061 263.465057,534.903320 263.170349,534.899841 
	C263.100342,492.580078 263.029114,450.260345 262.961731,407.940582 
	C262.951965,401.803589 262.960358,395.666595 262.960358,389.033630 
	C294.857361,389.033630 326.450256,389.033630 358.178467,389.371155 
	C355.836792,389.806183 353.358917,389.884979 350.883087,390.005829 
	C347.589386,390.166656 344.294220,390.316833 341.005280,390.550446 
	C336.462982,390.873077 331.924347,391.251160 327.387085,391.639740 
	C323.853302,391.942383 320.259857,391.990814 316.810242,392.712769 
	C313.162048,393.476288 309.625641,394.827698 306.100250,396.089478 
	C305.129333,396.437012 304.019592,397.204407 303.577454,398.083038 
	C301.559357,402.093414 299.756226,406.211914 297.588989,410.913971 
	C298.977203,412.803833 300.881226,415.395966 303.268677,418.646210 
	C300.969177,418.818115 299.382233,418.832916 297.857300,419.147980 
	C297.588135,419.203583 297.578033,420.513031 297.448273,421.243439 
	C297.448273,429.637756 297.448273,438.032074 297.448273,447.133057 
	C302.622742,447.133057 307.848846,447.133057 313.514465,447.606140 
	C313.650208,448.627289 313.451904,449.547913 313.027069,449.668243 
	C305.349792,451.842072 297.549835,453.826050 300.809601,464.836182 
	C300.964539,465.359436 300.386169,466.068359 300.257080,466.712433 
	C299.595734,470.011658 299.542328,472.880981 303.809692,473.966858 
	C304.911346,474.247162 305.646759,475.966797 306.550415,477.025238 
	C304.036835,477.104889 301.523254,477.184509 298.346069,477.225342 
	C297.454285,477.452789 297.226074,477.719086 296.997864,477.985413 
	C297.019226,485.127747 296.996124,492.270752 297.096436,499.412018 
	C297.118805,501.001923 297.575439,502.585754 297.698914,504.549866 
	C293.867676,507.191132 290.267517,509.638489 286.448181,511.674774 
	C281.000641,514.579224 282.733032,519.639648 283.436493,523.597656 
	C283.803955,525.665161 287.482300,528.110168 290.026276,528.634949 
	C296.418762,529.953796 303.001099,530.608704 309.536102,530.914246 
	C317.322205,531.278259 325.143585,531.167908 332.939056,530.924072 
	C336.423615,530.815125 337.390350,532.220825 336.983490,535.302979 
z"/>
<path fill="#0B2F4F" opacity="1.000000" stroke="none" 
	d="
M366.999512,187.988815 
	C367.670227,188.603561 368.907104,189.203674 368.923401,189.835327 
	C369.073303,195.637680 369.011658,201.445480 369.011658,207.541641 
	C367.438812,207.676880 366.162964,207.882401 364.887085,207.882629 
	C282.241577,207.898163 199.596085,207.901703 116.950584,207.888535 
	C110.488205,207.887497 106.132698,205.098282 104.882217,200.332535 
	C103.100365,193.541672 107.682190,187.812485 115.108139,187.801346 
	C143.433914,187.758850 171.759827,187.790649 200.633179,188.065292 
	C201.452911,188.224594 201.725159,188.113312 201.997391,188.002014 
	C205.036346,187.937271 208.075302,187.872528 211.848999,188.202026 
	C216.719498,188.408813 220.855255,188.221359 224.991013,188.033905 
	C227.043777,187.973373 229.096558,187.912811 231.878967,188.236237 
	C233.586823,188.747787 234.564987,188.986496 235.543243,188.986923 
	C277.972473,189.005920 320.401733,189.013443 362.830902,188.961517 
	C364.220856,188.959824 365.609985,188.327286 366.999512,187.988815 
z"/>
<path fill="#0B2F4E" opacity="1.000000" stroke="none" 
	d="
M484.612366,317.933197 
	C484.612091,317.111420 484.631012,316.777161 484.609039,316.445557 
	C483.566071,300.716766 483.609009,285.245697 495.007660,272.458282 
	C514.377380,233.744888 513.998962,195.062408 494.618317,156.514175 
	C492.414276,152.130325 489.297150,148.205521 486.116638,143.320129 
	C496.558411,143.320129 506.292328,143.194992 516.014832,143.471451 
	C517.294434,143.507828 518.935547,145.368027 519.700562,146.770203 
	C530.101135,165.833496 534.652649,186.442719 535.779114,207.976639 
	C538.253235,255.273422 520.543274,294.258575 487.073578,326.799469 
	C486.504456,327.352814 485.824646,327.792328 484.612488,328.742950 
	C484.612488,324.881470 484.612488,321.651703 484.612366,317.933197 
z"/>
<path fill="#082B4A" opacity="1.000000" stroke="none" 
	d="
M385.272461,307.996521 
	C385.190826,304.338959 385.038483,300.681366 385.038116,297.023773 
	C385.032349,238.388809 385.050201,179.753830 385.034943,121.118866 
	C385.034485,119.322296 384.735687,117.525818 384.194031,115.257431 
	C383.537567,114.901321 383.263092,115.017075 382.988586,115.132828 
	C381.917206,115.212486 380.845825,115.292145 379.392517,114.862396 
	C381.485260,112.902351 383.878937,111.278076 386.466858,110.069984 
	C387.888123,109.406494 389.944275,109.909592 391.186707,109.088509 
	C398.009125,104.579781 404.691132,99.856361 411.372101,95.136917 
	C413.891632,93.357109 415.434723,93.917671 415.914978,96.880104 
	C416.178253,98.504112 415.472443,100.445335 416.118256,101.811005 
	C417.182098,104.060860 418.987946,105.959831 420.550354,108.465698 
	C420.507263,112.935120 420.394867,116.945549 419.909912,120.970413 
	C418.723297,120.999451 417.639740,120.687874 417.148682,121.093513 
	C415.961639,122.074150 415.051086,123.389503 414.029053,124.569916 
	C415.138855,125.378929 416.162933,126.378555 417.388611,126.930023 
	C418.207001,127.298241 419.312378,127.028587 420.434814,127.486023 
	C420.647858,136.569397 420.715393,145.211136 420.622070,154.010834 
	C420.322021,154.436951 420.189362,154.708282 419.827850,155.127258 
	C419.744568,155.852798 419.896637,156.433868 420.080231,157.247986 
	C420.111725,157.481064 420.023071,157.943008 420.015564,158.214813 
	C420.012207,158.667831 420.016357,158.849045 420.008179,159.020844 
	C419.995819,159.011444 420.025085,159.010132 419.782288,159.151276 
	C419.390625,159.628586 419.241760,159.964737 419.152618,160.440247 
	C419.212341,160.579605 419.295929,160.871094 418.985107,161.081421 
	C418.685120,162.376404 418.483307,163.516098 418.747101,164.535263 
	C419.513611,167.497086 417.597473,169.246063 415.467285,168.783951 
	C408.111725,167.188293 408.986755,171.994705 409.001068,176.335007 
	C409.011902,179.625870 409.792755,183.471375 406.044983,185.115936 
	C403.832703,186.086716 401.027374,185.706131 398.332184,185.947296 
	C395.945831,190.848328 397.022308,196.061569 401.199615,199.882889 
	C401.928833,200.549942 402.292145,201.765121 402.525848,202.794907 
	C403.015808,204.953522 403.458374,207.144928 403.636780,209.345871 
	C403.810059,211.483444 403.936768,213.707535 403.545593,215.792664 
	C402.337036,222.235474 403.695190,228.725143 403.067719,235.243393 
	C402.761261,238.427200 403.911194,240.634918 400.285950,242.577621 
	C396.385010,244.668030 395.923096,248.313004 398.491394,250.698151 
	C404.808228,256.564545 405.949951,263.052765 402.060883,270.481567 
	C401.550720,271.456177 401.123505,272.636871 401.156738,273.706573 
	C401.356934,280.151123 401.771179,286.589294 401.945374,293.034149 
	C401.983124,294.430939 401.397949,297.046509 400.991089,297.068237 
	C396.738647,297.295380 395.380829,300.832642 392.916077,303.246399 
	C390.823944,305.295197 387.853973,306.447540 385.272461,307.996521 
M390.401215,247.149292 
	C390.015808,249.497711 389.283325,251.869141 389.436768,254.181808 
	C389.489136,254.971527 391.766205,255.613678 393.026794,256.323242 
	C393.679382,254.054062 394.805511,251.776260 394.764313,249.519730 
	C394.746460,248.541687 392.323273,247.607544 390.401215,247.149292 
z"/>
<path fill="#0C65C1" opacity="1.000000" stroke="none" 
	d="
M573.091248,129.176468 
	C565.902832,136.123276 558.714355,143.070099 550.971191,149.849213 
	C550.314575,139.714844 550.000488,129.743622 550.213257,119.783638 
	C550.300964,115.674690 548.878418,114.802269 545.062683,114.823463 
	C519.117065,114.967606 493.168091,114.710365 467.225311,115.015625 
	C460.433014,115.095543 454.805237,114.101128 449.752686,109.032402 
	C441.455231,100.708443 432.596649,92.943848 424.400574,84.861481 
	C428.141785,84.597855 431.457001,84.261131 434.772522,84.257919 
	C476.689178,84.217293 518.605835,84.219414 560.522522,84.237877 
	C562.335449,84.238670 564.148254,84.502792 565.974731,85.010666 
	C566.233643,87.750267 565.557861,89.021698 562.779358,89.068405 
	C558.516296,89.140068 557.454529,91.405945 558.909241,95.380409 
	C560.007202,98.380020 560.533813,101.425934 564.867493,101.310616 
	C565.762207,101.286797 567.141296,103.180237 567.556519,104.435059 
	C568.871460,108.409431 569.914368,112.480827 570.898376,116.554367 
	C571.314880,118.278824 571.226929,120.118988 571.538391,121.876411 
	C571.972290,124.324600 572.565979,126.744476 573.091248,129.176468 
z"/>
<path fill="#0A2B4A" opacity="1.000000" stroke="none" 
	d="
M290.000000,279.126373 
	C253.707138,279.118073 217.914215,279.139832 182.121597,279.042114 
	C179.369110,279.034607 176.394516,278.698761 173.915985,277.616180 
	C169.253571,275.579712 167.080872,270.747864 168.025223,266.106293 
	C168.876450,261.922455 172.943481,258.455933 177.662979,257.931061 
	C178.486710,257.839447 179.325485,257.866669 180.157303,257.866516 
	C241.754288,257.855377 303.351257,257.845947 364.948242,257.846283 
	C366.085205,257.846283 367.222137,257.964630 368.658203,258.044342 
	C368.658203,264.962708 368.658203,271.704346 368.658203,279.126373 
	C342.627258,279.126373 316.563629,279.126373 290.000000,279.126373 
z"/>
<path fill="#082E51" opacity="1.000000" stroke="none" 
	d="
M420.481018,108.006714 
	C418.987946,105.959831 417.182098,104.060860 416.118256,101.811005 
	C415.472443,100.445335 416.178253,98.504112 415.914978,96.880104 
	C415.434723,93.917671 413.891632,93.357109 411.372101,95.136917 
	C404.691132,99.856361 398.009125,104.579781 391.186707,109.088509 
	C389.944275,109.909592 387.888123,109.406494 386.466858,110.069984 
	C383.878937,111.278076 381.485260,112.902351 379.004669,114.739655 
	C377.924591,115.208420 376.850433,115.290520 375.384827,114.862839 
	C373.571747,112.590286 372.150085,110.827507 370.728424,109.064743 
	C369.152130,111.082413 367.575836,113.100082 365.999512,115.117752 
	C363.627991,115.200531 361.256470,115.283310 358.178619,114.922089 
	C349.344910,114.318230 341.217865,114.103035 333.089813,114.052536 
	C331.722015,114.044037 330.349762,114.747200 328.979584,115.121544 
	C327.917297,115.205070 326.855042,115.288589 325.208069,114.962746 
	C323.410034,114.741615 322.196747,114.929848 320.983429,115.118088 
	C316.298401,115.202156 311.613342,115.286217 306.259155,114.954788 
	C304.053467,114.735245 302.516907,114.931183 300.980347,115.127129 
	C288.956390,115.209518 276.932465,115.291901 264.454559,114.856880 
	C263.257477,113.020439 262.644165,111.602928 261.737488,110.407990 
	C260.669159,108.999977 259.346741,107.784737 258.134491,106.485901 
	C258.134491,106.485901 258.302643,106.314018 258.769745,106.454865 
	C262.028564,106.559662 263.660065,105.638710 262.369232,102.488823 
	C262.369232,102.488823 262.482758,102.483627 262.835571,102.576256 
	C263.804291,101.820831 264.420135,100.972778 265.036011,100.124725 
	C270.197296,95.150764 275.358612,90.176796 281.278595,85.067886 
	C328.318329,84.954552 374.599365,84.976173 420.881653,85.421066 
	C420.877136,87.255463 420.871368,88.666603 420.740906,90.153122 
	C420.467743,90.542244 420.543488,90.780235 420.823456,91.292458 
	C420.813446,92.109596 420.823456,92.576752 420.709259,93.129662 
	C420.436829,93.536919 420.507141,93.792389 420.767944,94.447189 
	C420.653625,99.277260 420.567322,103.641991 420.481018,108.006714 
z"/>
<path fill="#082D4E" opacity="1.000000" stroke="none" 
	d="
M385.171936,308.432129 
	C387.853973,306.447540 390.823944,305.295197 392.916077,303.246399 
	C395.380829,300.832642 396.738647,297.295380 400.991089,297.068237 
	C401.397949,297.046509 401.983124,294.430939 401.945374,293.034149 
	C401.771179,286.589294 401.356934,280.151123 401.156738,273.706573 
	C401.123505,272.636871 401.550720,271.456177 402.060883,270.481567 
	C405.949951,263.052765 404.808228,256.564545 398.491394,250.698151 
	C395.923096,248.313004 396.385010,244.668030 400.285950,242.577621 
	C403.911194,240.634918 402.761261,238.427200 403.067719,235.243393 
	C403.695190,228.725143 402.337036,222.235474 403.545593,215.792664 
	C403.936768,213.707535 403.810059,211.483444 403.636780,209.345871 
	C403.458374,207.144928 403.015808,204.953522 402.525848,202.794907 
	C402.292145,201.765121 401.928833,200.549942 401.199615,199.882889 
	C397.022308,196.061569 395.945831,190.848328 398.332184,185.947296 
	C401.027374,185.706131 403.832703,186.086716 406.044983,185.115936 
	C409.792755,183.471375 409.011902,179.625870 409.001068,176.335007 
	C408.986755,171.994705 408.111725,167.188293 415.467285,168.783951 
	C417.597473,169.246063 419.513611,167.497086 418.747101,164.535263 
	C418.483307,163.516098 418.685120,162.376404 419.232361,161.110550 
	C420.108887,161.027710 420.428284,161.122742 420.727417,161.668930 
	C420.549164,171.736496 420.392212,181.349533 419.918274,190.992325 
	C418.775085,191.855286 417.948883,192.688477 417.122650,193.521667 
	C418.160736,194.027786 419.198822,194.533905 420.382172,195.302856 
	C420.600128,195.959869 420.672791,196.354050 420.565002,196.991394 
	C420.247864,197.822739 420.111206,198.410950 419.618652,199.040756 
	C415.242310,202.489563 415.503815,206.884094 420.028992,211.400513 
	C420.255188,212.842575 420.424469,213.885666 420.518372,215.394089 
	C420.563171,224.534958 420.683380,233.210495 420.628265,242.278015 
	C420.326447,244.102005 420.199921,245.534042 419.762634,247.253510 
	C419.654572,252.702225 419.857269,257.863464 420.126373,263.417969 
	C420.342224,264.850677 420.491638,265.890167 420.495880,267.354858 
	C420.246857,270.185516 420.143036,272.590973 419.660248,275.042633 
	C418.187744,277.995544 417.070190,280.893524 416.009521,283.812225 
	C415.362030,285.593933 415.088684,287.577240 414.143982,289.171875 
	C412.071472,292.670105 409.574677,295.917145 407.506470,299.417633 
	C407.100861,300.104126 407.582733,301.635681 408.113922,302.493439 
	C409.569946,304.844666 410.984192,307.344757 412.953094,309.221344 
	C414.987946,311.160858 417.655579,312.436401 420.102112,314.374695 
	C420.124847,315.497223 420.091827,316.247437 419.671021,317.003296 
	C414.879303,318.907257 412.333618,327.487946 414.658783,331.297852 
	C416.465912,334.259033 417.793457,337.575531 418.861481,340.886627 
	C419.177307,341.865662 417.886902,343.362823 417.332581,344.622559 
	C416.214050,343.673370 414.711334,342.935028 414.051971,341.733795 
	C412.347321,338.627991 409.321991,338.159790 407.132812,340.941223 
	C404.576874,344.188660 408.035309,353.773712 412.234924,355.081665 
	C403.792755,363.375183 395.350586,371.668701 386.368774,379.959930 
	C385.658783,379.951935 385.488403,379.946259 385.317993,379.940552 
	C385.236053,362.933167 385.154114,345.925751 385.568726,328.435730 
	C389.917053,324.653137 387.523102,320.511230 387.470245,316.709900 
	C387.466766,316.462891 386.039032,316.235687 385.273804,315.999268 
	C385.206360,313.622101 385.138885,311.244934 385.171936,308.432129 
z"/>
<path fill="#84C7FE" opacity="1.000000" stroke="none" 
	d="
M565.961121,84.644241 
	C564.148254,84.502792 562.335449,84.238670 560.522522,84.237877 
	C518.605835,84.219414 476.689178,84.217293 434.772522,84.257919 
	C431.457001,84.261131 428.141785,84.597855 424.408142,84.886124 
	C423.989838,84.992676 424.039276,84.978287 424.094055,84.631409 
	C428.432861,81.341591 432.637482,78.274208 437.016449,75.480003 
	C448.312469,68.272072 459.685577,61.184898 471.273987,53.960903 
	C471.701660,53.586414 471.883240,53.300510 472.064819,53.014599 
	C495.351471,52.953541 518.638123,52.892025 541.924805,52.831711 
	C549.074280,52.813190 549.024780,52.814327 549.078369,45.605618 
	C549.142578,36.975510 549.302246,28.346113 549.787231,19.976311 
	C550.141174,29.559551 549.991150,38.886444 550.232422,48.203205 
	C550.280334,50.051315 551.354004,52.437691 552.761169,53.596436 
	C564.047485,62.890327 575.527527,71.949028 587.066040,81.344994 
	C587.780090,82.075768 588.376282,82.541229 589.055908,83.287109 
	C589.203308,83.751755 589.267334,83.935974 588.842041,84.130264 
	C580.888916,84.308304 573.424988,84.476273 565.961121,84.644241 
z"/>
<path fill="#082B4C" opacity="1.000000" stroke="none" 
	d="
M677.399658,535.408691 
	C676.162659,533.935608 675.337280,532.603027 674.490173,531.235352 
	C678.926392,526.071716 678.926453,526.071655 673.424133,521.643555 
	C668.683960,517.828613 670.698425,507.509918 676.810242,505.107452 
	C675.699951,500.356934 674.034119,495.618530 673.634888,490.775665 
	C673.307678,486.805664 674.504883,482.713440 674.985840,478.670563 
	C675.083374,477.850616 675.000000,477.009155 675.000000,476.177612 
	C674.999939,464.277069 668.324158,460.287628 657.204895,465.454498 
	C655.836487,466.090393 654.213867,466.179413 652.709106,466.521881 
	C652.522888,465.090332 651.748169,463.335999 652.308655,462.313934 
	C652.924255,461.191315 654.698975,460.297272 656.091370,460.076050 
	C663.173096,458.951080 663.955566,456.761383 659.419678,450.103333 
	C660.882385,449.022186 662.358704,447.957214 663.747192,446.788025 
	C663.793030,446.749451 662.947693,445.652557 662.154358,444.986084 
	C661.949402,440.586700 662.107849,436.250244 662.713989,431.452271 
	C664.005981,430.215912 664.850220,429.441071 665.694519,428.666199 
	C664.627747,428.105774 663.560913,427.545349 662.494080,426.984924 
	C662.411377,423.292542 662.328613,419.600098 662.727295,415.459656 
	C663.866211,415.077850 664.590820,414.987122 665.170959,415.234772 
	C670.465637,417.494873 670.850586,417.216827 671.038513,411.517822 
	C671.101929,409.595276 670.959656,406.635315 672.039795,405.963379 
	C675.815674,403.614471 675.740601,400.591339 675.065125,396.974762 
	C674.846802,395.805725 675.349243,394.502045 675.415833,394.023376 
	C679.527893,392.678253 682.966370,391.656860 686.328918,390.427765 
	C690.702209,388.829102 693.097778,390.536896 692.338196,395.216156 
	C691.811951,398.458069 693.440796,398.970154 695.929810,398.999847 
	C696.014648,408.297546 696.163635,417.595215 696.172913,426.892975 
	C696.207214,461.289368 696.195557,495.685791 695.668091,530.541382 
	C691.919922,531.338135 688.651611,531.440063 685.519897,532.147034 
	C684.489441,532.379639 683.812378,534.178101 682.973755,535.260498 
	C681.252869,535.356689 679.532043,535.452942 677.399658,535.408691 
M673.065857,449.615326 
	C674.133484,450.719208 675.089294,451.998138 676.348450,452.802094 
	C676.657776,452.999573 678.524353,451.749573 678.663513,450.981659 
	C678.855713,449.921600 678.046204,447.684662 677.739136,447.697601 
	C676.218018,447.761566 674.721130,448.399994 673.065857,449.615326 
z"/>
<path fill="#0F2F4E" opacity="1.000000" stroke="none" 
	d="
M260.000000,152.136780 
	C296.424194,152.136795 332.348389,152.136795 368.629791,152.136795 
	C368.629791,158.945297 368.629791,165.360138 368.629791,172.536530 
	C366.848114,172.536530 364.931793,172.534348 363.015442,172.536850 
	C314.408234,172.600601 265.801056,172.662720 217.193848,172.731415 
	C210.412338,172.740997 205.663940,168.555801 205.517014,162.399841 
	C205.370590,156.265411 209.877289,152.208191 217.050430,152.181244 
	C231.200150,152.128067 245.350128,152.147415 260.000000,152.136780 
z"/>
<path fill="#11314F" opacity="1.000000" stroke="none" 
	d="
M297.999939,345.825470 
	C276.681000,345.790314 255.861801,345.797424 235.043579,345.658173 
	C232.803146,345.643219 229.702652,345.514587 228.530838,344.137268 
	C226.703720,341.989685 224.997711,338.497223 225.479309,336.007812 
	C225.887665,333.897095 229.365982,332.248688 231.694183,330.711182 
	C232.526825,330.161316 233.969742,330.494873 235.134155,330.493958 
	C278.104706,330.460358 321.075287,330.432007 364.045837,330.420258 
	C365.499878,330.419861 366.953949,330.597656 368.648682,330.708069 
	C368.648682,335.668274 368.648682,340.279083 368.648682,345.825256 
	C345.268646,345.825256 321.884308,345.825256 297.999939,345.825470 
z"/>
<path fill="#082B4C" opacity="1.000000" stroke="none" 
	d="
M337.433105,535.445068 
	C337.390350,532.220825 336.423615,530.815125 332.939056,530.924072 
	C325.143585,531.167908 317.322205,531.278259 309.536102,530.914246 
	C303.001099,530.608704 296.418762,529.953796 290.026276,528.634949 
	C287.482300,528.110168 283.803955,525.665161 283.436493,523.597656 
	C282.733032,519.639648 281.000641,514.579224 286.448181,511.674774 
	C290.267517,509.638489 293.867676,507.191132 297.965393,504.878662 
	C320.607391,504.759155 342.849792,504.688354 365.549927,505.118988 
	C366.994232,507.080261 367.980804,508.540070 368.967346,509.999908 
	C369.030823,515.693909 369.094299,521.387939 368.712830,527.578918 
	C366.838409,530.481018 365.408997,532.886108 363.979614,535.291260 
	C355.280640,535.389893 346.581696,535.488525 337.433105,535.445068 
z"/>
<path fill="#092C4C" opacity="1.000000" stroke="none" 
	d="
M162.576508,389.184814 
	C163.333878,398.224091 163.599609,407.179901 164.085907,416.123688 
	C164.153900,417.373962 164.995956,419.065857 166.011169,419.692963 
	C169.463364,421.825500 171.458557,427.229828 169.520187,430.641052 
	C167.979218,433.352905 165.702744,433.489594 163.111603,432.047638 
	C160.409851,430.544067 160.929276,429.020386 162.535446,426.851349 
	C165.346313,423.055450 164.453094,421.425629 160.072189,419.833099 
	C158.669647,419.323242 157.926300,417.115326 156.769257,415.781555 
	C155.666351,414.510193 154.417374,413.365601 153.232620,412.165253 
	C152.480133,413.461609 151.586288,414.698669 151.011398,416.069519 
	C150.310410,417.740936 149.877533,419.524811 149.177872,421.598663 
	C138.322739,421.900024 127.618423,421.862732 116.431053,421.322815 
	C113.980904,420.213348 112.033699,419.168060 110.043167,419.077728 
	C102.603546,418.740173 100.084435,416.307861 99.957817,409.142059 
	C99.909859,406.427704 99.381104,403.721832 99.071495,401.012115 
	C98.999603,398.301880 98.927719,395.591614 99.327202,392.439545 
	C100.862495,391.322937 101.926422,390.648163 103.002731,389.770355 
	C103.015129,389.567352 103.036148,389.161133 103.036148,389.161133 
	C104.093002,389.123413 105.149864,389.085663 106.919601,389.354553 
	C111.427025,389.499634 115.221550,389.338043 119.016083,389.176453 
	C122.037308,389.142609 125.058533,389.108734 128.653198,389.319000 
	C129.448517,389.772980 129.705124,389.923645 130.058258,390.367859 
	C134.427658,393.576324 139.419937,392.914124 141.003906,389.276855 
	C144.699722,389.216461 148.395523,389.156097 152.622498,389.500549 
	C154.436478,389.689758 155.719299,389.474091 157.002121,389.258423 
	C158.719742,389.204773 160.437363,389.151154 162.576508,389.184814 
z"/>
<path fill="#082B4C" opacity="1.000000" stroke="none" 
	d="
M297.882690,421.317566 
	C297.578033,420.513031 297.588135,419.203583 297.857300,419.147980 
	C299.382233,418.832916 300.969177,418.818115 303.268677,418.646210 
	C300.881226,415.395966 298.977203,412.803833 297.588989,410.913971 
	C299.756226,406.211914 301.559357,402.093414 303.577454,398.083038 
	C304.019592,397.204407 305.129333,396.437012 306.100250,396.089478 
	C309.625641,394.827698 313.162048,393.476288 316.810242,392.712769 
	C320.259857,391.990814 323.853302,391.942383 327.387085,391.639740 
	C331.924347,391.251160 336.462982,390.873077 341.005280,390.550446 
	C344.294220,390.316833 347.589386,390.166656 350.883087,390.005829 
	C353.358917,389.884979 355.836792,389.806183 358.637604,389.457092 
	C360.689758,389.143799 362.418091,389.082031 364.616638,389.439209 
	C366.393860,391.239655 367.700806,392.621185 369.007751,394.002686 
	C369.074554,401.362854 369.141357,408.723053 368.740173,416.609802 
	C367.848541,418.452911 367.424896,419.769440 367.001221,421.085968 
	C344.106537,421.187866 321.211823,421.289764 297.882690,421.317566 
z"/>
<path fill="#10304F" opacity="1.000000" stroke="none" 
	d="
M368.846252,225.496353 
	C368.962311,230.421814 368.962311,234.899994 368.962311,240.201889 
	C367.033478,240.201889 365.298340,240.202606 363.563232,240.201782 
	C328.123169,240.184952 292.683075,240.172989 257.243011,240.136490 
	C255.420898,240.134613 253.495697,240.259109 251.798294,239.738510 
	C248.153793,238.620789 245.738403,236.190445 245.938171,232.086639 
	C246.143036,227.878265 248.548370,225.398804 252.617599,224.559631 
	C253.579590,224.361237 254.607147,224.458557 255.604599,224.457504 
	C291.876526,224.419342 328.148468,224.377640 364.420410,224.380997 
	C365.857025,224.381134 367.293579,224.816483 368.846252,225.496353 
z"/>
<path fill="#0A2D4E" opacity="1.000000" stroke="none" 
	d="
M306.889099,477.148438 
	C305.646759,475.966797 304.911346,474.247162 303.809692,473.966858 
	C299.542328,472.880981 299.595734,470.011658 300.257080,466.712433 
	C300.386169,466.068359 300.964539,465.359436 300.809601,464.836182 
	C297.549835,453.826050 305.349792,451.842072 313.027069,449.668243 
	C313.451904,449.547913 313.650208,448.627289 313.972473,447.704437 
	C320.389526,447.272766 326.788025,447.215851 333.649872,447.699829 
	C337.651672,451.122498 341.157928,450.767548 342.913879,447.349792 
	C347.304382,447.279449 351.694885,447.209106 356.596069,447.504883 
	C357.391571,447.692810 357.676392,447.514618 357.961182,447.336456 
	C358.400208,447.271576 358.839172,447.206696 359.725220,447.587341 
	C361.447723,447.797394 362.723175,447.561859 363.998657,447.326355 
	C370.170776,446.074921 367.153778,450.811859 367.344727,453.519653 
	C365.930298,454.364014 364.303955,454.681549 364.132050,455.364929 
	C363.467560,458.006470 364.744476,459.343140 367.544434,459.004608 
	C367.544434,464.925507 367.544434,470.846405 367.544434,477.271637 
	C347.277100,477.271637 327.252441,477.271637 306.889099,477.148438 
M366.585449,448.519104 
	C366.585449,448.519104 366.474670,448.585266 366.585449,448.519104 
z"/>
<path fill="#1078D9" opacity="1.000000" stroke="none" 
	d="
M420.058807,316.997681 
	C420.091827,316.247437 420.124847,315.497223 420.156921,313.908264 
	C420.270813,301.040375 420.385651,289.011261 420.826111,277.103180 
	C422.664703,281.830566 427.118805,280.013641 430.039764,280.767395 
	C437.920990,282.801300 445.509491,286.653595 454.181427,285.150665 
	C457.188446,284.629517 458.125427,283.803558 458.039093,280.917694 
	C457.880585,275.618439 457.987823,270.311218 457.991699,264.541992 
	C457.998718,259.725311 457.998383,255.373947 458.084625,250.819977 
	C458.326111,250.357956 458.536560,250.156555 458.802521,250.013168 
	C458.866760,269.317078 458.983612,288.621216 458.896851,307.924438 
	C458.889801,309.493469 457.849579,311.424683 456.681549,312.564911 
	C445.135498,323.835938 433.460999,334.975403 421.396881,345.796326 
	C420.666870,335.959564 420.362823,326.478638 420.058807,316.997681 
z"/>
<path fill="#137ADE" opacity="1.000000" stroke="none" 
	d="
M586.948303,81.079681 
	C575.527527,71.949028 564.047485,62.890327 552.761169,53.596436 
	C551.354004,52.437691 550.280334,50.051315 550.232422,48.203205 
	C549.991150,38.886444 550.141174,29.559551 550.143066,19.795277 
	C553.575928,22.437708 557.087341,25.449131 560.452148,28.616329 
	C579.967957,46.986118 599.445740,65.396255 618.958862,83.768959 
	C619.545654,84.321487 620.379150,84.611977 621.491943,85.251091 
	C618.701782,87.855408 616.651245,89.769440 614.037598,91.504272 
	C612.707153,91.048309 611.729797,90.982994 611.205017,90.461945 
	C606.177307,85.469536 600.380859,82.100227 593.173218,81.549339 
	C591.098389,81.390755 589.023254,81.236115 586.948303,81.079681 
z"/>
<path fill="#0B2F4F" opacity="1.000000" stroke="none" 
	d="
M471.679626,537.898254 
	C470.614197,533.945496 467.661469,534.200806 464.784210,533.921997 
	C463.093201,533.758118 461.476868,532.823486 459.826965,532.235474 
	C459.976288,531.725281 460.125610,531.215027 460.274963,530.704773 
	C462.783783,530.130066 465.292603,529.555298 468.885223,528.732300 
	C464.972137,524.697388 461.962097,521.593628 458.538940,518.063965 
	C459.216492,516.504456 459.999603,513.814392 461.509186,511.625275 
	C462.200165,510.623230 464.538788,509.951050 465.725983,510.345551 
	C466.725616,510.677795 467.513031,512.712158 467.727570,514.096436 
	C468.056885,516.220825 467.814117,518.433960 468.414551,520.961121 
	C471.679047,515.286255 474.909058,514.814941 479.870514,518.568176 
	C482.943420,520.892822 489.852875,515.779419 491.693268,510.286896 
	C493.804016,510.520416 495.995331,510.762848 498.642883,511.055725 
	C498.255646,506.422791 500.391571,504.276947 504.385071,503.702667 
	C505.163971,503.590637 506.256989,503.181244 506.554688,502.584503 
	C509.931305,495.817383 512.197083,501.084167 515.091187,503.114410 
	C518.214661,505.305634 521.725464,506.944855 525.497192,508.758728 
	C528.076233,510.681152 530.225403,512.669678 532.702087,514.961243 
	C515.509705,531.716553 495.612396,539.644470 471.679626,537.898254 
z"/>
<path fill="#4AA7FA" opacity="1.000000" stroke="none" 
	d="
M420.745483,196.748245 
	C420.672791,196.354050 420.600128,195.959869 420.547607,194.913422 
	C420.456970,193.161636 420.346100,192.062103 420.235260,190.962570 
	C420.392212,181.349533 420.549164,171.736496 420.820374,161.271362 
	C420.871704,159.882614 420.808716,159.345963 420.730957,158.654541 
	C420.716125,158.499741 420.744904,158.190094 420.805664,157.845154 
	C420.829651,157.269608 420.792908,157.039017 420.734375,156.535583 
	C420.730194,155.898544 420.747803,155.534348 420.833069,154.841675 
	C420.861450,154.293076 420.822174,154.072968 420.782928,153.852875 
	C420.715393,145.211136 420.647858,136.569397 420.590851,127.069969 
	C420.495056,124.460175 420.388733,122.708076 420.282440,120.955978 
	C420.394867,116.945549 420.507263,112.935120 420.550354,108.465698 
	C420.567322,103.641991 420.653625,99.277260 420.831177,94.215851 
	C420.922424,93.519157 420.833466,93.043907 420.833466,93.043907 
	C420.823456,92.576752 420.813446,92.109596 420.875427,91.078522 
	C420.947388,90.514610 420.865570,90.077736 420.865570,90.077736 
	C420.871368,88.666603 420.877136,87.255463 420.942078,85.457474 
	C421.001282,85.070610 421.121429,84.997238 421.484741,84.971939 
	C422.578491,84.957184 423.308868,84.967735 424.039276,84.978287 
	C424.039276,84.978287 423.989838,84.992676 423.982239,84.968033 
	C432.596649,92.943848 441.455231,100.708443 449.752686,109.032402 
	C454.805237,114.101128 460.433014,115.095543 467.225311,115.015625 
	C493.168091,114.710365 519.117065,114.967606 545.062683,114.823463 
	C548.878418,114.802269 550.300964,115.674690 550.213257,119.783638 
	C550.000488,129.743622 550.314575,139.714844 550.675049,150.042191 
	C550.338074,149.365707 549.240723,148.335678 549.225830,147.290268 
	C549.105164,138.802856 549.187927,130.312531 549.206970,121.823097 
	C549.210938,120.036674 549.207581,118.250244 549.207581,116.094009 
	C518.985962,116.094009 489.308136,116.094009 459.080811,116.094009 
	C459.080811,157.587387 459.080811,198.818924 458.728363,240.216888 
	C458.245300,237.914078 458.114655,235.444824 457.995728,232.509857 
	C457.993011,224.693237 457.978546,217.342316 457.976685,209.523438 
	C457.982697,198.369324 457.976105,187.683151 457.980957,176.528809 
	C457.993683,163.766724 458.014191,151.472778 457.986023,139.178940 
	C457.975983,134.787277 454.256470,129.432770 451.168945,128.982956 
	C445.693054,128.185211 440.210510,127.395645 434.774811,126.369164 
	C428.395020,125.164383 422.027252,130.145584 422.014618,136.628845 
	C421.989044,149.753372 422.008118,162.877960 422.006470,176.471008 
	C422.001953,184.625488 421.999756,192.311508 421.795654,199.998749 
	C421.593781,199.999969 421.190002,200.001801 421.140900,199.593964 
	C420.976349,198.373489 420.860931,197.560867 420.745483,196.748245 
z"/>
<path fill="#1378D6" opacity="1.000000" stroke="none" 
	d="
M471.590271,52.981777 
	C471.883240,53.300510 471.701660,53.586414 470.803406,53.943520 
	C421.004761,55.198673 371.853180,51.470043 322.832062,56.128738 
	C320.485107,56.351780 318.317322,58.460117 316.066101,59.690491 
	C318.100006,61.789799 320.124542,63.898323 322.171234,65.985077 
	C323.476837,67.316223 325.507202,68.389755 326.020996,69.966965 
	C328.426575,77.351456 328.456085,77.531418 336.070038,78.020210 
	C337.052094,78.083260 338.017609,78.370911 338.997467,78.506599 
	C349.847137,80.009132 360.673737,81.728973 371.559296,82.899986 
	C376.824677,83.466408 382.216309,83.245659 387.523834,82.929451 
	C393.214081,82.590439 398.862518,81.596619 404.549042,81.130409 
	C407.774078,80.866005 411.143158,80.591660 414.252411,81.246918 
	C416.696960,81.762077 418.842865,83.694420 421.121429,84.997238 
	C421.121429,84.997238 421.001282,85.070610 420.940857,85.034203 
	C374.599365,84.976173 328.318329,84.954552 281.583496,84.908173 
	C288.766754,77.729820 297.197479,71.235336 303.830994,63.248253 
	C311.353577,54.190613 320.158173,52.526623 331.216400,52.654335 
	C377.844421,53.192841 424.481781,52.923050 471.590271,52.981777 
z"/>
<path fill="#0A2B48" opacity="1.000000" stroke="none" 
	d="
M297.964996,309.800079 
	C294.899963,311.234161 292.098328,313.272522 289.246338,313.345612 
	C275.259888,313.703949 261.259369,313.467590 247.265259,313.597992 
	C242.236435,313.644806 238.450531,311.833374 236.407974,307.204590 
	C233.990784,301.726807 237.855743,295.158508 244.233688,295.006317 
	C260.049316,294.628998 275.887512,294.557770 291.700226,294.979187 
	C298.989471,295.173492 301.828094,302.264160 297.964996,309.800079 
z"/>
<path fill="#0D6AC7" opacity="1.000000" stroke="none" 
	d="
M565.974731,85.010666 
	C573.424988,84.476273 580.888916,84.308304 588.985718,84.119507 
	C589.618591,84.098671 589.911377,84.116806 589.979736,84.466118 
	C592.665283,88.698120 594.703003,92.714828 594.036072,97.666924 
	C593.397705,102.407341 595.879150,104.328979 600.395813,104.118179 
	C591.506165,112.392540 582.616516,120.666908 573.409058,129.058868 
	C572.565979,126.744476 571.972290,124.324600 571.538391,121.876411 
	C571.226929,120.118988 571.314880,118.278824 570.898376,116.554367 
	C569.914368,112.480827 568.871460,108.409431 567.556519,104.435059 
	C567.141296,103.180237 565.762207,101.286797 564.867493,101.310616 
	C560.533813,101.425934 560.007202,98.380020 558.909241,95.380409 
	C557.454529,91.405945 558.516296,89.140068 562.779358,89.068405 
	C565.557861,89.021698 566.233643,87.750267 565.974731,85.010666 
z"/>
<path fill="#11314F" opacity="1.000000" stroke="none" 
	d="
M311.000000,137.897003 
	C283.533081,137.882614 256.566193,137.869904 229.599319,137.853790 
	C228.268082,137.852982 226.691849,138.268021 225.663010,137.701920 
	C224.115570,136.850464 221.925812,135.322708 221.900833,134.045456 
	C221.873627,132.655319 223.805405,130.931290 225.272369,129.914322 
	C226.205505,129.267456 227.847321,129.570511 229.171356,129.570389 
	C263.629059,129.567200 298.086731,129.580185 332.544434,129.590393 
	C332.710907,129.590439 332.877350,129.590652 333.043823,129.590988 
	C336.286713,129.597458 340.269165,129.595184 340.230957,133.753464 
	C340.193329,137.846939 336.196991,137.880569 332.973785,137.891708 
	C325.815948,137.916443 318.657928,137.898514 311.000000,137.897003 
z"/>
<path fill="#10304F" opacity="1.000000" stroke="none" 
	d="
M331.017609,294.778778 
	C343.775726,294.778503 356.083069,294.778503 368.683533,294.778503 
	C368.683533,300.950989 368.683533,306.862732 368.683533,313.551208 
	C364.809052,313.551208 360.890747,313.550812 356.972412,313.551331 
	C348.311646,313.552490 339.650879,313.553619 330.990112,313.555634 
	C323.901215,313.557281 319.038330,309.562744 319.034302,303.733185 
	C319.030518,298.282745 323.216370,295.032776 331.017609,294.778778 
z"/>
<path fill="#2492F3" opacity="1.000000" stroke="none" 
	d="
M457.984009,232.975586 
	C458.114655,235.444824 458.245300,237.914078 458.637573,240.676025 
	C458.932159,243.690002 458.965118,246.411301 458.900299,249.572876 
	C458.536560,250.156555 458.326111,250.357956 457.697571,250.766663 
	C452.257111,249.928925 447.326385,248.640762 442.313324,248.040314 
	C437.382965,247.449768 432.363037,247.315018 427.393677,247.437469 
	C423.663971,247.529388 421.227264,249.303299 421.903351,253.738770 
	C422.054291,254.728775 421.010620,255.900879 420.438019,256.541901 
	C420.263855,253.051804 420.168640,250.008926 420.073395,246.966064 
	C420.199921,245.534042 420.326447,244.102005 420.918640,242.125610 
	C421.591156,239.386887 421.798035,237.192535 422.377625,234.993988 
	C428.722351,232.331787 434.353149,228.565048 441.477692,230.049179 
	C446.945709,231.188217 452.479492,232.011734 457.984009,232.975586 
z"/>
<path fill="#11314F" opacity="1.000000" stroke="none" 
	d="
M171.708984,239.210022 
	C163.429260,239.582092 155.489517,240.169800 147.606003,239.735870 
	C143.874527,239.530487 141.717361,236.196198 141.806992,232.185318 
	C141.900970,227.979218 144.127960,224.879730 148.265671,224.643631 
	C155.371597,224.238129 162.560837,224.199249 169.629486,224.886765 
	C171.807999,225.098679 174.530090,227.800156 175.547546,230.026840 
	C177.179626,233.598602 175.035599,236.688873 171.708984,239.210022 
z"/>
<path fill="#0F3150" opacity="1.000000" stroke="none" 
	d="
M224.083984,238.130798 
	C222.142365,239.008667 220.484375,240.069595 218.790100,240.131119 
	C213.323547,240.329620 207.830139,240.386383 202.373184,240.060669 
	C198.054764,239.802917 195.189209,236.144348 195.326859,231.893143 
	C195.457535,227.856415 198.349014,224.736130 202.616089,224.548737 
	C207.585098,224.330505 212.639496,223.963211 217.521439,224.638885 
	C220.462387,225.045929 223.822250,226.711380 225.775940,228.899033 
	C228.306488,231.732605 226.698318,235.138107 224.083984,238.130798 
z"/>
<path fill="#0C2D4B" opacity="1.000000" stroke="none" 
	d="
M696.035400,398.559570 
	C693.440796,398.970154 691.811951,398.458069 692.338196,395.216156 
	C693.097778,390.536896 690.702209,388.829102 686.328918,390.427765 
	C682.966370,391.656860 679.527893,392.678253 675.415833,394.023376 
	C675.349243,394.502045 674.846802,395.805725 675.065125,396.974762 
	C675.740601,400.591339 675.815674,403.614471 672.039795,405.963379 
	C670.959656,406.635315 671.101929,409.595276 671.038513,411.517822 
	C670.850586,417.216827 670.465637,417.494873 665.170959,415.234772 
	C664.590820,414.987122 663.866211,415.077850 662.845154,415.013306 
	C662.394409,408.312683 662.307129,401.610382 662.687805,394.450684 
	C664.056763,393.532501 664.957764,393.071716 665.858765,392.610962 
	C664.992493,391.747375 664.126282,390.883820 663.202637,389.823059 
	C663.145264,389.625824 663.051819,389.225861 663.051819,389.225861 
	C673.398560,389.137329 683.745300,389.048767 694.656372,389.239929 
	C695.403687,389.752106 695.637146,389.910217 695.920959,389.993896 
	C695.994324,392.702362 696.067688,395.410858 696.035400,398.559570 
z"/>
<path fill="#0F2F4E" opacity="1.000000" stroke="none" 
	d="
M177.404953,152.423584 
	C184.011200,155.235519 186.366272,159.161423 185.156662,164.813400 
	C184.184647,169.355148 180.349884,172.313873 175.379105,172.357346 
	C169.532867,172.408447 165.378799,168.815948 164.892273,163.288147 
	C164.403305,157.732544 167.784286,153.469299 173.565903,152.462341 
	C174.693726,152.265915 175.873123,152.365585 177.404953,152.423584 
z"/>
<path fill="#0F3150" opacity="1.000000" stroke="none" 
	d="
M208.040344,313.530090 
	C199.547089,314.834686 193.900818,311.388672 193.569427,305.085846 
	C193.307755,300.109009 196.467453,296.137634 201.520782,295.091858 
	C206.822052,293.994781 212.116272,296.535309 213.992920,301.076843 
	C215.933868,305.774017 214.130463,309.746155 208.040344,313.530090 
z"/>
<path fill="#1378D6" opacity="1.000000" stroke="none" 
	d="
M600.609497,104.053452 
	C595.879150,104.328979 593.397705,102.407341 594.036072,97.666924 
	C594.703003,92.714828 592.665283,88.698120 589.913635,84.215103 
	C589.510315,83.412079 589.241455,83.209389 588.972534,83.006691 
	C588.376282,82.541229 587.780090,82.075768 587.066040,81.344994 
	C589.023254,81.236115 591.098389,81.390755 593.173218,81.549339 
	C600.380859,82.100227 606.177307,85.469536 611.205017,90.461945 
	C611.729797,90.982994 612.707153,91.048309 613.712524,91.551987 
	C612.224487,93.466835 610.498474,95.154793 608.211548,97.041367 
	C607.438354,97.519661 607.226074,97.799332 607.013794,98.079010 
	C606.847168,98.354828 606.680481,98.630646 606.053101,99.063644 
	C605.322205,99.411049 605.120361,99.657265 604.986755,99.959473 
	C604.986755,99.959473 605.001282,100.001190 604.686279,100.037018 
	C603.919495,100.635925 603.467651,101.199020 603.015808,101.762108 
	C603.015808,101.762108 602.871338,102.072388 602.407471,102.136169 
	C601.637390,102.663368 601.331116,103.126785 601.024841,103.590187 
	C601.024841,103.590179 600.823242,103.988724 600.609497,104.053452 
z"/>
<path fill="#052F53" opacity="1.000000" stroke="none" 
	d="
M419.671021,317.003296 
	C420.362823,326.478638 420.666870,335.959564 421.077332,345.924744 
	C418.405487,349.224030 415.627197,352.039154 412.541931,354.967957 
	C408.035309,353.773712 404.576874,344.188660 407.132812,340.941223 
	C409.321991,338.159790 412.347321,338.627991 414.051971,341.733795 
	C414.711334,342.935028 416.214050,343.673370 417.332581,344.622559 
	C417.886902,343.362823 419.177307,341.865662 418.861481,340.886627 
	C417.793457,337.575531 416.465912,334.259033 414.658783,331.297852 
	C412.333618,327.487946 414.879303,318.907257 419.671021,317.003296 
z"/>
<path fill="#0A2B48" opacity="1.000000" stroke="none" 
	d="
M366.539398,187.893158 
	C365.609985,188.327286 364.220856,188.959824 362.830902,188.961517 
	C320.401733,189.013443 277.972473,189.005920 235.543243,188.986923 
	C234.564987,188.986496 233.586823,188.747787 232.310226,188.330292 
	C246.129044,187.985229 260.246216,187.901596 274.363434,187.880890 
	C304.935364,187.836044 335.507324,187.823349 366.539398,187.893158 
z"/>
<path fill="#344F64" opacity="1.000000" stroke="none" 
	d="
M601.085693,439.605042 
	C600.643982,438.251373 600.083740,436.521179 600.074463,434.788025 
	C599.994751,419.873413 600.014465,404.958252 599.987549,389.582825 
	C600.403870,390.331543 601.208557,391.539032 601.213989,392.750122 
	C601.283447,408.242157 601.238464,423.734711 601.085693,439.605042 
z"/>
<path fill="#092B49" opacity="1.000000" stroke="none" 
	d="
M98.976288,401.471252 
	C99.381104,403.721832 99.909859,406.427704 99.957817,409.142059 
	C100.084435,416.307861 102.603546,418.740173 110.043167,419.077728 
	C112.033699,419.168060 113.980904,420.213348 115.976608,421.204468 
	C110.947624,421.652679 105.890022,421.716614 100.299149,421.530426 
	C99.627701,421.148193 99.464737,421.064117 99.276985,421.028107 
	C99.145020,414.662201 99.013046,408.296326 98.976288,401.471252 
z"/>
<path fill="#0A2B48" opacity="1.000000" stroke="none" 
	d="
M257.863129,106.636002 
	C259.346741,107.784737 260.669159,108.999977 261.737488,110.407990 
	C262.644165,111.602928 263.257477,113.020439 263.999207,114.734879 
	C259.121887,115.130295 254.245987,115.130295 248.388748,115.130295 
	C251.779190,112.056252 254.685486,109.421173 257.863129,106.636002 
z"/>
<path fill="#0C2D4B" opacity="1.000000" stroke="none" 
	d="
M406.170105,431.476440 
	C407.805054,435.092438 409.179993,438.969299 410.964508,444.000977 
	C407.393707,444.000977 405.168427,444.000977 402.503448,444.000793 
	C403.345856,439.912842 404.627960,435.825104 406.170105,431.476440 
z"/>
<path fill="#0C2D4B" opacity="1.000000" stroke="none" 
	d="
M683.412048,535.403748 
	C683.812378,534.178101 684.489441,532.379639 685.519897,532.147034 
	C688.651611,531.440063 691.919922,531.338135 695.565308,531.000244 
	C695.995544,532.418762 695.995544,533.837463 695.995544,535.546997 
	C691.721130,535.546997 687.785767,535.546997 683.412048,535.403748 
z"/>
<path fill="#082B4A" opacity="1.000000" stroke="none" 
	d="
M366.436768,115.237747 
	C367.575836,113.100082 369.152130,111.082413 370.728424,109.064743 
	C372.150085,110.827507 373.571747,112.590286 374.996948,114.736641 
	C372.291656,115.199387 369.582855,115.278557 366.436768,115.237747 
z"/>
<path fill="#082B4A" opacity="1.000000" stroke="none" 
	d="
M385.176392,316.451202 
	C386.039032,316.235687 387.466766,316.462891 387.470245,316.709900 
	C387.523102,320.511230 389.917053,324.653137 385.669189,327.976868 
	C385.208435,324.301483 385.143707,320.602295 385.176392,316.451202 
z"/>
<path fill="#0A2B48" opacity="1.000000" stroke="none" 
	d="
M364.383301,535.433716 
	C365.408997,532.886108 366.838409,530.481018 368.614807,528.037964 
	C368.961792,530.281189 368.961792,532.562378 368.961792,535.367676 
	C367.571838,535.437073 366.179413,535.506653 364.383301,535.433716 
z"/>
<path fill="#0A2B48" opacity="1.000000" stroke="none" 
	d="
M329.436768,115.240387 
	C330.349762,114.747200 331.722015,114.044037 333.089813,114.052536 
	C341.217865,114.103035 349.344910,114.318230 357.749603,114.798279 
	C348.649261,115.198723 339.271606,115.278984 329.436768,115.240387 
z"/>
<path fill="#092B49" opacity="1.000000" stroke="none" 
	d="
M140.677887,389.191895 
	C139.419937,392.914124 134.427658,393.576324 130.493835,390.355682 
	C133.583054,389.731567 136.298477,389.472351 139.013885,389.213135 
	C139.459885,389.177734 139.905884,389.142334 140.677887,389.191895 
z"/>
<path fill="#10304F" opacity="1.000000" stroke="none" 
	d="
M183.179352,433.637878 
	C183.038101,430.068237 183.035797,426.122650 183.406815,422.055786 
	C183.626175,425.710327 183.472229,429.486115 183.179352,433.637878 
z"/>
<path fill="#0A2B48" opacity="1.000000" stroke="none" 
	d="
M367.663391,458.598419 
	C364.744476,459.343140 363.467560,458.006470 364.132050,455.364929 
	C364.303955,454.681549 365.930298,454.364014 367.221802,453.935730 
	C367.630829,455.392761 367.706604,456.792480 367.663391,458.598419 
z"/>
<path fill="#0A2B48" opacity="1.000000" stroke="none" 
	d="
M342.480408,447.255005 
	C341.157928,450.767548 337.651672,451.122498 334.094666,447.800476 
	C336.733063,447.293579 339.389984,447.226898 342.480408,447.255005 
z"/>
<path fill="#0A2B48" opacity="1.000000" stroke="none" 
	d="
M369.113525,393.576477 
	C367.700806,392.621185 366.393860,391.239655 365.041473,389.524689 
	C366.262268,389.191254 367.528534,389.191254 369.219269,389.191254 
	C369.219269,390.621826 369.219269,391.886047 369.113525,393.576477 
z"/>
<path fill="#082B4C" opacity="1.000000" stroke="none" 
	d="
M663.260010,390.020264 
	C664.126282,390.883820 664.992493,391.747375 665.858765,392.610962 
	C664.957764,393.071716 664.056763,393.532501 662.809692,393.997192 
	C662.380615,392.952881 662.297546,391.904694 662.524170,390.489594 
	C662.833923,390.122711 663.260010,390.020264 663.260010,390.020264 
z"/>
<path fill="#0C2D4B" opacity="1.000000" stroke="none" 
	d="
M662.374390,427.377625 
	C663.560913,427.545349 664.627747,428.105774 665.694519,428.666199 
	C664.850220,429.441071 664.005981,430.215912 662.832520,431.003235 
	C662.420471,429.933899 662.337585,428.852081 662.374390,427.377625 
z"/>
<path fill="#0A2B48" opacity="1.000000" stroke="none" 
	d="
M369.066223,509.566132 
	C367.980804,508.540070 366.994232,507.080261 366.004150,505.245850 
	C370.588440,503.667847 368.815399,507.188293 369.066223,509.566132 
z"/>
<path fill="#0A2B48" opacity="1.000000" stroke="none" 
	d="
M224.536713,187.940002 
	C220.855255,188.221359 216.719498,188.408813 212.294342,188.302887 
	C216.030762,187.955048 220.056580,187.900574 224.536713,187.940002 
z"/>
<path fill="#10304F" opacity="1.000000" stroke="none" 
	d="
M213.472534,421.862915 
	C215.972610,421.526459 218.910416,421.296204 221.927170,421.407288 
	C219.307495,421.822144 216.608871,421.895660 213.472534,421.862915 
z"/>
<path fill="#344F64" opacity="1.000000" stroke="none" 
	d="
M118.562973,389.078796 
	C115.221550,389.338043 111.427025,389.499634 107.312653,389.413361 
	C110.698494,389.104065 114.404182,389.042603 118.562973,389.078796 
z"/>
<path fill="#0A2B48" opacity="1.000000" stroke="none" 
	d="
M262.102478,102.628250 
	C263.660065,105.638710 262.028564,106.559662 258.870056,106.388611 
	C259.614105,105.043579 260.724915,103.905632 262.102478,102.628250 
z"/>
<path fill="#344F64" opacity="1.000000" stroke="none" 
	d="
M138.567474,389.113403 
	C136.298477,389.472351 133.583054,389.731567 130.432068,390.002991 
	C129.705124,389.923645 129.448517,389.772980 129.102570,389.375854 
	C132.026001,389.130280 135.073532,389.071960 138.567474,389.113403 
z"/>
<path fill="#344F64" opacity="1.000000" stroke="none" 
	d="
M191.571411,389.075684 
	C189.211517,389.344513 186.408951,389.515625 183.301178,389.446198 
	C185.706879,389.129761 188.417801,389.053864 191.571411,389.075684 
z"/>
<path fill="#0A2B48" opacity="1.000000" stroke="none" 
	d="
M367.418945,421.194275 
	C367.424896,419.769440 367.848541,418.452911 368.634857,417.068176 
	C368.610535,418.434204 368.223572,419.868408 367.418945,421.194275 
z"/>
<path fill="#092B49" opacity="1.000000" stroke="none" 
	d="
M102.990341,389.973328 
	C101.926422,390.648163 100.862495,391.322937 99.424744,391.997375 
	C98.985428,391.552704 98.919945,391.108429 99.331100,390.320099 
	C100.868614,389.975159 101.929474,389.974243 102.990341,389.973328 
z"/>
<path fill="#092B49" opacity="1.000000" stroke="none" 
	d="
M156.607346,389.171265 
	C155.719299,389.474091 154.436478,389.689758 153.076050,389.587219 
	C154.069824,389.207367 155.141190,389.145752 156.607346,389.171265 
z"/>
<path fill="#10304F" opacity="1.000000" stroke="none" 
	d="
M191.458130,421.864929 
	C193.154617,421.602936 195.273605,421.447418 197.672974,421.524750 
	C195.929108,421.828857 193.904877,421.900116 191.458130,421.864929 
z"/>
<path fill="#0A2B48" opacity="1.000000" stroke="none" 
	d="
M363.667419,447.230774 
	C362.723175,447.561859 361.447723,447.797394 360.047577,447.683472 
	C361.060669,447.267731 362.198425,447.201477 363.667419,447.230774 
z"/>
<path fill="#344F64" opacity="1.000000" stroke="none" 
	d="
M206.591614,389.047943 
	C205.188599,389.305267 203.363541,389.464752 201.266327,389.392273 
	C202.719284,389.090210 204.444427,389.020142 206.591614,389.047943 
z"/>
<path fill="#0A2B48" opacity="1.000000" stroke="none" 
	d="
M301.389984,115.244125 
	C302.516907,114.931183 304.053467,114.735245 305.808105,114.833588 
	C304.617310,115.205612 303.208466,115.283371 301.389984,115.244125 
z"/>
<path fill="#10304F" opacity="1.000000" stroke="none" 
	d="
M205.435577,421.864014 
	C206.509171,421.608368 207.983521,421.459076 209.705963,421.533356 
	C208.581497,421.828094 207.208908,421.899200 205.435577,421.864014 
z"/>
<path fill="#0A2B48" opacity="1.000000" stroke="none" 
	d="
M264.758606,100.215164 
	C264.420135,100.972778 263.804291,101.820831 262.839447,102.519577 
	C263.154053,101.682045 263.817657,100.993820 264.758606,100.215164 
z"/>
<path fill="#0A2B48" opacity="1.000000" stroke="none" 
	d="
M321.377319,115.236198 
	C322.196747,114.929848 323.410034,114.741615 324.824280,114.838150 
	C323.940552,115.200050 322.855896,115.277176 321.377319,115.236198 
z"/>
<path fill="#344F64" opacity="1.000000" stroke="none" 
	d="
M103.002731,389.770325 
	C101.929474,389.974243 100.868614,389.975159 99.409851,389.989197 
	C100.098007,389.656311 101.184067,389.310303 102.653137,389.062714 
	C103.036148,389.161133 103.015129,389.567352 103.002731,389.770325 
z"/>
<path fill="#0D6AC7" opacity="1.000000" stroke="none" 
	d="
M603.279785,101.684319 
	C603.467651,101.199020 603.919495,100.635925 604.666748,100.026871 
	C604.489319,100.522774 604.016479,101.064651 603.279785,101.684319 
z"/>
<path fill="#344F64" opacity="1.000000" stroke="none" 
	d="
M212.682281,389.039001 
	C212.448135,389.265076 211.880829,389.395233 211.151978,389.333008 
	C211.443344,389.074799 211.896225,389.008942 212.682281,389.039001 
z"/>
<path fill="#0B2E4D" opacity="1.000000" stroke="none" 
	d="
M452.455200,426.373901 
	C452.620056,426.005981 453.107544,425.559753 453.957977,425.114929 
	C453.806549,425.509430 453.292206,425.902496 452.455200,426.373901 
z"/>
<path fill="#0D6AC7" opacity="1.000000" stroke="none" 
	d="
M601.277710,103.484268 
	C601.331116,103.126785 601.637390,102.663368 602.236450,102.143173 
	C602.196472,102.517036 601.863525,102.947685 601.277710,103.484268 
z"/>
<path fill="#0B2E4D" opacity="1.000000" stroke="none" 
	d="
M500.240112,389.591553 
	C499.791718,389.743927 499.118988,389.633331 498.225586,389.253479 
	C498.675201,389.098999 499.345459,389.213806 500.240112,389.591553 
z"/>
<path fill="#0D6AC7" opacity="1.000000" stroke="none" 
	d="
M605.232483,99.893250 
	C605.120361,99.657265 605.322205,99.411049 605.806824,99.110275 
	C605.840271,99.275497 605.659241,99.551262 605.232483,99.893250 
z"/>
<path fill="#748593" opacity="1.000000" stroke="none" 
	d="
M263.179199,535.179810 
	C263.465057,534.903320 263.734802,534.987061 264.071716,535.344849 
	C263.838593,535.512207 263.513336,535.485962 263.179199,535.179810 
z"/>
<path fill="#344F64" opacity="1.000000" stroke="none" 
	d="
M663.202637,389.823059 
	C663.260010,390.020264 662.833923,390.122711 662.615784,390.102448 
	C662.444397,389.790375 662.491150,389.498566 662.794861,389.216309 
	C663.051819,389.225861 663.145264,389.625824 663.202637,389.823059 
z"/>
<path fill="#0F3150" opacity="1.000000" stroke="none" 
	d="
M695.964600,389.713867 
	C695.637146,389.910217 695.403687,389.752106 695.118042,389.331635 
	C695.346375,389.240387 695.677307,389.337128 695.964600,389.713867 
z"/>
<path fill="#0B2E4D" opacity="1.000000" stroke="none" 
	d="
M446.709839,391.905426 
	C446.740082,392.102722 446.507874,392.291138 446.153137,392.347900 
	C446.169525,392.109680 446.308441,392.003113 446.709839,391.905426 
z"/>
<path fill="#0B2E4D" opacity="1.000000" stroke="none" 
	d="
M442.692017,393.630066 
	C442.706879,393.816803 442.555450,393.905334 442.259247,393.999207 
	C442.159851,393.781189 442.296936,393.623627 442.692017,393.630066 
z"/>
<path fill="#0A2D4E" opacity="1.000000" stroke="none" 
	d="
M297.189209,477.817291 
	C297.226074,477.719086 297.454285,477.452789 297.943909,477.119202 
	C297.930359,477.250977 297.655457,477.450073 297.189209,477.817291 
z"/>
<path fill="#0A2B48" opacity="1.000000" stroke="none" 
	d="
M383.225098,115.240219 
	C383.263092,115.017075 383.537567,114.901321 383.879822,114.974854 
	C383.785553,115.225296 383.623566,115.286453 383.225098,115.240219 
z"/>
<path fill="#0C2D4B" opacity="1.000000" stroke="none" 
	d="
M400.920898,449.233459 
	C401.208130,449.188538 401.375336,449.362671 401.498566,449.563751 
	C401.519653,449.598145 401.353271,449.747528 401.095520,449.909485 
	C400.873688,449.804016 400.829865,449.632843 400.920898,449.233459 
z"/>
<path fill="#092C4C" opacity="1.000000" stroke="none" 
	d="
M99.260948,421.232361 
	C99.464737,421.064117 99.627701,421.148193 99.845947,421.393829 
	C99.926018,421.507355 99.562294,421.695038 99.562294,421.695038 
	C99.562294,421.695038 99.244911,421.436646 99.260948,421.232361 
z"/>
<path fill="#0A2B48" opacity="1.000000" stroke="none" 
	d="
M357.720123,447.260376 
	C357.676392,447.514618 357.391571,447.692810 357.052032,447.604340 
	C357.157898,447.286560 357.318481,447.235413 357.720123,447.260376 
z"/>
<path fill="#0D6AC7" opacity="1.000000" stroke="none" 
	d="
M607.277588,98.001076 
	C607.226074,97.799332 607.438354,97.519661 607.897156,97.135361 
	C607.942932,97.328201 607.742126,97.625671 607.277588,98.001076 
z"/>
<path fill="#0B2E4D" opacity="1.000000" stroke="none" 
	d="
M489.750427,387.054932 
	C489.701111,387.248199 489.424835,387.302124 489.075958,387.193665 
	C489.176727,386.992737 489.350067,386.954163 489.750427,387.054932 
z"/>
<path fill="#344F64" opacity="1.000000" stroke="none" 
	d="
M385.257385,380.189819 
	C385.488403,379.946259 385.658783,379.951935 386.057861,380.072693 
	C385.923340,380.271515 385.560089,380.355316 385.257385,380.189819 
z"/>
<path fill="#0B2E4D" opacity="1.000000" stroke="none" 
	d="
M411.590149,421.684631 
	C411.719757,421.902191 411.583374,422.275452 411.192932,422.815796 
	C411.067291,422.602020 411.195740,422.221191 411.590149,421.684631 
z"/>
<path fill="#0A2B48" opacity="1.000000" stroke="none" 
	d="
M201.748810,187.917847 
	C201.725159,188.113312 201.452911,188.224594 201.092041,188.169510 
	C201.169022,187.946640 201.334610,187.890152 201.748810,187.917847 
z"/>
<path fill="#10304F" opacity="1.000000" stroke="none" 
	d="
M228.278015,421.830627 
	C228.142120,421.412201 228.370712,421.274139 228.818604,421.442535 
	C228.798492,421.665894 228.666687,421.786530 228.278015,421.830627 
z"/>
<path fill="#0B2E4D" opacity="1.000000" stroke="none" 
	d="
M425.845093,413.902924 
	C427.197662,412.195496 427.993317,410.418945 429.227386,409.032684 
	C430.241852,407.893219 431.776855,407.217163 433.081177,406.335724 
	C433.719299,407.359802 434.293091,408.431610 435.010071,409.397156 
	C436.190796,410.987183 437.190948,412.924377 438.764587,413.957977 
	C440.946930,415.391418 441.924011,416.759247 439.627472,418.482178 
	C435.719330,421.414154 425.858368,420.175201 421.667419,416.072754 
	C423.054626,415.319092 424.266205,414.660889 425.845093,413.902924 
z"/>
<path fill="#0B2E4D" opacity="1.000000" stroke="none" 
	d="
M452.843018,406.906342 
	C454.168427,405.359802 454.989777,403.800781 456.118958,402.511322 
	C456.982300,401.525482 458.316589,400.170349 459.291809,400.282318 
	C460.281219,400.395966 461.660217,401.997284 461.880585,403.137909 
	C463.339539,410.689667 461.245026,412.877289 453.589630,411.929108 
	C452.438080,411.786499 451.385986,410.841187 450.287872,410.267212 
	C451.015717,409.181427 451.743561,408.095642 452.843018,406.906342 
z"/>
<path fill="#0B2E4D" opacity="1.000000" stroke="none" 
	d="
M500.873932,397.959534 
	C499.382385,397.088898 498.274780,396.198120 497.167175,395.307312 
	C497.758698,394.604797 498.359344,393.316559 498.939636,393.325653 
	C500.037140,393.342896 501.656433,393.835785 502.060608,394.635529 
	C502.449524,395.405029 501.576477,396.812286 500.873932,397.959534 
z"/>
<path fill="#092C4C" opacity="1.000000" stroke="none" 
	d="
M172.250214,419.781433 
	C171.613022,419.243073 171.055969,418.696777 171.167099,418.442169 
	C171.965561,416.612793 172.899689,414.842682 173.790756,413.053741 
	C174.854706,413.918060 176.637497,414.636963 176.847290,415.674072 
	C177.467484,418.739563 175.904602,420.339783 172.250214,419.781433 
z"/>
<path fill="#082D4E" opacity="1.000000" stroke="none" 
	d="
M390.696930,246.901367 
	C392.323273,247.607544 394.746460,248.541687 394.764313,249.519730 
	C394.805511,251.776260 393.679382,254.054062 393.026794,256.323242 
	C391.766205,255.613678 389.489136,254.971527 389.436768,254.181808 
	C389.283325,251.869141 390.015808,249.497711 390.696930,246.901367 
z"/>
<path fill="#082E51" opacity="1.000000" stroke="none" 
	d="
M419.909912,120.970413 
	C420.388733,122.708076 420.495056,124.460175 420.445374,126.628326 
	C419.312378,127.028587 418.207001,127.298241 417.388611,126.930023 
	C416.162933,126.378555 415.138855,125.378929 414.029053,124.569916 
	C415.051086,123.389503 415.961639,122.074150 417.148682,121.093513 
	C417.639740,120.687874 418.723297,120.999451 419.909912,120.970413 
z"/>
<path fill="#082E51" opacity="1.000000" stroke="none" 
	d="
M420.765442,155.170166 
	C420.747803,155.534348 420.730194,155.898544 420.557922,156.586853 
	C420.403259,156.910980 420.048737,157.014923 420.048737,157.014923 
	C419.896637,156.433868 419.744568,155.852798 420.003479,155.173553 
	C420.414429,155.075394 420.765442,155.170166 420.765442,155.170166 
z"/>
<path fill="#1078D9" opacity="1.000000" stroke="none" 
	d="
M420.745758,158.809326 
	C420.808716,159.345963 420.871704,159.882614 420.841675,160.816833 
	C420.428284,161.122742 420.108887,161.027710 419.543213,160.900208 
	C419.295929,160.871094 419.212341,160.579605 419.396698,160.293533 
	C419.729065,159.675018 419.877075,159.342575 420.025085,159.010132 
	C420.025085,159.010132 419.995819,159.011444 420.188354,158.962112 
	C420.380920,158.912781 420.745758,158.809326 420.745758,158.809326 
z"/>
<path fill="#1078D9" opacity="1.000000" stroke="none" 
	d="
M420.833099,154.841675 
	C420.765442,155.170166 420.414429,155.075394 420.238831,155.029083 
	C420.189362,154.708282 420.322021,154.436951 420.622070,154.010834 
	C420.822174,154.072968 420.861450,154.293076 420.833099,154.841675 
z"/>
<path fill="#1078D9" opacity="1.000000" stroke="none" 
	d="
M420.080231,157.247986 
	C420.048737,157.014923 420.403259,156.910980 420.579712,156.859711 
	C420.792908,157.039017 420.829651,157.269608 420.623779,157.788666 
	C420.381134,158.077118 420.023071,157.943008 420.023071,157.943008 
	C420.023071,157.943008 420.111725,157.481064 420.080231,157.247986 
z"/>
<path fill="#082D4E" opacity="1.000000" stroke="none" 
	d="
M420.015564,158.214813 
	C420.023071,157.943008 420.381134,158.077118 420.563019,158.133606 
	C420.744904,158.190094 420.716125,158.499741 420.730957,158.654541 
	C420.745758,158.809326 420.380920,158.912781 420.200745,158.971527 
	C420.016357,158.849045 420.012207,158.667831 420.015564,158.214813 
z"/>
<path fill="#082D4E" opacity="1.000000" stroke="none" 
	d="
M419.782288,159.151276 
	C419.877075,159.342575 419.729065,159.675018 419.336975,160.154175 
	C419.241760,159.964737 419.390625,159.628586 419.782288,159.151276 
z"/>
<path fill="#1078D9" opacity="1.000000" stroke="none" 
	d="
M420.709259,93.129662 
	C420.833466,93.043907 420.922424,93.519157 420.859192,93.750504 
	C420.507141,93.792389 420.436829,93.536919 420.709259,93.129662 
z"/>
<path fill="#1078D9" opacity="1.000000" stroke="none" 
	d="
M420.740906,90.153122 
	C420.865570,90.077736 420.947388,90.514610 420.895416,90.728546 
	C420.543488,90.780235 420.467743,90.542244 420.740906,90.153122 
z"/>
<path fill="#1581E8" opacity="1.000000" stroke="none" 
	d="
M457.984314,265.007324 
	C457.987823,270.311218 457.880585,275.618439 458.039093,280.917694 
	C458.125427,283.803558 457.188446,284.629517 454.181427,285.150665 
	C445.509491,286.653595 437.920990,282.801300 430.039764,280.767395 
	C427.118805,280.013641 422.664703,281.830566 420.722382,276.778809 
	C420.208435,275.887726 420.123810,275.442108 420.039185,274.996460 
	C420.143036,272.590973 420.246857,270.185516 420.800598,267.220276 
	C421.696625,264.959198 422.142792,263.257843 422.485962,261.949280 
	C428.522003,258.272369 434.594910,258.594299 440.836151,260.409973 
	C446.517242,262.062683 452.265594,263.484009 457.984314,265.007324 
z"/>
<path fill="#1B8AEE" opacity="1.000000" stroke="none" 
	d="
M457.991699,264.541992 
	C452.265594,263.484009 446.517242,262.062683 440.836151,260.409973 
	C434.594910,258.594299 428.522003,258.272369 422.485962,261.949280 
	C422.142792,263.257843 421.696625,264.959198 420.945770,266.795105 
	C420.491638,265.890167 420.342224,264.850677 420.242004,263.108032 
	C420.366455,260.599640 420.441711,258.794403 420.516937,256.989136 
	C421.010620,255.900879 422.054291,254.728775 421.903351,253.738770 
	C421.227264,249.303299 423.663971,247.529388 427.393677,247.437469 
	C432.363037,247.315018 437.382965,247.449768 442.313324,248.040314 
	C447.326385,248.640762 452.257111,249.928925 457.610962,250.969269 
	C457.998383,255.373947 457.998718,259.725311 457.991699,264.541992 
z"/>
<path fill="#052F53" opacity="1.000000" stroke="none" 
	d="
M419.660248,275.042633 
	C420.123810,275.442108 420.208435,275.887726 420.396790,276.657745 
	C420.385651,289.011261 420.270813,301.040375 420.101196,313.535950 
	C417.655579,312.436401 414.987946,311.160858 412.953094,309.221344 
	C410.984192,307.344757 409.569946,304.844666 408.113922,302.493439 
	C407.582733,301.635681 407.100861,300.104126 407.506470,299.417633 
	C409.574677,295.917145 412.071472,292.670105 414.143982,289.171875 
	C415.088684,287.577240 415.362030,285.593933 416.009521,283.812225 
	C417.070190,280.893524 418.187744,277.995544 419.660248,275.042633 
z"/>
<path fill="#38A2FC" opacity="1.000000" stroke="none" 
	d="
M422.004883,234.998169 
	C421.798035,237.192535 421.591156,239.386887 421.093933,241.733643 
	C420.683380,233.210495 420.563171,224.534958 420.677765,215.036118 
	C421.005035,209.475815 421.097534,204.738815 421.190002,200.001801 
	C421.190002,200.001801 421.593781,199.999969 421.797241,200.453232 
	C422.002502,203.938889 422.004303,206.971268 422.004761,210.471924 
	C422.003937,218.959518 422.004395,226.978851 422.004883,234.998169 
z"/>
<path fill="#052F53" opacity="1.000000" stroke="none" 
	d="
M419.972107,211.001572 
	C415.503815,206.884094 415.242310,202.489563 419.679138,199.498383 
	C420.054321,203.610123 420.013214,207.305847 419.972107,211.001572 
z"/>
<path fill="#1078D9" opacity="1.000000" stroke="none" 
	d="
M420.028992,211.400513 
	C420.013214,207.305847 420.054321,203.610123 420.034973,199.456772 
	C420.111206,198.410950 420.247864,197.822739 420.565002,196.991394 
	C420.860931,197.560867 420.976349,198.373489 421.140900,199.593964 
	C421.097534,204.738815 421.005035,209.475815 420.753143,214.570801 
	C420.424469,213.885666 420.255188,212.842575 420.028992,211.400513 
z"/>
<path fill="#052F53" opacity="1.000000" stroke="none" 
	d="
M420.438019,256.541901 
	C420.441711,258.794403 420.366455,260.599640 420.175568,262.714813 
	C419.857269,257.863464 419.654572,252.702225 419.762665,247.253510 
	C420.168640,250.008926 420.263855,253.051804 420.438019,256.541901 
z"/>
<path fill="#052F53" opacity="1.000000" stroke="none" 
	d="
M419.918274,190.992325 
	C420.346100,192.062103 420.456970,193.161636 420.402344,194.650604 
	C419.198822,194.533905 418.160736,194.027786 417.122650,193.521667 
	C417.948883,192.688477 418.775085,191.855286 419.918274,190.992325 
z"/>
<path fill="#137EE2" opacity="1.000000" stroke="none" 
	d="
M421.484741,84.971939 
	C418.842865,83.694420 416.696960,81.762077 414.252411,81.246918 
	C411.143158,80.591660 407.774078,80.866005 404.549042,81.130409 
	C398.862518,81.596619 393.214081,82.590439 387.523834,82.929451 
	C382.216309,83.245659 376.824677,83.466408 371.559296,82.899986 
	C360.673737,81.728973 349.847137,80.009132 338.997467,78.506599 
	C338.017609,78.370911 337.052094,78.083260 336.070038,78.020210 
	C328.456085,77.531418 328.426575,77.351456 326.020996,69.966965 
	C325.507202,68.389755 323.476837,67.316223 322.171234,65.985077 
	C320.124542,63.898323 318.100006,61.789799 316.066101,59.690491 
	C318.317322,58.460117 320.485107,56.351780 322.832062,56.128738 
	C371.853180,51.470043 421.004761,55.198673 470.557312,54.032104 
	C459.685577,61.184898 448.312469,68.272072 437.016449,75.480003 
	C432.637482,78.274208 428.432861,81.341591 424.094055,84.631409 
	C423.308868,84.967735 422.578491,84.957184 421.484741,84.971939 
z"/>
<path fill="#137EE2" opacity="1.000000" stroke="none" 
	d="
M589.055908,83.287117 
	C589.241455,83.209389 589.510315,83.412079 589.845337,83.865784 
	C589.911377,84.116806 589.618591,84.098671 589.474976,84.109428 
	C589.267334,83.935974 589.203308,83.751755 589.055908,83.287117 
z"/>
<path fill="#0C2D4B" opacity="1.000000" stroke="none" 
	d="
M673.140747,449.225616 
	C674.721130,448.399994 676.218018,447.761566 677.739136,447.697601 
	C678.046204,447.684662 678.855713,449.921600 678.663513,450.981659 
	C678.524353,451.749573 676.657776,452.999573 676.348450,452.802094 
	C675.089294,451.998138 674.133484,450.719208 673.140747,449.225616 
z"/>
<path fill="#0A2B48" opacity="1.000000" stroke="none" 
	d="
M366.530060,448.552185 
	C366.474670,448.585266 366.585449,448.519104 366.530060,448.552185 
z"/>
<path fill="#319FFB" opacity="1.000000" stroke="none" 
	d="
M422.006104,210.003662 
	C422.004303,206.971268 422.002502,203.938889 421.999146,200.451996 
	C421.999756,192.311508 422.001953,184.625488 422.360291,176.411636 
	C424.116425,172.801178 426.012299,169.837494 426.787537,166.605042 
	C427.701294,162.794998 430.042328,161.513641 433.393555,161.014252 
	C435.179871,160.748077 437.265533,159.768570 438.694519,160.363602 
	C442.243774,161.841522 447.594757,163.390884 448.424438,166.082260 
	C450.130005,171.615097 453.787689,174.258423 457.969513,176.996994 
	C457.976105,187.683151 457.982697,198.369324 457.627075,209.486084 
	C453.697876,203.988327 448.291656,204.352600 442.314728,204.834091 
	C436.795685,205.278702 431.081879,203.603210 426.585419,208.584778 
	C425.664886,209.604645 423.563293,209.558456 422.006104,210.003662 
z"/>
<path fill="#38A2FC" opacity="1.000000" stroke="none" 
	d="
M457.980957,176.528809 
	C453.787689,174.258423 450.130005,171.615097 448.424438,166.082260 
	C447.594757,163.390884 442.243774,161.841522 438.694519,160.363602 
	C437.265533,159.768570 435.179871,160.748077 433.393555,161.014252 
	C430.042328,161.513641 427.701294,162.794998 426.787537,166.605042 
	C426.012299,169.837494 424.116425,172.801178 422.362610,175.943161 
	C422.008118,162.877960 421.989044,149.753372 422.014618,136.628845 
	C422.027252,130.145584 428.395020,125.164383 434.774811,126.369164 
	C440.210510,127.395645 445.693054,128.185211 451.168945,128.982956 
	C454.256470,129.432770 457.975983,134.787277 457.986023,139.178940 
	C458.014191,151.472778 457.993683,163.766724 457.980957,176.528809 
z"/>
<path fill="#2B9BF9" opacity="1.000000" stroke="none" 
	d="
M422.004761,210.471939 
	C423.563293,209.558456 425.664886,209.604645 426.585419,208.584778 
	C431.081879,203.603210 436.795685,205.278702 442.314728,204.834091 
	C448.291656,204.352600 453.697876,203.988327 457.614471,209.954041 
	C457.978546,217.342316 457.993011,224.693237 457.995728,232.509857 
	C452.479492,232.011734 446.945709,231.188217 441.477692,230.049179 
	C434.353149,228.565048 428.722351,232.331787 422.377625,234.993988 
	C422.004395,226.978851 422.003937,218.959518 422.004761,210.471939 
z"/>
</svg>