<svg version="1.1" id="Layer_1" xmlns="http://www.w3.org/2000/svg" xmlns:xlink="http://www.w3.org/1999/xlink" x="0px" y="0px"
	 width="100%" viewBox="0 0 1024 656" enable-background="new 0 0 1024 656" xml:space="preserve">
<path fill="#000000" opacity="1.000000" stroke="none" 
	d="
M493.468658,657.000000 
	C493.953796,655.160400 492.677399,654.409851 491.451721,653.405457 
	C484.302795,647.547241 479.947266,640.319946 478.188873,631.477295 
	C470.037994,630.741638 463.463989,626.049683 456.820129,621.798767 
	C430.723236,605.100952 404.813232,588.111267 378.746399,571.366028 
	C373.121063,567.752380 370.495178,563.528259 370.525391,556.335999 
	C370.832825,483.186462 370.777588,410.035095 370.634613,336.884644 
	C370.624969,331.951538 372.212494,330.536804 376.905945,330.604858 
	C390.899750,330.807770 404.907654,330.983490 418.893372,330.584869 
	C442.256866,329.918915 459.764130,346.810883 463.002838,368.084412 
	C465.094269,381.822083 465.160553,395.570526 461.459442,409.209045 
	C456.229218,428.482147 441.270172,440.614380 421.289062,441.347137 
	C415.963715,441.542450 410.640015,441.991821 405.316895,441.972168 
	C401.388397,441.957703 400.259735,443.517456 400.275757,447.375031 
	C400.353394,466.036102 400.206360,484.698914 400.026825,503.360016 
	C399.876190,519.016418 399.664673,534.673645 399.263916,550.325012 
	C399.171661,553.928040 400.456512,556.153198 403.333771,558.181152 
	C428.654083,576.028442 454.729156,592.746399 480.721985,610.161865 
	C489.813171,592.435425 503.807220,580.635254 523.998779,580.398865 
	C543.584106,580.169495 558.957886,589.834778 569.713257,607.187927 
	C573.772400,604.345703 577.814087,601.562866 581.807007,598.711731 
	C600.245911,585.545105 618.716614,572.422363 637.071716,559.139893 
	C642.112427,555.492249 647.291992,553.451599 653.708130,553.663635 
	C665.525818,554.054199 677.365906,553.746399 689.196472,553.786499 
	C691.354614,553.793823 693.535278,553.921509 695.665161,554.253113 
	C701.818848,555.211548 705.729919,558.256042 706.437073,563.112976 
	C707.229553,568.556396 704.053894,572.266357 699.982788,575.196045 
	C696.783447,577.498474 693.006104,578.258057 689.094177,578.277771 
	C681.429321,578.316528 673.749939,578.643616 666.103210,578.284851 
	C657.725098,577.891968 650.551514,580.245667 643.676514,585.033752 
	C623.450317,599.120239 603.115479,613.061340 582.531738,626.616760 
	C577.125549,630.177002 573.185181,634.093689 571.176758,640.297058 
	C569.619873,645.105774 566.087463,648.839294 562.669983,652.510010 
	C561.407654,653.865906 559.743225,655.184143 562.781982,656.816528 
	C539.979126,657.000000 516.958191,657.000000 493.468658,657.000000 
M543.333740,639.819336 
	C553.973694,627.368347 551.213684,611.031799 537.129333,604.073853 
	C527.961304,599.544617 518.970642,600.298706 510.786285,606.454163 
	C502.657959,612.567566 500.826508,621.271973 502.737549,630.626099 
	C504.703369,640.248108 512.024048,644.937683 520.920654,647.087097 
	C529.378845,649.130554 536.623108,646.136719 543.333740,639.819336 
M406.371368,408.795898 
	C406.741760,411.103882 408.480347,411.437866 410.390015,411.752167 
	C422.279846,413.709198 429.995422,405.158722 430.600098,395.002106 
	C430.955566,389.031067 430.851959,383.014435 430.624268,377.030914 
	C430.228882,366.640930 422.639069,360.373322 412.254700,361.443420 
	C408.189423,361.862366 406.070496,363.274109 406.176605,367.975555 
	C406.477112,381.285553 406.294464,394.606476 406.371368,408.795898 
z"/>
<path fill="#000000" opacity="1.000000" stroke="none" 
	d="
M570.050171,267.974792 
	C564.763184,271.715424 559.644897,275.726501 554.159607,279.149384 
	C531.741577,293.138550 497.811249,288.680054 479.514771,269.509552 
	C477.559906,267.461273 475.461639,265.513733 473.754395,263.272278 
	C469.026215,257.064697 462.758972,255.384674 455.260742,255.873901 
	C450.702972,256.171265 446.820770,257.310699 443.450592,260.384247 
	C428.557556,273.966278 413.554504,287.429077 398.774475,301.132599 
	C394.566162,305.034424 390.366425,307.420105 384.275238,307.539978 
	C328.617401,308.635345 272.955902,308.052063 217.296799,308.207214 
	C209.102112,308.230072 202.775330,303.123138 202.749939,296.841125 
	C202.721359,289.773376 209.460663,283.713837 217.634399,283.705170 
	C266.134308,283.653778 314.635559,283.467773 363.133209,283.793915 
	C372.941986,283.859894 380.624512,280.927551 388.061249,274.678101 
	C403.492493,261.710480 419.302551,249.192474 434.150787,235.539810 
	C435.797150,234.026001 437.562500,233.702118 439.626495,233.722839 
	C443.958710,233.766296 448.296967,233.573868 452.623138,233.735931 
	C455.962952,233.861008 456.942535,232.410919 456.876312,229.246429 
	C456.761597,223.762543 456.793091,218.296082 457.339996,212.787018 
	C459.996979,186.021652 475.723389,169.507355 498.932526,158.548477 
	C517.858887,149.611847 536.390564,151.396820 554.766479,160.135956 
	C556.719604,161.064819 558.650574,162.040054 561.206055,163.250946 
	C563.596069,164.744995 565.371826,165.981888 567.147583,167.218765 
	C576.842712,175.592697 585.069946,184.979202 589.219055,197.463791 
	C592.608459,207.662292 592.773376,218.113037 592.022522,228.596497 
	C591.706482,233.009232 593.165588,234.247040 597.231201,233.765564 
	C601.520996,233.257523 605.860474,233.148361 610.139709,232.576965 
	C614.441101,232.002625 617.834717,233.353302 621.082397,236.143234 
	C636.749756,249.602112 652.633789,262.810425 668.210571,276.372192 
	C674.172668,281.563080 680.440613,283.886078 688.547913,283.831268 
	C736.196594,283.509094 783.848755,283.718323 831.499756,283.692871 
	C836.288086,283.690338 840.844177,284.131134 844.527283,287.599579 
	C847.824829,290.704895 850.353699,294.162537 848.685181,299.035156 
	C846.957703,304.080200 844.027405,307.769257 838.190247,308.348358 
	C829.041321,309.255951 819.866211,309.146881 810.728516,308.740051 
	C799.730225,308.250397 788.740662,308.662964 777.753540,308.377472 
	C772.877930,308.250793 771.133789,310.113647 771.184021,315.157318 
	C771.421631,338.980133 771.401001,362.807281 771.224548,386.631012 
	C771.191040,391.156433 772.513977,392.958221 777.165833,392.735352 
	C783.649780,392.424683 790.162842,392.448761 796.653442,392.650482 
	C800.530884,392.770966 801.827576,391.510193 801.779785,387.484528 
	C801.578308,370.492798 801.845886,353.495575 801.652832,336.503632 
	C801.603760,332.184143 802.881104,330.502960 807.306274,330.650604 
	C814.961975,330.906036 822.632324,330.703064 830.296326,330.735138 
	C836.609314,330.761566 837.009094,331.170959 837.019165,337.637878 
	C837.084900,379.957092 837.139282,422.276337 837.192810,464.595551 
	C837.202759,472.426270 837.062195,480.260071 837.246460,488.086426 
	C837.335938,491.884521 836.102051,493.531891 832.102905,493.429993 
	C823.944092,493.222076 815.773621,493.223663 807.613953,493.406952 
	C803.785645,493.492889 802.332520,492.080627 802.165771,488.233948 
	C801.400452,470.582062 801.940613,452.926422 801.771667,435.274200 
	C801.678955,425.580933 802.860413,426.307770 793.020386,426.354340 
	C787.855530,426.378815 782.690430,426.459656 777.526001,426.425964 
	C773.205688,426.397766 771.289429,428.173859 771.327393,432.762634 
	C771.474854,450.588562 771.352112,468.416809 771.309570,486.244141 
	C771.292725,493.319458 771.268616,493.337372 763.992004,493.358459 
	C756.661133,493.379700 749.325562,493.203186 742.001038,493.418945 
	C737.772827,493.543518 735.725159,492.430786 735.419373,487.688110 
	C734.656982,475.863770 734.858032,464.041840 734.837158,452.221313 
	C734.762268,409.736084 734.798096,367.250580 734.843384,324.765259 
	C734.848206,320.260773 732.467957,315.939789 734.873047,311.135803 
	C735.982300,308.920166 732.733948,308.383850 730.732849,308.358215 
	C725.735291,308.294098 720.736389,308.336517 715.738037,308.333405 
	C700.243103,308.323700 684.745239,308.137238 669.255005,308.401794 
	C664.151489,308.488983 660.386414,306.813660 656.838318,303.332031 
	C643.404480,290.149780 629.726868,277.215607 616.317139,264.009247 
	C610.771423,258.547607 604.878967,255.283768 596.694580,256.743683 
	C592.710938,257.454254 588.362793,257.800598 584.386780,255.946625 
	C582.619995,255.122772 581.514465,256.153900 580.417053,257.156219 
	C576.858337,260.406616 573.220093,263.583771 570.139587,267.719910 
	C570.010254,268.004028 570.050171,267.974792 570.050171,267.974792 
M496.623047,184.109085 
	C495.521484,185.125977 494.369751,186.094101 493.326019,187.167252 
	C480.369934,200.488632 476.509918,222.451767 484.257263,238.086670 
	C491.597290,252.899536 511.901184,265.615051 529.136353,262.867798 
	C562.382568,257.568451 576.713135,217.941635 560.373108,193.145844 
	C545.709473,170.894073 518.826294,167.172012 496.623047,184.109085 
z"/>
<path fill="#000000" opacity="1.000000" stroke="none" 
	d="
M567.466675,167.288300 
	C565.371826,165.981888 563.596069,164.744995 561.578064,163.345520 
	C551.806091,155.374176 541.036316,149.810043 529.224060,146.564423 
	C522.777771,144.793213 516.511780,146.561981 510.369812,149.342148 
	C493.984253,156.759094 479.801300,167.541351 465.389832,177.999603 
	C444.750916,192.977081 422.709412,205.842865 401.759705,220.358551 
	C384.511963,232.309189 366.553467,243.204834 349.446075,255.378540 
	C342.641174,260.220917 338.232269,259.918457 332.872101,254.968231 
	C327.281738,249.805374 326.969177,243.360870 332.331360,237.871231 
	C338.327148,231.732880 345.917633,227.673782 353.001831,223.053192 
	C400.287933,192.211594 446.658234,159.941101 495.465210,131.462585 
	C501.792328,127.770760 508.035309,123.915138 514.143311,119.872536 
	C521.364746,115.092979 528.278137,115.185913 535.581299,119.806160 
	C552.189819,130.313370 569.070190,140.393723 585.612061,151.002975 
	C628.089172,178.245972 670.443176,205.681015 712.841187,233.047256 
	C714.519104,234.130295 716.174316,235.253876 717.788818,236.428986 
	C724.599548,241.386124 726.452393,246.617264 723.353088,252.027634 
	C719.872925,258.102905 711.713379,260.399261 704.937012,256.977814 
	C701.826050,255.407043 698.877869,253.473465 695.990234,251.507217 
	C661.567444,228.068573 626.367126,205.825806 591.336670,183.320282 
	C583.360291,178.195816 575.629578,172.688782 567.466675,167.288300 
z"/>
<path fill="#000000" opacity="1.000000" stroke="none" 
	d="
M656.908447,332.667511 
	C673.971313,327.989777 690.687378,327.238647 706.450623,335.178345 
	C719.462402,341.732208 726.276611,353.257874 727.071289,367.816132 
	C727.579102,377.121307 727.121094,386.476135 727.248962,395.806610 
	C727.301086,399.612976 725.739136,401.279541 721.910034,401.222168 
	C714.912048,401.117340 707.911255,401.199890 700.911621,401.208801 
	C696.803894,401.214050 694.839417,399.281830 694.891785,395.063477 
	C694.974487,388.399017 694.786987,381.731689 694.816101,375.066010 
	C694.843384,368.817871 691.842163,364.296722 686.250854,362.222595 
	C680.466797,360.076965 674.414734,360.322723 669.049438,363.995605 
	C667.003296,365.396271 666.351379,367.717957 666.218445,370.144653 
	C664.750183,396.955688 665.421021,423.790466 665.463074,450.614746 
	C665.474304,457.769653 670.774292,462.378815 678.109436,462.759033 
	C690.545410,463.403595 695.116577,459.294983 695.793640,446.867126 
	C695.866150,445.535858 696.011169,444.205505 696.017883,442.874207 
	C696.040405,438.430084 698.118225,436.077698 702.684082,436.085510 
	C709.015808,436.096375 715.348206,436.007355 721.679138,436.073639 
	C723.700867,436.094788 726.083252,436.374451 726.159485,439.016785 
	C726.445862,448.937653 728.150940,458.991882 724.089111,468.602844 
	C716.682434,486.128265 702.402344,493.676605 684.407104,495.078796 
	C671.921692,496.051636 659.805725,494.110809 648.836060,487.428864 
	C636.529480,479.932587 630.278870,468.441345 630.039429,454.582336 
	C629.544434,425.936554 629.255676,397.270660 630.430359,368.615906 
	C631.164124,350.717438 639.946289,338.978516 656.908447,332.667511 
z"/>
<path fill="#000000" opacity="1.000000" stroke="none" 
	d="
M589.000000,494.191406 
	C577.337585,494.151733 566.173279,494.220795 555.013428,494.030090 
	C547.947205,493.909363 547.699890,493.501068 547.697510,486.615356 
	C547.684387,447.961700 547.745911,409.307831 547.636047,370.654480 
	C547.603394,359.171173 546.559875,347.708740 546.750793,336.204590 
	C546.817261,332.199890 548.001282,330.710358 552.172974,330.533722 
	C574.661621,329.581421 597.137695,330.659210 619.617676,330.586761 
	C623.624329,330.573883 625.388977,331.913666 625.262939,336.092651 
	C625.052185,343.084015 625.003845,350.093109 625.261658,357.080933 
	C625.418701,361.338531 623.670715,362.477692 619.676208,362.466705 
	C610.020447,362.440186 600.362854,362.983276 590.707764,362.935059 
	C586.365112,362.913422 584.828369,364.466675 584.886353,368.782684 
	C584.984619,376.103851 584.547302,383.430756 584.424683,390.756744 
	C584.309570,397.632538 584.625000,397.905579 591.275574,397.903534 
	C597.606689,397.901581 603.938171,397.950195 610.268677,397.889832 
	C613.376404,397.860199 614.683655,398.951355 614.581482,402.349579 
	C614.391663,408.664948 614.651245,414.998169 614.854187,421.319794 
	C615.080444,428.365234 614.649231,428.872162 607.341492,428.957733 
	C601.510681,429.026062 595.674194,429.258148 589.850830,429.077118 
	C586.159668,428.962402 584.652649,430.561798 584.602661,434.009583 
	C584.486633,442.004120 584.427551,449.999908 584.240051,457.992706 
	C584.153320,461.690277 586.515686,461.857147 589.212524,461.832489 
	C599.207947,461.741180 609.209595,461.856842 619.196411,461.522797 
	C623.294861,461.385681 625.097961,462.759735 625.084839,466.823669 
	C625.064392,473.154205 625.279236,479.486877 625.180603,485.815308 
	C625.085693,491.906250 623.957825,493.368713 617.973389,493.651978 
	C608.494995,494.100677 598.992371,494.037079 589.000000,494.191406 
z"/>
<path fill="#000000" opacity="1.000000" stroke="none" 
	d="
M266.000000,329.786499 
	C278.829224,329.810608 291.160156,329.961334 303.486694,329.791809 
	C307.776062,329.732819 309.452332,331.126465 309.286072,335.557953 
	C309.005188,343.044464 309.102692,350.552612 309.281464,358.045929 
	C309.372559,361.865295 308.003204,363.517639 304.064728,363.394867 
	C298.072662,363.208099 292.070190,363.344635 286.072205,363.359955 
	C279.369598,363.377075 279.324860,363.386536 279.314026,369.993713 
	C279.254791,406.148499 279.220642,442.303284 279.170776,478.458069 
	C279.165955,481.956635 279.092499,485.455139 279.087341,488.953705 
	C279.081909,492.631256 277.469330,494.381958 273.597260,494.308472 
	C265.936157,494.163055 258.269562,494.338654 250.606079,494.276306 
	C244.321838,494.225189 243.729828,493.630585 243.722183,487.380096 
	C243.674683,448.559509 243.659958,409.738953 243.633530,370.918365 
	C243.628372,363.337799 243.626694,363.329956 235.802307,363.301025 
	C229.970993,363.279449 224.138550,363.212524 218.308594,363.299377 
	C214.903961,363.350098 213.570206,361.890656 213.632538,358.474884 
	C213.775406,350.646759 213.820587,342.810425 213.614258,334.985077 
	C213.507675,330.942596 215.294846,329.821625 219.015533,329.840271 
	C234.509888,329.917999 250.005096,329.820526 266.000000,329.786499 
z"/>
<path fill="#000000" opacity="1.000000" stroke="none" 
	d="
M557.579712,574.142944 
	C545.452576,574.428589 538.764832,568.643494 538.658997,558.207031 
	C538.526489,545.138977 545.206665,537.429749 557.062805,537.795837 
	C561.698669,537.939026 564.945740,536.364746 568.168457,533.413696 
	C573.690857,528.356689 579.485901,523.598633 585.114685,518.656128 
	C587.627136,516.449951 590.420532,515.622070 593.791016,515.628723 
	C667.724365,515.774963 741.658020,515.825989 815.591492,515.950745 
	C820.745605,515.959412 825.900269,516.375244 831.052368,516.644775 
	C837.818115,516.998718 843.022888,521.643188 843.195801,527.429688 
	C843.357605,532.845764 837.593506,539.244202 831.592407,540.072693 
	C829.298218,540.389526 826.939331,540.289917 824.609924,540.291077 
	C753.828674,540.326599 683.043945,540.721802 612.268921,540.070068 
	C597.807251,539.936951 587.019409,545.190369 576.979065,554.177124 
	C575.096497,555.862122 573.568787,557.829346 572.898743,560.338257 
	C570.835083,568.065125 565.654053,572.409973 557.579712,574.142944 
z"/>
<path fill="#000000" opacity="1.000000" stroke="none" 
	d="
M524.309082,470.000031 
	C524.309509,476.661133 524.226257,482.823792 524.343445,488.982666 
	C524.404358,492.184296 523.104065,493.419403 519.899841,493.376251 
	C511.242676,493.259766 502.581085,493.248291 493.924744,493.398407 
	C489.976410,493.466888 488.693359,491.845154 488.869873,487.980499 
	C490.648743,449.042786 489.270721,410.080231 489.663177,371.130219 
	C489.742035,363.301788 489.653259,363.300720 481.657990,363.301636 
	C477.495117,363.302124 473.328400,363.193787 469.170624,363.340149 
	C466.048676,363.450043 464.598633,362.060059 464.253967,359.055267 
	C463.343811,351.120483 464.183380,343.089905 462.847687,335.170685 
	C462.492981,333.067719 463.811737,331.699219 465.943420,331.374817 
	C467.583893,331.125153 469.245789,330.877625 470.899078,330.871735 
	C492.545715,330.794342 514.192993,330.826019 535.838806,330.660919 
	C540.291443,330.626984 542.227234,332.267456 542.129456,336.792694 
	C541.985657,343.448914 541.955505,350.122192 542.278687,356.768677 
	C542.491394,361.140717 540.468872,362.825897 536.521729,363.081787 
	C536.023499,363.114075 535.527100,363.173279 535.029175,363.211121 
	C524.687317,363.997894 524.507080,363.996887 524.462219,374.586151 
	C524.328064,406.223755 524.348511,437.862030 524.309082,470.000031 
z"/>
<path fill="#000000" opacity="1.000000" stroke="none" 
	d="
M357.078674,478.988892 
	C357.019531,482.815399 356.925751,486.144440 356.912048,489.473846 
	C356.898804,492.695099 355.601257,494.372650 352.118530,494.315399 
	C344.295410,494.186676 336.468903,494.220459 328.644135,494.261047 
	C325.436157,494.277679 324.420319,492.882446 324.432434,489.654297 
	C324.571075,452.694122 324.576019,415.733459 324.606812,378.772919 
	C324.611084,373.622589 324.808838,368.455444 324.459381,363.327240 
	C324.186035,359.315674 325.979675,358.544464 329.448792,358.634583 
	C336.436951,358.816040 343.432861,358.684174 350.425415,358.714844 
	C356.796539,358.742767 357.009338,358.931824 357.046417,365.609680 
	C357.115753,378.096344 357.149841,390.583344 357.147522,403.070221 
	C357.142792,428.210663 357.103851,453.351135 357.078674,478.988892 
z"/>
<path fill="#000000" opacity="1.000000" stroke="none" 
	d="
M281.000671,515.095337 
	C293.649170,515.291260 305.799286,515.427795 317.946075,515.708252 
	C324.095428,515.850220 330.033234,520.502014 330.469666,525.242004 
	C331.011108,531.122925 325.978699,538.069641 319.908600,539.287537 
	C316.672272,539.936768 313.296356,540.113708 309.982788,540.119446 
	C284.006989,540.164673 258.030914,540.150269 232.055237,540.060730 
	C228.239273,540.047546 224.397324,539.741638 220.616013,539.219299 
	C213.875351,538.288025 208.618607,532.596069 208.969330,526.944153 
	C209.355194,520.726013 214.862671,515.820129 222.074020,515.712646 
	C241.548386,515.422363 261.025116,515.290222 281.000671,515.095337 
z"/>
<path fill="#000000" opacity="1.000000" stroke="none" 
	d="
M484.210815,560.397888 
	C479.609009,555.847595 475.052856,551.695312 470.787811,547.263000 
	C468.092712,544.462219 465.339294,543.543396 461.452362,544.408569 
	C453.948792,546.078674 446.847565,544.842224 440.852203,539.698364 
	C434.314758,534.089417 433.232666,525.263367 438.873474,518.743408 
	C448.638733,507.456177 463.039764,506.171204 472.547516,520.953186 
	C478.346558,529.969238 485.520752,535.581116 496.679382,537.093994 
	C511.805664,539.144653 517.749146,549.832153 514.283142,562.128113 
	C512.281738,569.228271 505.093262,574.196167 497.689453,574.328369 
	C491.093445,574.446106 485.351440,568.556946 484.210815,560.397888 
z"/>
<path fill="#000000" opacity="1.000000" stroke="none" 
	d="
M483.088928,289.655334 
	C481.507874,294.049652 479.044464,297.331451 475.768799,300.058441 
	C464.056976,309.808380 448.037933,304.136810 444.967255,289.135132 
	C443.232819,280.661682 448.542877,270.182312 456.620636,266.137238 
	C463.851837,262.516144 473.740204,264.938690 479.607819,271.874176 
	C483.937927,276.992310 484.638702,282.926392 483.088928,289.655334 
z"/>
<path fill="#000000" opacity="1.000000" stroke="none" 
	d="
M569.992615,268.021362 
	C583.603088,262.536255 593.449768,265.533630 598.958740,276.861359 
	C602.397339,283.932129 599.682129,294.962860 593.143372,300.486145 
	C586.818909,305.828400 577.280273,306.213684 570.429626,301.403595 
	C559.093384,293.444000 557.724060,281.693695 566.944458,271.452881 
	C567.835022,270.463776 568.755859,269.501953 569.856384,268.251129 
	C570.050171,267.974792 570.010254,268.004028 569.992615,268.021362 
z"/>
<path fill="#000000" opacity="1.000000" stroke="none" 
	d="
M333.724731,352.716370 
	C322.490326,346.697418 319.408875,337.335815 324.887238,326.799713 
	C329.843262,317.268250 341.461212,313.920685 351.531494,319.122620 
	C357.434753,322.171997 360.626343,329.732208 359.540253,338.093719 
	C358.516846,345.972931 353.714386,351.418060 346.351837,353.146820 
	C342.227234,354.115295 338.148560,354.115601 333.724731,352.716370 
z"/>
<path fill="#000000" opacity="1.000000" stroke="none" 
	d="
M526.808594,611.449463 
	C528.006653,611.621094 528.849976,611.664917 529.638794,611.895386 
	C536.427490,613.878906 541.156677,619.813293 540.544922,625.530701 
	C539.860168,631.930237 533.652161,637.243713 526.669617,637.406860 
	C519.380188,637.577148 513.408142,633.117737 512.061462,626.436218 
	C510.935181,620.848145 514.190430,617.336975 518.109619,614.290771 
	C520.508362,612.426392 523.343872,611.470154 526.808594,611.449463 
z"/>
<path fill="#000000" opacity="1.000000" stroke="none" 
	d="
M503.814697,225.738556 
	C500.891296,213.925552 506.024689,202.807068 516.170776,198.366714 
	C525.860229,194.126221 537.573914,197.725555 543.415894,206.738480 
	C550.133240,217.101929 546.692139,231.963577 536.145691,238.137161 
	C524.932251,244.701172 511.128479,240.623520 505.015656,228.919357 
	C504.556030,228.039352 504.276459,227.065308 503.814697,225.738556 
z"/>
</svg>